<svg id="pi-line_pay-svg" version="1.1" xmlns="http://www.w3.org/2000/svg" width="38" height="24" role="img" aria-labelledby="pi-line_pay" viewBox="0 0 400 423.529"><title id="pi-line_pay">LINE Pay</title><g id="pi-line_pay-svgg" stroke="none" fill-rule="evenodd"><path opacity=".07" d="M35 0H3C1.3 0 0 1.3 0 3v18c0 1.7 1.4 3 3 3h32c1.7 0 3-1.3 3-3V3c0-1.7-1.4-3-3-3z"/><path fill="#fff" d="M35 1c1.1 0 2 .9 2 2v18c0 1.1-.9 2-2 2H3c-1.1 0-2-.9-2-2V3c0-1.1.9-2 2-2h32"/><path d="M14.4.4c0 .22-.36.4-.8.4-.797 0-.8.267-.8 64.6V130h1.6c1.303 0 1.6.14 1.6.757 0 1.248-.165 1.243 41.2 1.243s41.2.005 41.2-1.243c0-.49.282-.757.8-.757.533 0 .8-.267.8-.8s.267-.8.8-.8c.785 0 .8-.267.8-14.2s-.015-14.2-.8-14.2c-.533 0-.8-.267-.8-.8 0-.792-.267-.8-27.8-.8H44.4V49.6c0-48.533-.004-48.8-.8-48.8-.44 0-.8-.18-.8-.4 0-.259-5-.4-14.2-.4S14.4.141 14.4.4m102.4 0c0 .22-.36.4-.8.4-.797 0-.8.267-.8 63.8 0 63.533.003 63.8.8 63.8.533 0 .8.267.8.8s.267.8.8.8c.45 0 .8.267.8.61 0 1.758 24.875 2.066 25.125.312.102-.721.426-.9 1.8-1 1.621-.118 1.679-.17 1.799-1.622.097-1.175.292-1.5.9-1.5 1.244 0 1.219-123.959-.024-124.284-.567-.148-.8-.546-.8-1.363V0H132c-9.867 0-15.2.14-15.2.4m50.4 0c0 .22-.36.4-.8.4-.797 0-.8.267-.8 64.6V130h1.6c1.303 0 1.6.14 1.6.757 0 1.186.577 1.243 12.6 1.243s12.6-.057 12.6-1.243c0-.613.296-.757 1.557-.757 2.176 0 2.043 2.335 2.043-35.833 0-34.3.006-34.567.8-34.567.533 0 .8.267.8.8s.267.8.8.8c.652 0 .8.267.8 1.437 0 1.088.189 1.487.778 1.641.427.112.832.59.9 1.063.076.538.459.907 1.022.987.578.082.9.404.9.9 0 .505.276.772.8.772.667 0 .8.267.8 1.6 0 1.333.133 1.6.8 1.6.545 0 .8.267.8.837 0 .501.321.922.8 1.047.606.159.8.546.8 1.6s.194 1.441.8 1.6c.443.116.8.546.8.963 0 .537.287.753 1 .753.9 0 1 .16 1 1.6 0 1.333.133 1.6.8 1.6.587 0 .8.267.8 1s.213 1 .8 1c.533 0 .8.267.8.8s.267.8.8.8c.667 0 .8.267.8 1.6 0 1.314.138 1.6.772 1.6.496 0 .818.322.9.9.082.578.45.946 1.028 1.028.759.108.9.374.9 1.7 0 1.305.136 1.572.8 1.572.533 0 .8.267.8.8s.267.8.8.8c.667 0 .8.267.8 1.6 0 1.333.133 1.6.8 1.6.545 0 .8.267.8.837 0 .485.318.921.754 1.035.514.135.835.697 1.005 1.763.194 1.211.43 1.565 1.046 1.565.528 0 .795.268.795.8 0 .533.267.8.8.8.587 0 .8.267.8 1s.213 1 .8 1c.667 0 .8.267.8 1.6 0 1.333.133 1.6.8 1.6.533 0 .8.267.8.8 0 .515.267.8.749.8.564 0 .812.394 1.005 1.6.199 1.244.432 1.6 1.051 1.6.581 0 .795.269.795 1 0 .733.213 1 .8 1 .652 0 .8.267.8 1.437 0 1.101.187 1.487.8 1.647.443.116.8.546.8.963 0 .486.283.753.8.753.545 0 .8.267.8.837 0 .501.321.922.8 1.047.508.133.8.546.8 1.13 0 1.446.421 2.186 1.243 2.186.49 0 .757.282.757.8 0 .533.267.8.8.8s.8.267.8.8.267.8.8.8c.525 0 .8.267.8.775 0 1.136 1.779 1.28 14.2 1.143l10.8-.118.128-.9c.108-.759.374-.9 1.7-.9 1.563 0 1.572-.009 1.572-1.572 0-1.326.141-1.592.9-1.7l.9-.128V2.6l-.9-.128c-.7-.099-.9-.389-.9-1.3V0h-15c-9.733 0-15 .14-15 .4 0 .22-.36.4-.8.4-.794 0-.8.267-.8 32.945v32.944l-1-.191c-.645-.123-1-.459-1-.945 0-.486-.283-.753-.8-.753-.67 0-.8-.267-.8-1.637 0-1.301-.164-1.681-.8-1.847-.443-.116-.8-.546-.8-.963 0-.486-.283-.753-.8-.753-.579 0-.8-.267-.8-.967 0-1.381-.398-2.233-1.043-2.233-.306 0-.557-.34-.557-.757 0-.473-.374-.85-1-1.007-.833-.209-1-.49-1-1.681 0-1.093-.188-1.479-.8-1.639-.443-.116-.8-.546-.8-.963 0-.486-.283-.753-.8-.753-.533 0-.8-.267-.8-.8s-.267-.8-.8-.8c-.67 0-.8-.267-.8-1.637 0-1.275-.169-1.682-.763-1.837-.42-.11-.853-.543-.963-.963-.116-.444-.549-.763-1.037-.763-.71 0-.837-.243-.837-1.6 0-1.333-.133-1.6-.8-1.6-.533 0-.8-.267-.8-.8s-.267-.8-.8-.8c-.67 0-.8-.267-.8-1.637 0-1.301-.164-1.681-.8-1.847-.44-.115-.8-.475-.8-.8 0-.325-.36-.685-.8-.8-.443-.116-.8-.546-.8-.963 0-.537-.287-.753-1-.753-.904 0-1-.158-1-1.637 0-1.301-.164-1.681-.8-1.847-.443-.116-.8-.546-.8-.963 0-.486-.283-.753-.8-.753-.652 0-.8-.267-.8-1.437 0-1.101-.187-1.487-.8-1.647-.443-.116-.8-.546-.8-.963 0-.469-.282-.753-.749-.753-.567 0-.812-.397-1.011-1.64-.186-1.165-.491-1.701-1.051-1.847-.434-.113-.789-.545-.789-.96 0-.486-.283-.753-.8-.753-.533 0-.8-.267-.8-.8s-.267-.8-.8-.8c-.67 0-.8-.267-.8-1.637 0-1.275-.169-1.682-.763-1.837-.42-.11-.853-.543-.963-.963-.109-.42-.47-.763-.801-.763-.391 0-.698-.561-.873-1.6-.205-1.215-.455-1.6-1.035-1.6-.498 0-.765-.279-.765-.8 0-.533-.267-.8-.8-.8-.67 0-.8-.267-.8-1.637 0-1.301-.164-1.681-.8-1.847-.44-.115-.8-.368-.8-.563 0-.198-7.008-.353-16-.353-10.4 0-16 .14-16 .4m131.2 0c0 .22-.36.4-.8.4-.797 0-.8.267-.8 64.6V130h1.6c1.303 0 1.6.14 1.6.757 0 1.248-.165 1.243 41.2 1.243s41.2.005 41.2-1.243c0-.49.282-.757.8-.757.533 0 .8-.267.8-.8s.267-.8.8-.8c.785 0 .8-.267.8-14.2s-.015-14.2-.8-14.2c-.533 0-.8-.267-.8-.8 0-.792-.267-.8-27.8-.8h-27.8V81.6h26.55c28.04 0 29.05-.043 29.05-1.25 0-.485.285-.75.805-.75.794 0 .803-.202.7-14.9l-.105-14.9-1.5-.124c-1.175-.097-1.5-.292-1.5-.9 0-.76-.547-.776-27-.776h-27V31.205l27.7-.102L383.8 31l.128-.9c.082-.578.404-.9.9-.9.748 0 .772-.437.772-14.2 0-13.933-.015-14.2-.8-14.2-.44 0-.8-.18-.8-.4 0-.264-14.533-.4-42.8-.4-28.267 0-42.8.136-42.8.4" fill="#040404"/><path d="M63.05 231.388c-.853.304-1.753.755-2 1.002-.731.731-.634 112.066.099 112.949.558.672 20.81 1.036 23.126.415 1.493-.4 1.725-3.003 1.725-19.325 0-11.619.116-15.226.5-15.542.302-.249 4.694-.479 11.1-.582 10.747-.173 13.431-.487 18.4-2.155.99-.332 2.398-.756 3.129-.941.731-.186 1.631-.603 2-.926.369-.324 1.121-.724 1.671-.891.55-.166 1.429-.637 1.954-1.047.525-.41 1.124-.745 1.333-.745 1.799 0 13.113-12.223 13.113-14.168 0-.169.333-.786.741-1.37.407-.584.859-1.68 1.004-2.436.146-.755.518-1.655.827-2 .31-.344.744-1.942.966-3.549.222-1.608.63-3.197.907-3.532.755-.909.669-8.985-.125-11.745-.348-1.21-.738-3.047-.866-4.083-.129-1.035-.598-2.563-1.044-3.394-.445-.831-.81-1.845-.81-2.254 0-.409-.36-1.2-.8-1.76-.44-.559-.8-1.342-.8-1.739 0-.398-.176-.831-.39-.964-.215-.133-1.016-1.178-1.779-2.324-2.014-3.018-6.855-7.87-9.631-9.65a177.749 177.749 0 01-3.484-2.286c-.596-.41-1.337-.746-1.646-.746-.309 0-1.001-.345-1.537-.767-.537-.422-1.686-.892-2.554-1.045-.869-.153-1.999-.542-2.513-.865-.514-.322-2.764-.758-5-.968-2.236-.209-4.479-.555-4.985-.768-1.556-.656-40.746-.471-42.631.201m44.189 24.466c.309.249 1.127.575 1.82.722.692.148 1.575.619 1.962 1.047.386.427.871.777 1.077.777.521 0 2.702 2.107 2.702 2.61 0 .227.36.72.8 1.097.44.377.801 1.002.803 1.389.001.387.36 1.244.797 1.904.66.997.795 1.878.795 5.2s-.135 4.203-.795 5.2c-.437.66-.796 1.499-.797 1.864-.004.912-3.127 4.791-4.052 5.033-.413.108-.751.342-.751.521 0 .178-1.035.832-2.3 1.453L107 285.8h-9.838c-7.75 0-9.978-.117-10.5-.549-.87-.722-1.024-28.727-.162-29.594.667-.672 19.892-.489 20.739.197M184 263.185c-.99.424-2.271.78-2.846.793-.575.012-1.475.355-2 .761-.525.406-1.464.864-2.088 1.016-.624.153-1.344.457-1.6.676-.256.219-1.608 1.127-3.003 2.019-3.195 2.04-10.863 9.771-10.863 10.951 0 .261-.36.801-.8 1.199-.44.398-.8.944-.8 1.213 0 .269-.248.695-.55.946-.303.251-.775 1.259-1.05 2.241-.275.982-.747 1.99-1.05 2.241-.302.251-.55.807-.55 1.234 0 .427-.351 1.62-.78 2.651-.43 1.031-.979 3.584-1.221 5.674-.242 2.09-.61 3.971-.819 4.18-.607.607-.467 8.316.175 9.659.306.638.673 2.552.816 4.253.144 1.701.61 3.861 1.036 4.8.427.939.777 1.978.78 2.308.005.855 3.678 8.136 4.297 8.52.284.176.516.555.516.841 0 .501 1.055 1.897 2.784 3.681.449.463.816.976.816 1.14 0 .673 6.732 6.218 7.55 6.218.226 0 .554.251.73.557.176.306.95.843 1.72 1.192s1.67.798 2 .996c1.196.721 5.046 2.051 7 2.42 1.1.208 2.507.57 3.126.806 1.654.63 10.542.539 12.901-.132 1.085-.308 2.672-.681 3.527-.828.855-.147 2.202-.615 2.994-1.039.792-.425 1.655-.772 1.918-.772.604 0 2.713-1.314 5.616-3.5 3.326-2.504 4.118-2.257 4.118 1.284 0 2.678-.179 2.641 12.249 2.522l11.151-.106.102-40.357c.074-29.488-.02-40.503-.349-40.9-.62-.746-22.144-.804-22.604-.06-.164.265-.4 1.66-.524 3.1-.287 3.337-1.009 3.563-3.952 1.237-1.127-.891-2.24-1.62-2.474-1.62-.233 0-.528-.27-.654-.6-.127-.33-.455-.6-.728-.6-.274 0-1.344-.45-2.379-1-1.034-.55-2.276-1.001-2.759-1.002-.484-.002-1.419-.312-2.079-.69-1.93-1.105-16.884-1.2-19.4-.123m77.176 1.661c-.557 1.04-.158 4.105.618 4.749.305.253.667.97.803 1.594.137.623.599 1.819 1.026 2.657.427.838.777 1.764.777 2.059 0 .295.343 1.202.763 2.016 1.381 2.68 2.437 5.158 2.438 5.723.001.306.361 1.145.8 1.866.44.72.799 1.565.799 1.879 0 .313.45 1.415 1 2.449.55 1.035 1 2.282 1 2.773 0 .49.258 1.106.574 1.368.316.262.697 1.034.847 1.715.149.682.61 1.794 1.024 2.473.414.678.754 1.593.756 2.033.002.44.362 1.34.799 2 .437.66.796 1.581.797 2.046.002.465.336 1.275.742 1.8.406.525.864 1.494 1.017 2.154.253 1.093 1.083 3.033 2.509 5.862.294.584.537 1.304.539 1.6.002.296.446 1.438.987 2.538.541 1.1.99 2.332.996 2.737.007.405.373 1.194.813 1.754.44.559.8 1.418.8 1.909 0 .491.334 1.321.742 1.846.408.525.863 1.611 1.011 2.414.147.803.516 1.665.818 1.916.303.251.669.944.813 1.54.326 1.349 1.958 5.498 2.789 7.091.342.656.623 1.515.625 1.909.001.394.399 1.254.885 1.911 1.247 1.687 1.232 6.279-.026 7.981-.471.638-.857 1.485-.857 1.882 0 .397-.336 1.349-.747 2.116-.41.767-.872 1.967-1.025 2.666-.154.7-.538 1.487-.854 1.749-.316.262-.58.86-.587 1.328-.006.468-.455 1.751-.996 2.851-.541 1.1-.987 2.27-.99 2.6-.003.33-.364 1.14-.801 1.8-.437.66-.796 1.539-.797 1.953-.002.414-.335 1.314-.741 2-.405.686-.978 2.3-1.273 3.586-.873 3.813-1.356 3.642 10.654 3.78 13.149.15 13.562.096 14.183-1.84.262-.813.707-1.749.991-2.079.283-.33.639-1.269.791-2.086.152-.817.515-1.684.808-1.927.293-.243.652-1.015.798-1.715.145-.699.482-1.632.748-2.072.266-.44.718-1.608 1.006-2.597.287-.988.772-2.153 1.077-2.589.305-.435.556-1.157.556-1.603.001-.446.334-1.355.739-2.019.405-.665.859-1.862 1.009-2.66.15-.798.519-1.656.82-1.906.301-.25.667-1.091.813-1.869.146-.779.614-1.987 1.04-2.686.426-.699.776-1.636.777-2.082 0-.446.245-1.166.544-1.6.299-.434.774-1.509 1.057-2.389.283-.88.758-1.955 1.057-2.389.299-.434.544-1.154.546-1.6.001-.446.36-1.351.797-2.011.437-.66.796-1.477.797-1.815.002-.339.361-1.319.799-2.178.438-.859.907-2.151 1.042-2.87.135-.72.492-1.513.793-1.763.301-.25.664-1.111.807-1.914.143-.803.597-2.021 1.011-2.707.413-.686.751-1.499.751-1.806 0-.307.36-1.231.8-2.051.44-.821.8-1.819.8-2.218s.267-1.074.594-1.502c.326-.427.793-1.496 1.037-2.376.244-.88.674-1.87.956-2.2.281-.33.639-1.31.795-2.179.156-.868.629-2.017 1.051-2.554.422-.536.767-1.455.767-2.041 0-.586.203-1.269.452-1.518.41-.41.868-1.525 2.342-5.708.271-.77.834-2.066 1.25-2.879.416-.814.757-1.714.758-2 .002-.287.29-1.061.641-1.721.351-.66.897-2.055 1.213-3.1.316-1.045.728-1.9.915-1.9.187 0 .463-.654.613-1.454.15-.8.62-2.102 1.044-2.894.425-.792.772-1.668.772-1.948 0-.279.36-1.179.8-2 .44-.82.8-1.876.8-2.344 0-.469.36-1.31.8-1.869.44-.56.8-1.351.8-1.76 0-.409.365-1.423.81-2.254 1.056-1.97 1.462-4.868.795-5.671-.51-.615-20.969-.943-23.005-.37-.805.227-3 3.258-3 4.142 0 .549-1.304 3.9-2.421 6.222-.424.88-.884 2.181-1.023 2.891-.139.71-.496 1.493-.794 1.74-.297.247-.662 1.106-.809 1.909-.148.803-.603 1.889-1.011 2.414-.408.525-.743 1.335-.744 1.8-.002.465-.29 1.386-.641 2.046-.351.66-.895 2.047-1.208 3.083-.313 1.035-.745 1.991-.959 2.123-.215.133-.391.636-.391 1.118-.001.482-.34 1.431-.754 2.109-.414.679-.883 1.849-1.043 2.6-.16.752-.521 1.637-.802 1.967-.281.33-.64 1.23-.799 2-.158.77-.608 1.94-1.001 2.6-.393.66-.835 1.773-.983 2.472-.147.7-.527 1.487-.843 1.749-.316.262-.574.827-.574 1.254 0 3.061-3.101 2.358-3.86-.875-.129-.55-.555-1.72-.947-2.6-1.853-4.163-2.793-6.552-2.793-7.101 0-.331-.258-.816-.574-1.078-.316-.262-.696-1.049-.843-1.749-.148-.699-.61-1.833-1.026-2.519-.416-.686-.757-1.607-.757-2.046 0-.44-.36-1.257-.8-1.816-.44-.56-.8-1.351-.8-1.76 0-.409-.336-1.37-.747-2.137-.41-.767-.872-1.967-1.025-2.666-.154-.7-.524-1.476-.822-1.723-.299-.248-.662-1.15-.806-2.005-.144-.855-.507-1.757-.806-2.005-.298-.247-.664-1.023-.811-1.723-.148-.699-.61-1.833-1.026-2.519-.416-.686-.757-1.565-.757-1.953 0-.388-.345-1.267-.766-1.953-.422-.686-.887-1.877-1.034-2.647-.181-.95-.727-1.754-1.698-2.5l-1.431-1.1H272.75c-10.913 0-11.13.016-11.574.846M205 285.934c.66.402 1.7.856 2.31 1.008 1.264.317 1.851.767 5.098 3.91 1.28 1.238 2.667 2.948 3.084 3.8.416.851.95 1.908 1.188 2.348 1.376 2.555 2.015 9.38 1.154 12.341-.348 1.2-.634 2.534-.634 2.964 0 2.569-5.115 9.25-8.2 10.711-.66.312-1.47.738-1.8.947-2.702 1.705-12.012 2.578-14.441 1.354-.527-.266-1.724-.678-2.659-.916-.935-.237-1.7-.587-1.7-.777 0-.19-.52-.527-1.155-.748-1.493-.521-5.6-4.628-6.121-6.121-.221-.635-.556-1.155-.745-1.155-.189 0-.468-.669-.622-1.486-.153-.818-.633-2.288-1.066-3.266-1.029-2.326-.875-10.079.232-11.659.372-.532.677-1.27.677-1.641 0-2.936 4.571-8.05 9.398-10.514l3.595-1.834 5.603.001c4.721.002 5.793.117 6.804.733" fill="#fafbfb"/><path d="M10.916 171.2c-.164.627-.567.81-1.863.846-2.727.076-2.848.119-2.981 1.054-.082.578-.404.9-.9.9-.505 0-.772.276-.772.8 0 .587-.267.8-1 .8s-1 .213-1 .8c0 .465-.267.8-.637.8-.351 0-.732.36-.847.8-.115.44-.368.8-.563.8C.15 178.8 0 229.292 0 298c0 74.095.142 119.2.376 119.2.207 0 .432.675.5 1.5.1 1.205.301 1.525 1.024 1.628.558.079.9.405.9.857 0 .804.755 1.215 2.233 1.215.532 0 .967.18.967.4 0 .266 64.933.4 194 .4s194-.134 194-.4c0-.22.435-.4.967-.4 1.389 0 2.233-.399 2.233-1.055 0-.314.315-.686.7-.828.956-.353 1.287-.92 1.294-2.217.003-.605.186-1.1.406-1.1.266 0 .4-40 .4-119.2 0-68.708-.15-119.2-.353-119.2-.195 0-.448-.36-.563-.8-.115-.44-.496-.8-.847-.8-.37 0-.637-.335-.637-.8 0-.587-.267-.8-1-.8s-1-.213-1-.8c0-.524-.267-.8-.772-.8-.496 0-.818-.322-.9-.9-.135-.948-.234-.981-3.184-1.054-1.506-.037-1.845-.178-1.8-.746.094-1.179-377.72-1.279-378.028-.1m100.624 58.839c.693.242 1.26.58 1.26.752 0 .172 1.073.39 2.385.485 1.367.099 2.69.44 3.1.798.393.343 1.372.742 2.175.886.803.144 1.665.509 1.916.811.251.303.93.669 1.509.815.578.145 1.495.612 2.037 1.039.542.426 1.219.775 1.505.775.285 0 .633.36.773.8.14.44.557.802.927.805.877.007 7.673 6.848 7.673 7.723 0 .37.274.672.61.672.335 0 .767.412.958.916.192.504.637 1.157.99 1.449.353.293.642.757.642 1.03s.362.957.804 1.519c.441.561.922 1.621 1.067 2.354.145.732.502 1.512.794 1.732.291.22.651 1.298.8 2.396.149 1.098.499 2.225.779 2.505 1.264 1.264 1.356 19.333.105 20.758-.358.407-.776 1.606-.928 2.664-.152 1.058-.513 2.014-.802 2.125-.288.111-.639.917-.779 1.792s-.51 1.689-.823 1.809c-.312.12-.693.788-.846 1.484-.153.697-.614 1.502-1.025 1.79-.41.287-.746.709-.746.936 0 1.624-9.34 10.741-11.004 10.741-.312 0-.753.345-.979.767-.226.423-.97.891-1.654 1.041-.685.15-1.586.615-2.004 1.033-.417.417-1.2.759-1.739.759-.539 0-1.145.294-1.346.654-.242.431-1.096.719-2.52.849-1.185.107-2.478.479-2.874.826-.917.804-6.721 1.205-17.98 1.243l-8.3.028v16.125c0 14.975-.051 16.179-.72 16.9-.396.426-.841 1.09-.988 1.475-.147.385-.523.7-.837.7-.313 0-.673.27-.8.6-.197.514-1.862.6-11.598.6H61.688l-1.544-1.374-1.544-1.374-.115-55.126c-.126-60.612-.232-56.927 1.696-59.026l1.378-1.5H85.92c16.656 0 24.759.139 25.62.439m-23.445 40.409L88.2 283.8l7.4.129c7.963.139 13.657-.439 14.85-1.505 2.438-2.181 3.55-3.345 3.55-3.714 0-.232.272-.622.605-.866.333-.244.779-1.511.991-2.815.212-1.303.569-2.554.795-2.78.579-.579.508-1.915-.191-3.587-.33-.79-.6-2.044-.6-2.787 0-.837-.3-1.623-.79-2.066-.434-.393-.908-1.089-1.054-1.546-.351-1.107-2.337-3.063-3.11-3.063-.338 0-.982-.394-1.43-.875-.789-.847-1.152-.881-11.021-1.052l-10.206-.176.106 13.351m113.105-9.261c1.65.257 3.666.815 4.479 1.24.814.425 1.939.773 2.5.773.562 0 1.381.36 1.821.8.44.44 1.036.8 1.325.8.288 0 .887.338 1.33.751.444.413 1.181.87 1.639 1.015.458.146.933.528 1.056.849.396 1.032 1.05.625 1.05-.653 0-.681.372-1.761.827-2.4l.827-1.162h24.207l.969 1.032.97 1.032.106 39.923.105 39.923-1.279 1.445-1.279 1.445h-23.115l-1.169-1.169c-.785-.786-1.169-1.573-1.169-2.4 0-1.439-.73-1.613-1.8-.431-.398.44-.968.8-1.266.8-.298 0-.85.36-1.227.8-.377.44-.981.8-1.342.8-.361 0-1.107.354-1.657.787-.55.432-1.79.906-2.754 1.053-.965.146-2.088.557-2.496.913-1.123.979-19.409.97-20.516-.01-.408-.361-1.69-.783-2.848-.938-1.468-.196-2.231-.513-2.515-1.043-.254-.475-.836-.762-1.544-.762-.625 0-1.37-.28-1.654-.623-.285-.343-1.072-.888-1.749-1.211-1.871-.892-2.76-1.479-3.739-2.466-.491-.495-1.073-.9-1.293-.9-.22 0-.4-.27-.4-.6 0-.33-.225-.606-.5-.613-.275-.007-1.31-.928-2.3-2.047a175.984 175.984 0 00-2.9-3.201c-.605-.641-1.1-1.402-1.1-1.691 0-.288-.36-.85-.8-1.248-.44-.398-.8-1.013-.8-1.366 0-.353-.36-.866-.8-1.141-.447-.279-.8-.933-.8-1.481 0-.539-.339-1.303-.753-1.696-.415-.394-.888-1.343-1.053-2.11-.164-.767-.557-1.788-.872-2.269-.315-.481-.681-1.921-.813-3.2-.132-1.279-.466-2.551-.742-2.828-1.293-1.292-1.351-18.981-.067-20.399.385-.425.701-1.389.702-2.141.003-1.697.719-4.369 1.171-4.369.185 0 .459-.82.61-1.823.15-1.003.513-1.916.806-2.028.293-.112.648-.82.789-1.572.141-.753.608-1.555 1.039-1.786.431-.231.783-.773.783-1.205 0-.432.36-1.146.8-1.586.44-.44.8-.929.8-1.086 0-.157.342-.652.76-1.1 5.27-5.648 6.655-7.014 7.108-7.014.292 0 .532-.27.532-.6 0-.33.171-.6.379-.6.209 0 .865-.45 1.459-1 .593-.55 1.249-1 1.457-1 .208 0 .836-.36 1.396-.8.559-.44 1.288-.8 1.619-.8.331 0 .802-.269 1.046-.597.244-.328 1.305-.756 2.358-.951 1.053-.195 2.223-.623 2.6-.951.378-.328 1.945-.719 3.486-.87 1.54-.15 2.98-.453 3.2-.673.497-.496 8.825-.222 13 .429m85.745 3.068c.58.58 1.055 1.452 1.055 1.938 0 .487.36 1.3.8 1.807.44.507.8 1.437.8 2.065 0 .648.347 1.44.8 1.828.44.377.8 1.161.8 1.742s.345 1.496.767 2.032c.422.537.9 1.686 1.063 2.554.162.869.541 1.76.842 1.98.3.221.66 1.104.8 1.963.139.858.585 1.893.99 2.298.423.423.738 1.309.738 2.076 0 .83.304 1.613.8 2.062.44.398.8 1.153.8 1.678 0 .525.343 1.442.763 2.038.419.596.874 1.741 1.01 2.544.137.803.509 1.676.827 1.94.318.264.702 1.137.852 1.94.15.803.527 1.646.837 1.874.31.228.67 1.218.801 2.2.141 1.071.531 1.995.973 2.309.405.287.737.952.737 1.477 0 1.175 1.544 3.882 2.039 3.576.199-.123.361-.769.361-1.437 0-.667.36-1.67.8-2.23.44-.559.8-1.418.8-1.909 0-.491.36-1.35.8-1.909.44-.56.8-1.46.8-2 0-.541.332-1.412.739-1.937.406-.525.848-1.651.983-2.504.134-.852.497-1.842.806-2.2.309-.357.679-1.268.822-2.024.143-.755.543-1.686.889-2.069.346-.382.726-1.422.845-2.31.119-.888.554-1.92.966-2.293.413-.373.75-1.124.75-1.669 0-.545.338-1.552.751-2.238.414-.686.873-1.931 1.022-2.768.149-.837.531-1.621.849-1.743.339-.13.578-.756.578-1.517 0-.758.311-1.576.75-1.973.412-.373.844-1.385.96-2.248.115-.864.588-2.051 1.05-2.638.462-.587.84-1.6.84-2.251 0-.828.229-1.244.763-1.383.42-.11.853-.543.963-.963.321-1.228 25.277-1.179 26.599.053 1.169 1.089 1.31 2.937.287 3.767-.283.229-.619 1.114-.746 1.967-.128.852-.487 1.842-.798 2.2-.312.357-.684 1.307-.828 2.11-.144.803-.518 1.672-.831 1.933-.313.26-.687 1.257-.831 2.216-.144.958-.603 2.051-1.02 2.429-.456.413-.758 1.219-.758 2.024 0 .805-.319 1.657-.8 2.138-.44.44-.8 1.316-.8 1.946 0 .63-.334 1.575-.742 2.1-.408.525-.863 1.611-1.011 2.414-.147.803-.511 1.661-.808 1.907-.296.247-.652 1.152-.789 2.012-.138.86-.507 1.821-.821 2.135-.314.314-.7 1.272-.858 2.129-.158.856-.621 1.986-1.029 2.511-.408.525-.742 1.355-.742 1.846 0 .491-.36 1.35-.8 1.909-.44.56-.8 1.55-.8 2.2 0 .651-.345 1.622-.767 2.158-.422.537-.891 1.635-1.042 2.44-.151.805-.526 1.673-.833 1.928-.307.255-.558.864-.558 1.354 0 .491-.45 1.738-1 2.773-.55 1.034-1 2.281-1 2.77 0 .49-.36 1.198-.8 1.575-.519.444-.8 1.18-.8 2.093s-.281 1.649-.8 2.093c-.44.377-.8 1.161-.8 1.742s-.337 1.486-.749 2.011c-.412.525-.876 1.707-1.031 2.628-.155.921-.628 2.074-1.051 2.562-.423.487-.769 1.386-.769 1.997 0 .61-.265 1.375-.589 1.699-.324.324-.706 1.318-.848 2.21-.143.892-.598 1.927-1.011 2.302-.437.395-.752 1.215-.752 1.956 0 .739-.315 1.561-.75 1.954-.412.373-.85 1.43-.973 2.348-.123.919-.483 1.859-.8 2.091-.316.231-.706 1.195-.866 2.142-.16.946-.529 1.812-.821 1.924-.292.112-.657.955-.811 1.872-.155.918-.618 2.098-1.03 2.623-.412.525-.749 1.551-.749 2.28 0 .759-.255 1.469-.596 1.66-.328.183-.76 1.21-.96 2.281-.2 1.072-.652 2.109-1.004 2.307-.361.202-.64.872-.64 1.538 0 .649-.336 1.516-.747 1.927-.41.41-.866 1.545-1.012 2.522-.151 1.006-.608 2.067-1.054 2.449-.433.371-.795.901-.804 1.178-.077 2.288-24.029 3.762-26.066 1.604a18.323 18.323 0 00-1.337-1.261c-.829-.687-.561-4.155.403-5.22.334-.369.728-1.29.874-2.045.147-.756.599-1.803 1.005-2.328.406-.525.738-1.445.738-2.046 0-.601.36-1.55.8-2.109.44-.56.8-1.46.8-2 0-.541.36-1.441.8-2 .44-.56.8-1.46.8-2 0-.541.334-1.412.742-1.937.408-.525.863-1.611 1.011-2.414.147-.803.529-1.676.847-1.94.318-.264.69-1.137.827-1.94.136-.803.591-1.948 1.01-2.544.981-1.393.968-2.747-.037-4.025-.44-.56-.8-1.471-.8-2.026 0-.554-.269-1.277-.598-1.606-.719-.719-1.402-2.417-1.402-3.485 0-.426-.36-1.134-.8-1.574-.44-.44-.8-1.267-.8-1.837 0-.57-.36-1.494-.8-2.054-.44-.559-.8-1.369-.8-1.8 0-.43-.36-1.24-.8-1.8-.44-.559-.8-1.595-.8-2.301 0-.776-.316-1.57-.8-2.008-.44-.398-.8-1.212-.8-1.808 0-.596-.362-1.544-.804-2.106-.441-.561-.919-1.621-1.062-2.354-.142-.732-.59-1.761-.996-2.286-.406-.525-.738-1.461-.738-2.08s-.288-1.287-.64-1.484c-.352-.198-.798-1.206-.992-2.241-.193-1.035-.625-2.155-.96-2.49-.334-.334-.608-1.021-.608-1.526 0-.504-.334-1.346-.742-1.871-.408-.525-.863-1.611-1.011-2.414-.147-.803-.519-1.668-.826-1.923-.307-.255-.682-1.192-.832-2.082-.151-.891-.615-1.961-1.031-2.377-.417-.417-.758-1.225-.758-1.795 0-.57-.36-1.494-.8-2.054-.44-.559-.8-1.459-.8-2 0-.54-.36-1.44-.8-2-.44-.559-.8-1.418-.8-1.909 0-.491-.334-1.321-.742-1.846-.408-.525-.873-1.665-1.033-2.534-.16-.869-.551-1.77-.867-2.001-.317-.232-.69-1.124-.83-1.983-.139-.858-.585-1.893-.99-2.298-.423-.423-.738-1.309-.738-2.076 0-.83-.304-1.613-.8-2.062-.44-.398-.8-1.163-.8-1.7 0-.537-.304-1.492-.677-2.122-.61-1.034-.616-1.215-.06-1.862.338-.394.727-1.031.864-1.416.229-.647 1.217-.7 13.006-.7h12.758l1.054 1.055M194 286.784c0 .212-1.101.612-2.447.89s-2.535.735-2.643 1.016c-.107.28-.42.51-.694.51-.275 0-.965.431-1.534.959-.569.527-1.18 1.022-1.358 1.1-.705.307-3.324 3.918-3.324 4.583 0 .388-.399 1.131-.887 1.651-1.345 1.432-1.379 14.985-.04 16.04.466.367.97 1.252 1.119 1.967.149.715.441 1.3.648 1.3.208 0 .582.45.833 1 .25.55.697 1 .991 1 .295 0 .536.274.536.61 0 .335.425.772.945.969.52.198 1.055.644 1.188.99.133.347.691.631 1.239.631.548 0 1.319.342 1.712.759 1.507 1.599 13.92 1.599 15.763.001.481-.418 1.18-.76 1.552-.76.372 0 .999-.355 1.392-.79.393-.434 1.051-.896 1.462-1.027.411-.13.747-.483.747-.783 0-.3.36-.66.8-.8.44-.14.8-.45.8-.689 0-.24.45-1.025 1-1.747.55-.721 1-1.67 1-2.109 0-.439.315-1.113.7-1.497 1.152-1.152 1.273-11.527.161-13.854-.448-.937-.934-2.199-1.081-2.804-.147-.605-.433-1.1-.636-1.1s-.489-.312-.635-.693c-.354-.921-4.521-4.907-5.131-4.907-.264 0-.685-.247-.936-.549-.251-.302-1.527-.76-2.836-1.018s-2.487-.64-2.617-.851c-.311-.503-7.789-.501-7.789.002" fill="#0cbc5c"/><path d="M60.181 231.1c-1.928 2.099-1.822-1.586-1.696 59.026l.115 55.126 1.544 1.374L61.688 348h11.369c9.736 0 11.401-.086 11.598-.6.127-.33.487-.6.8-.6.314 0 .69-.315.837-.7.147-.385.592-1.049.988-1.475.669-.721.72-1.925.72-16.9V311.6l8.3-.028c11.259-.038 17.063-.439 17.98-1.243.396-.347 1.689-.719 2.874-.826 1.424-.13 2.278-.418 2.52-.849.201-.36.807-.654 1.346-.654s1.322-.342 1.739-.759c.418-.418 1.319-.883 2.004-1.033.684-.15 1.428-.618 1.654-1.041.226-.422.667-.767.979-.767 1.664 0 11.004-9.117 11.004-10.741 0-.227.336-.649.746-.936.411-.288.872-1.093 1.025-1.79.153-.696.534-1.364.846-1.484.313-.12.683-.934.823-1.809.14-.875.491-1.681.779-1.792.289-.111.65-1.067.802-2.125.152-1.058.57-2.257.928-2.664 1.251-1.425 1.159-19.494-.105-20.758-.28-.28-.63-1.407-.779-2.505-.149-1.098-.509-2.176-.8-2.396-.292-.22-.649-1-.794-1.732-.145-.733-.626-1.793-1.067-2.354-.442-.562-.804-1.246-.804-1.519 0-.273-.289-.737-.642-1.03-.353-.292-.798-.945-.99-1.449-.191-.504-.623-.916-.958-.916-.336 0-.61-.302-.61-.672 0-.875-6.796-7.716-7.673-7.723-.37-.003-.787-.365-.927-.805-.14-.44-.488-.8-.773-.8-.286 0-.963-.349-1.505-.775-.542-.427-1.459-.894-2.037-1.039-.579-.146-1.258-.512-1.509-.815-.251-.302-1.113-.667-1.916-.811-.803-.144-1.782-.543-2.175-.886-.41-.358-1.733-.699-3.1-.798-1.312-.095-2.385-.313-2.385-.485 0-1.039-3.423-1.191-26.88-1.191H61.559l-1.378 1.5m47.419-.701c3.796.523 6.733 1.178 9 2.009 1.1.403 2.583.85 3.295.993.713.143 1.4.429 1.528.636.127.206.837.628 1.577.937 6.076 2.539 14.644 11.141 17.567 17.637a490.582 490.582 0 001.632 3.589c.543 1.172 1.553 4.797 2.229 8 .575 2.729.42 11.363-.252 14-.337 1.32-.792 3.12-1.013 4-.221.88-.753 2.332-1.182 3.226-.43.895-.781 1.908-.781 2.251 0 .344-.27.849-.6 1.123-.33.274-.6.691-.6.927 0 1.63-6.461 9.244-10.8 12.726-1.975 1.585-8.094 5.147-8.842 5.147-.259 0-1.21.335-2.114.745-4.214 1.911-6.677 2.23-19.044 2.466-6.49.123-11.845.261-11.9.307-.055.045-.114 7.057-.131 15.582-.044 22.159 1.093 20.5-14.048 20.5-11.392 0-12.15-.136-13.314-2.387-.901-1.743-.922-109.56-.022-111.715 1.33-3.183.568-3.086 24.215-3.071 11.55.008 22.17.175 23.6.372m-19.9 26.06c-.526.528-.766 26.381-.257 27.708.402 1.049 17.96.928 20.893-.144 2.09-.764 5.664-3.319 5.664-4.05 0-.205.315-.696.7-1.09 4.176-4.277 2.231-17.3-2.97-19.893a9.497 9.497 0 01-1.509-.972c-1.87-1.552-21.194-2.89-22.521-1.559m21.516 1.866c.448.481 1.092.875 1.43.875.773 0 2.759 1.956 3.11 3.063.146.457.62 1.153 1.054 1.546.49.443.79 1.229.79 2.066 0 .743.27 1.997.6 2.787.699 1.672.77 3.008.191 3.587-.226.226-.583 1.477-.795 2.78-.212 1.304-.658 2.571-.991 2.815-.333.244-.605.634-.605.866 0 .369-1.112 1.533-3.55 3.714-1.193 1.066-6.887 1.644-14.85 1.505l-7.4-.129-.105-13.352-.106-13.351 10.206.176c9.869.171 10.232.205 11.021 1.052m78.984 2.433c-.22.22-1.66.523-3.2.673-1.541.151-3.108.542-3.486.87-.377.328-1.547.756-2.6.951-1.053.195-2.114.623-2.358.951-.244.328-.715.597-1.046.597-.331 0-1.06.36-1.619.8-.56.44-1.188.8-1.396.8-.208 0-.864.45-1.457 1-.594.55-1.25 1-1.459 1-.208 0-.379.27-.379.6 0 .33-.24.6-.532.6-.453 0-1.838 1.366-7.108 7.014-.418.448-.76.943-.76 1.1 0 .157-.36.646-.8 1.086-.44.44-.8 1.154-.8 1.586 0 .432-.352.974-.783 1.205-.431.231-.898 1.033-1.039 1.786-.141.752-.496 1.46-.789 1.572-.293.112-.656 1.025-.806 2.028-.151 1.003-.425 1.823-.61 1.823-.452 0-1.168 2.672-1.171 4.369-.001.752-.317 1.716-.702 2.141-1.284 1.418-1.226 19.107.067 20.399.276.277.61 1.549.742 2.828s.498 2.719.813 3.2c.315.481.708 1.502.872 2.269.165.767.638 1.716 1.053 2.11.414.393.753 1.157.753 1.696 0 .548.353 1.202.8 1.481.44.275.8.788.8 1.141s.36.968.8 1.366c.44.398.8.96.8 1.248 0 .289.495 1.05 1.1 1.691.605.642 1.91 2.082 2.9 3.201.99 1.119 2.025 2.04 2.3 2.047.275.007.5.283.5.613s.18.6.4.6c.22 0 .802.405 1.293.9.979.987 1.868 1.574 3.739 2.466.677.323 1.464.868 1.749 1.211.284.343 1.029.623 1.654.623.708 0 1.29.287 1.544.762.284.53 1.047.847 2.515 1.043 1.158.155 2.44.577 2.848.938 1.107.98 19.393.989 20.516.01.408-.356 1.531-.767 2.496-.913.964-.147 2.204-.621 2.754-1.053.55-.433 1.296-.787 1.657-.787s.965-.36 1.342-.8c.377-.44.929-.8 1.227-.8.298 0 .868-.36 1.266-.8 1.07-1.182 1.8-1.008 1.8.431 0 .827.384 1.614 1.169 2.4l1.169 1.169h23.115l1.279-1.445 1.279-1.445-.105-39.923-.106-39.923-.97-1.032-.969-1.032h-24.207l-.827 1.162c-.455.639-.827 1.719-.827 2.4 0 1.278-.654 1.685-1.05.653-.123-.321-.598-.703-1.056-.849-.458-.145-1.195-.602-1.639-1.015-.443-.413-1.042-.751-1.33-.751-.289 0-.885-.36-1.325-.8-.44-.44-1.259-.8-1.821-.8-.561 0-1.686-.348-2.5-.773-2.642-1.38-16.45-2.698-17.479-1.669m15.822 1.685c.538.349 1.923.861 3.078 1.136 1.155.276 2.1.651 2.1.834 0 .183.39.457.866.608.477.151 2.032 1.073 3.456 2.048 2.803 1.919 3.677 1.977 3.679.244.001-.612.359-1.698.795-2.413l.792-1.3h23.191l.611 1.18c.535 1.035.61 6.076.61 40.874v39.694l-.87.926c-.868.925-.885.926-11.946.926-12.58 0-13.184-.137-13.184-2.996 0-2.927-.498-3.155-2.628-1.204-.841.77-1.735 1.4-1.988 1.4-.253 0-.786.36-1.184.8-.398.44-.921.802-1.162.804-.241.002-1.338.446-2.438.987-1.1.541-2.411.99-2.913.996-.502.007-1.582.313-2.4.68-2.506 1.125-13.754 1.256-17.213.201-1.471-.449-3.196-.928-3.835-1.065-3.367-.722-11.166-5.414-14.799-8.904-1.981-1.903-5.44-6.03-5.44-6.491 0-.193-.25-.601-.556-.907-1.47-1.47-5.148-9.63-5.906-13.101-.216-.99-.695-3.15-1.065-4.8-.85-3.79-.904-13.799-.087-16.2.299-.88.763-2.77 1.03-4.2.267-1.43.85-3.5 1.295-4.6l1.541-3.8c.663-1.633 1.983-3.93 2.888-5.025.194-.234.585-.864.871-1.4.867-1.627 6.811-7.836 9.373-9.79 3.308-2.523 9.736-5.505 14.216-6.596 2.615-.636 18.109-.271 19.222.454m56.105 1.457c-.137.385-.526 1.022-.864 1.416-.556.647-.55.828.06 1.862.373.63.677 1.585.677 2.122 0 .537.36 1.302.8 1.7.496.449.8 1.232.8 2.062 0 .767.315 1.653.738 2.076.405.405.851 1.44.99 2.298.14.859.513 1.751.83 1.983.316.231.707 1.132.867 2.001.16.869.625 2.009 1.033 2.534.408.525.742 1.355.742 1.846 0 .491.36 1.35.8 1.909.44.56.8 1.46.8 2 0 .541.36 1.441.8 2 .44.56.8 1.484.8 2.054 0 .57.341 1.378.758 1.795.416.416.88 1.486 1.031 2.377.15.89.525 1.827.832 2.082.307.255.679 1.12.826 1.923.148.803.603 1.889 1.011 2.414.408.525.742 1.367.742 1.871 0 .505.274 1.192.608 1.526.335.335.767 1.455.96 2.49.194 1.035.64 2.043.992 2.241.352.197.64.865.64 1.484s.332 1.555.738 2.08c.406.525.854 1.554.996 2.286.143.733.621 1.793 1.062 2.354.442.562.804 1.51.804 2.106 0 .596.36 1.41.8 1.808.484.438.8 1.232.8 2.008 0 .706.36 1.742.8 2.301.44.56.8 1.37.8 1.8 0 .431.36 1.241.8 1.8.44.56.8 1.484.8 2.054 0 .57.36 1.397.8 1.837.44.44.8 1.148.8 1.574 0 1.068.683 2.766 1.402 3.485.329.329.598 1.052.598 1.606 0 .555.36 1.466.8 2.026 1.005 1.278 1.018 2.632.037 4.025-.419.596-.874 1.741-1.01 2.544-.137.803-.509 1.676-.827 1.94-.318.264-.7 1.137-.847 1.94-.148.803-.603 1.889-1.011 2.414-.408.525-.742 1.396-.742 1.937 0 .54-.36 1.44-.8 2-.44.559-.8 1.459-.8 2 0 .54-.36 1.44-.8 2-.44.559-.8 1.508-.8 2.109s-.332 1.521-.738 2.046c-.406.525-.858 1.572-1.005 2.328-.146.755-.54 1.676-.874 2.045-.964 1.065-1.232 4.533-.403 5.22.372.309.974.876 1.337 1.261 2.037 2.158 25.989.684 26.066-1.604.009-.277.371-.807.804-1.178.446-.382.903-1.443 1.054-2.449.146-.977.602-2.112 1.012-2.522.411-.411.747-1.278.747-1.927 0-.666.279-1.336.64-1.538.352-.198.804-1.235 1.004-2.307.2-1.071.632-2.098.96-2.281.341-.191.596-.901.596-1.66 0-.729.337-1.755.749-2.28.412-.525.875-1.705 1.03-2.623.154-.917.519-1.76.811-1.872.292-.112.661-.978.821-1.924.16-.947.55-1.911.866-2.142.317-.232.677-1.172.8-2.091.123-.918.561-1.975.973-2.348.435-.393.75-1.215.75-1.954 0-.741.315-1.561.752-1.956.413-.375.868-1.41 1.011-2.302.142-.892.524-1.886.848-2.21.324-.324.589-1.089.589-1.699 0-.611.346-1.51.769-1.997.423-.488.896-1.641 1.051-2.562.155-.921.619-2.103 1.031-2.628.412-.525.749-1.43.749-2.011 0-.581.36-1.365.8-1.742.519-.444.8-1.18.8-2.093s.281-1.649.8-2.093c.44-.377.8-1.085.8-1.575 0-.489.45-1.736 1-2.77.55-1.035 1-2.282 1-2.773 0-.49.251-1.099.558-1.354.307-.255.682-1.123.833-1.928.151-.805.62-1.903 1.042-2.44.422-.536.767-1.507.767-2.158 0-.65.36-1.64.8-2.2.44-.559.8-1.418.8-1.909 0-.491.334-1.321.742-1.846.408-.525.871-1.655 1.029-2.511.158-.857.544-1.815.858-2.129.314-.314.683-1.275.821-2.135.137-.86.493-1.765.789-2.012.297-.246.661-1.104.808-1.907.148-.803.603-1.889 1.011-2.414.408-.525.742-1.47.742-2.1 0-.63.36-1.506.8-1.946.481-.481.8-1.333.8-2.138 0-.805.302-1.611.758-2.024.417-.378.876-1.471 1.02-2.429.144-.959.518-1.956.831-2.216.313-.261.687-1.13.831-1.933.144-.803.516-1.753.828-2.11.311-.358.67-1.348.798-2.2.127-.853.463-1.738.746-1.967 1.023-.83.882-2.678-.287-3.767-1.322-1.232-26.278-1.281-26.599-.053-.11.42-.543.853-.963.963-.534.139-.763.555-.763 1.383 0 .651-.378 1.664-.84 2.251-.462.587-.935 1.774-1.05 2.638-.116.863-.548 1.875-.96 2.248-.439.397-.75 1.215-.75 1.973 0 .761-.239 1.387-.578 1.517-.318.122-.7.906-.849 1.743-.149.837-.608 2.082-1.022 2.768-.413.686-.751 1.693-.751 2.238 0 .545-.337 1.296-.75 1.669-.412.373-.847 1.405-.966 2.293-.119.888-.499 1.928-.845 2.31-.346.383-.746 1.314-.889 2.069-.143.756-.513 1.667-.822 2.024-.309.358-.672 1.348-.806 2.2-.135.853-.577 1.979-.983 2.504-.407.525-.739 1.396-.739 1.937 0 .54-.36 1.44-.8 2-.44.559-.8 1.418-.8 1.909 0 .491-.36 1.35-.8 1.909-.44.56-.8 1.563-.8 2.23 0 .668-.162 1.314-.361 1.437-.495.306-2.039-2.401-2.039-3.576 0-.525-.332-1.19-.737-1.477-.442-.314-.832-1.238-.973-2.309-.131-.982-.491-1.972-.801-2.2-.31-.228-.687-1.071-.837-1.874-.15-.803-.534-1.676-.852-1.94-.318-.264-.69-1.137-.827-1.94-.136-.803-.591-1.948-1.01-2.544-.42-.596-.763-1.513-.763-2.038 0-.525-.36-1.28-.8-1.678-.496-.449-.8-1.232-.8-2.062 0-.767-.315-1.653-.738-2.076-.405-.405-.851-1.44-.99-2.298-.14-.859-.5-1.742-.8-1.963-.301-.22-.68-1.111-.842-1.98-.163-.868-.641-2.017-1.063-2.554-.422-.536-.767-1.451-.767-2.032s-.36-1.365-.8-1.742c-.453-.388-.8-1.18-.8-1.828 0-.628-.36-1.558-.8-2.065-.44-.507-.8-1.32-.8-1.807 0-.486-.475-1.358-1.055-1.938l-1.054-1.055h-12.758c-11.789 0-12.777.053-13.006.7m26.251 1c.67.715 1.219 1.52 1.22 1.789.001.269.343 1.259.759 2.2.417.941 1.167 2.701 1.667 3.911s1.33 3.134 1.843 4.275c.513 1.142.934 2.312.936 2.6.001.289.36 1.065.797 1.725.437.66.802 1.47.811 1.8.009.33.364 1.32.789 2.2.425.88.779 1.76.786 1.956.008.196.356 1.096.774 2 1.633 3.535 2.84 6.571 2.84 7.145 0 .331.258.816.574 1.078.316.262.7 1.049.854 1.749.153.699.615 1.899 1.025 2.666.411.767.747 1.646.747 1.953 0 .307.341 1.12.757 1.806.416.686.875 1.787 1.021 2.447.145.66.695 1.731 1.222 2.381l.959 1.18.42-1.106c.232-.609.421-1.343.421-1.632 0-.289.251-.733.558-.988.307-.255.682-1.132.834-1.949.151-.817.62-2.047 1.042-2.733.421-.686.767-1.496.768-1.8.002-.304.252-1.031.557-1.614.304-.584.779-1.754 1.054-2.6.276-.847.745-1.894 1.044-2.328.299-.434.543-1.071.543-1.415 0-.345.35-1.312.777-2.15.427-.838.896-2.092 1.043-2.785.146-.694.607-1.822 1.023-2.508.416-.686.758-1.586.76-2 .001-.414.36-1.293.797-1.953.437-.66.796-1.437.797-1.726.002-.289.453-1.509 1.003-2.711.55-1.203 1.006-2.406 1.013-2.675.007-.268.277-.837.6-1.264.323-.428.589-1.058.591-1.4.002-.343.446-1.524.987-2.624.541-1.1.99-2.287.996-2.639.012-.564.378-1.12 2.021-3.061.322-.38 3.345-.5 12.568-.5h12.145l.785 1.33c.677 1.148.71 1.434.239 2.077-.3.41-.545 1.004-.545 1.319 0 .574-1.55 4.469-2.629 6.606-.314.623-.573 1.433-.575 1.8-.002.368-.446 1.568-.987 2.668-.541 1.1-.991 2.27-.999 2.6-.008.33-.373 1.14-.81 1.8-.437.66-.796 1.565-.797 2.011-.002.446-.296 1.229-.654 1.741-.359.511-.795 1.496-.97 2.189-.174.692-1.411 3.922-2.748 7.177-1.337 3.254-2.431 6.157-2.431 6.451 0 .293-.265.753-.589 1.022-.325.269-.705 1.146-.845 1.949-.141.803-.532 1.899-.87 2.437-.338.537-.755 1.527-.927 2.2-.171.672-1.245 3.473-2.387 6.223-2.531 6.099-3.494 8.512-4.229 10.6-.31.88-.831 2.078-1.158 2.662-.327.584-.597 1.304-.599 1.6-.002.296-.446 1.438-.987 2.538-.541 1.1-.99 2.187-.996 2.415-.007.228-.662 1.938-1.456 3.8-.793 1.862-1.542 3.834-1.665 4.383-.122.548-.553 1.538-.956 2.2-.403.661-.734 1.475-.735 1.808 0 .333-.361 1.278-.801 2.098-.44.821-.802 1.719-.804 1.995-.002.275-.446 1.401-.987 2.501-.541 1.1-.99 2.242-.996 2.538-.007.296-.259 1.016-.561 1.6-.84 1.63-2.293 5.32-2.63 6.685-.167.673-.579 1.663-.915 2.2-.337.538-.737 1.517-.891 2.177-.153.66-.512 1.47-.796 1.8-.285.33-.635 1.23-.777 2-.44 2.387-2.239 4.804-4.043 5.431-2.902 1.01-21.534.798-23.253-.264-1.516-.937-1.859-3.057-.734-4.543.323-.428.589-1.058.591-1.4.002-.343.446-1.524.987-2.624.541-1.1.99-2.226.996-2.501.007-.276.373-1.174.813-1.995.44-.82.8-1.72.8-2 0-.279.36-1.179.8-2 .44-.82.8-1.77.8-2.109 0-.339.252-.977.561-1.418.308-.44.775-1.605 1.037-2.589.262-.983.71-2.058.995-2.388.285-.33.648-1.23.807-2 .159-.77.584-1.734.945-2.142.897-1.016.901-5.092.006-6.116-.357-.408-.767-1.399-.911-2.202-.144-.803-.508-1.664-.809-1.914-.301-.25-.671-1.114-.822-1.919-.151-.805-.62-1.903-1.042-2.44-.422-.536-.767-1.322-.767-1.746 0-.727-1.365-4.043-2.627-6.383-.315-.584-.574-1.394-.576-1.8-.001-.406-.36-1.278-.797-1.938-.437-.66-.796-1.467-.797-1.794-.002-.327-.43-1.497-.952-2.6a103.816 103.816 0 01-1.848-4.206c-.494-1.21-1.237-2.94-1.651-3.844-.414-.904-.752-1.85-.752-2.101 0-.252-.36-1.13-.8-1.951-.44-.82-.8-1.71-.8-1.977 0-.267-.45-1.331-1-2.365-.55-1.035-1-2.125-1-2.423 0-.298-.36-1.214-.8-2.035-.44-.82-.8-1.715-.8-1.988 0-.273-.359-1.086-.799-1.806-.439-.721-.799-1.545-.8-1.832-.001-.61-1.267-3.64-2.406-5.757-.437-.814-.796-1.804-.796-2.2-.001-.397-.361-1.31-.8-2.031-.44-.72-.801-1.53-.803-1.8-.002-.269-.446-1.39-.987-2.49-.541-1.1-.991-2.27-.999-2.6-.008-.33-.373-1.14-.81-1.8-.437-.66-.797-1.56-.8-2-.003-.44-.359-1.337-.792-1.994-.996-1.511-1.391-4.079-.847-5.506l.419-1.1h24.379l1.219 1.3M191.2 286.963c-6.269 2.479-10.708 7.535-11.436 13.025-.148 1.117-.426 2.127-.617 2.245-.571.352-.393 5.537.253 7.367.33.935.603 2.083.606 2.55.003.468.262 1.3.576 1.85.313.55.83 1.54 1.147 2.2.734 1.525 5.377 6.2 6.158 6.2.324 0 1.067.332 1.651.737 3.279 2.278 12.196 2.49 16.662.396 3.207-1.503 5.059-2.994 7.884-6.345 3.134-3.718 4.036-15.581 1.54-20.24-.453-.845-.824-1.733-.824-1.974 0-.783-4.351-5.269-6.111-6.301-4.861-2.848-12.679-3.613-17.489-1.71m10.589-.181c.13.211 1.308.593 2.617.851s2.585.716 2.836 1.018c.251.302.672.549.936.549.61 0 4.777 3.986 5.131 4.907.146.381.432.693.635.693s.489.495.636 1.1c.147.605.633 1.867 1.081 2.804 1.112 2.327.991 12.702-.161 13.854-.385.384-.7 1.058-.7 1.497 0 .439-.45 1.388-1 2.109-.55.722-1 1.507-1 1.747 0 .239-.36.549-.8.689-.44.14-.8.5-.8.8 0 .3-.336.653-.747.783-.411.131-1.069.593-1.462 1.027-.393.435-1.02.79-1.392.79-.372 0-1.071.342-1.552.76-1.843 1.598-14.256 1.598-15.763-.001-.393-.417-1.164-.759-1.712-.759s-1.106-.284-1.239-.631c-.133-.346-.668-.792-1.188-.99-.52-.197-.945-.634-.945-.969 0-.336-.241-.61-.536-.61-.294 0-.741-.45-.991-1-.251-.55-.625-1-.833-1-.207 0-.499-.585-.648-1.3-.149-.715-.653-1.6-1.119-1.967-1.339-1.055-1.305-14.608.04-16.04.488-.52.887-1.263.887-1.651 0-.665 2.619-4.276 3.324-4.583.178-.078.789-.573 1.358-1.1.569-.528 1.259-.959 1.534-.959.274 0 .587-.23.694-.51.108-.281 1.297-.738 2.643-1.016 1.346-.278 2.447-.678 2.447-.89 0-.503 7.478-.505 7.789-.002" fill="#3ccc80"/><path d="M61.685 230.856c-2.638 1.689-2.485-1.903-2.485 58.213 0 59.946-.155 56.21 2.387 57.524.96.497 3.055.607 11.534.607 15.141 0 14.004 1.659 14.048-20.5.017-8.525.076-15.537.131-15.582.055-.046 5.41-.184 11.9-.307 12.367-.236 14.83-.555 19.044-2.466.904-.41 1.855-.745 2.114-.745.748 0 6.867-3.562 8.842-5.147 4.339-3.482 10.8-11.096 10.8-12.726 0-.236.27-.653.6-.927.33-.274.6-.779.6-1.123 0-.343.351-1.356.781-2.251.429-.894.961-2.346 1.182-3.226.221-.88.676-2.68 1.013-4 .672-2.637.827-11.271.252-14-.676-3.203-1.686-6.828-2.229-8-.306-.66-1.04-2.275-1.632-3.589-2.923-6.496-11.491-15.098-17.567-17.637-.74-.309-1.45-.731-1.577-.937-.128-.207-.815-.493-1.528-.636-.712-.143-2.195-.59-3.295-.993-5.743-2.104-9.322-2.365-32.6-2.381-20.678-.013-21.02-.001-22.315.829m43.996.331c.506.213 2.749.559 4.985.768 2.236.21 4.486.646 5 .968.514.323 1.644.712 2.513.865.868.153 2.017.623 2.554 1.045.536.422 1.228.767 1.537.767.309 0 1.05.336 1.646.746.596.41 2.164 1.439 3.484 2.286 2.776 1.78 7.617 6.632 9.631 9.65.763 1.146 1.564 2.191 1.779 2.324.214.133.39.566.39.964 0 .397.36 1.18.8 1.739.44.56.8 1.351.8 1.76 0 .409.365 1.423.81 2.254.446.831.915 2.359 1.044 3.394.128 1.036.518 2.873.866 4.083.794 2.76.88 10.836.125 11.745-.277.335-.685 1.924-.907 3.532-.222 1.607-.656 3.205-.966 3.549-.309.345-.681 1.245-.827 2-.145.756-.597 1.852-1.004 2.436-.408.584-.741 1.201-.741 1.37 0 1.945-11.314 14.168-13.113 14.168-.209 0-.808.335-1.333.745-.525.41-1.404.881-1.954 1.047-.55.167-1.302.567-1.671.891-.369.323-1.269.74-2 .926-.731.185-2.139.609-3.129.941-4.969 1.668-7.653 1.982-18.4 2.155-6.406.103-10.798.333-11.1.582-.384.316-.5 3.923-.5 15.542 0 16.322-.232 18.925-1.725 19.325-2.316.621-22.568.257-23.126-.415-.733-.883-.83-112.218-.099-112.949 1.44-1.44 3.158-1.555 23.631-1.572 12.088-.011 20.447.136 21 .369M86.5 255.657c-.862.867-.708 28.872.162 29.594.522.432 2.75.549 10.5.549H107l2.3-1.129c1.265-.621 2.3-1.275 2.3-1.453 0-.179.338-.413.751-.521.925-.242 4.048-4.121 4.052-5.033.001-.365.36-1.204.797-1.864.66-.997.795-1.878.795-5.2s-.135-4.203-.795-5.2c-.437-.66-.796-1.517-.797-1.904-.002-.387-.363-1.012-.803-1.389-.44-.377-.8-.87-.8-1.097 0-.503-2.181-2.61-2.702-2.61-.206 0-.691-.35-1.077-.777-.387-.428-1.27-.899-1.962-1.047-.693-.147-1.511-.473-1.82-.722-.847-.686-20.072-.869-20.739-.197m20.379 1.214c1.473.328 2.977.844 3.342 1.147.366.303 1.044.74 1.509.972 5.201 2.593 7.146 15.616 2.97 19.893-.385.394-.7.885-.7 1.09 0 .731-3.574 3.286-5.664 4.05-2.933 1.072-20.491 1.193-20.893.144-.509-1.327-.269-27.18.257-27.708.713-.715 15.545-.396 19.179.412m77.921 5.118c-4.48 1.091-10.908 4.073-14.216 6.596-2.562 1.954-8.506 8.163-9.373 9.79-.286.536-.677 1.166-.871 1.4-.905 1.095-2.225 3.392-2.888 5.025l-1.541 3.8c-.445 1.1-1.028 3.17-1.295 4.6-.267 1.43-.731 3.32-1.03 4.2-.817 2.401-.763 12.41.087 16.2.37 1.65.849 3.81 1.065 4.8.758 3.471 4.436 11.631 5.906 13.101.306.306.556.714.556.907 0 .461 3.459 4.588 5.44 6.491 3.633 3.49 11.432 8.182 14.799 8.904.639.137 2.364.616 3.835 1.065 3.459 1.055 14.707.924 17.213-.201.818-.367 1.898-.673 2.4-.68.502-.006 1.813-.455 2.913-.996 1.1-.541 2.197-.985 2.438-.987.241-.002.764-.364 1.162-.804.398-.44.931-.8 1.184-.8.253 0 1.147-.63 1.988-1.4 2.13-1.951 2.628-1.723 2.628 1.204 0 2.859.604 2.996 13.184 2.996 11.061 0 11.078-.001 11.946-.926l.87-.926v-39.694c0-34.798-.075-39.839-.61-40.874l-.611-1.18h-23.191l-.792 1.3c-.436.715-.794 1.801-.795 2.413-.002 1.733-.876 1.675-3.679-.244-1.424-.975-2.979-1.897-3.456-2.048-.476-.151-.866-.425-.866-.608s-.945-.558-2.1-.834c-1.155-.275-2.54-.787-3.078-1.136-1.113-.725-16.607-1.09-19.222-.454m18.6 1.319c.66.378 1.595.688 2.079.69.483.001 1.725.452 2.759 1.002 1.035.55 2.105 1 2.379 1 .273 0 .601.27.728.6.126.33.421.6.654.6.234 0 1.347.729 2.474 1.62 2.943 2.326 3.665 2.1 3.952-1.237.124-1.44.36-2.835.524-3.1.46-.744 21.984-.686 22.604.06.329.397.423 11.412.349 40.9L241.8 345.8l-11.151.106c-12.428.119-12.249.156-12.249-2.522 0-3.541-.792-3.788-4.118-1.284-2.903 2.186-5.012 3.5-5.616 3.5-.263 0-1.126.347-1.918.772-.792.424-2.139.892-2.994 1.039-.855.147-2.442.52-3.527.828-2.359.671-11.247.762-12.901.132-.619-.236-2.026-.598-3.126-.806-1.954-.369-5.804-1.699-7-2.42-.33-.198-1.23-.647-2-.996s-1.544-.886-1.72-1.192c-.176-.306-.504-.557-.73-.557-.818 0-7.55-5.545-7.55-6.218 0-.164-.367-.677-.816-1.14-1.729-1.784-2.784-3.18-2.784-3.681 0-.286-.232-.665-.516-.841-.619-.384-4.292-7.665-4.297-8.52-.003-.33-.353-1.369-.78-2.308-.426-.939-.892-3.099-1.036-4.8-.143-1.701-.51-3.615-.816-4.253-.642-1.343-.782-9.052-.175-9.659.209-.209.577-2.09.819-4.18s.791-4.643 1.221-5.674c.429-1.031.78-2.224.78-2.651 0-.427.248-.983.55-1.234.303-.251.775-1.259 1.05-2.241.275-.982.747-1.99 1.05-2.241.302-.251.55-.677.55-.946 0-.269.36-.815.8-1.213.44-.398.8-.938.8-1.199 0-1.18 7.668-8.911 10.863-10.951 1.395-.892 2.747-1.8 3.003-2.019.256-.219.976-.523 1.6-.676.624-.152 1.563-.61 2.088-1.016.525-.406 1.425-.749 2-.761.575-.013 1.856-.369 2.846-.793 2.516-1.077 17.47-.982 19.4.123m56.961 1.392c-.544 1.427-.149 3.995.847 5.506.433.657.789 1.554.792 1.994.003.44.363 1.34.8 2 .437.66.802 1.47.81 1.8.008.33.458 1.5.999 2.6.541 1.1.985 2.221.987 2.49.002.27.363 1.08.803 1.8.439.721.799 1.634.8 2.031 0 .396.359 1.386.796 2.2 1.139 2.117 2.405 5.147 2.406 5.757.001.287.361 1.111.8 1.832.44.72.799 1.533.799 1.806 0 .273.36 1.168.8 1.988.44.821.8 1.737.8 2.035 0 .298.45 1.388 1 2.423.55 1.034 1 2.098 1 2.365 0 .267.36 1.157.8 1.977.44.821.8 1.699.8 1.951 0 .251.338 1.197.752 2.101.414.904 1.157 2.634 1.651 3.844.495 1.21 1.326 3.103 1.848 4.206.522 1.103.95 2.273.952 2.6.001.327.36 1.134.797 1.794.437.66.796 1.532.797 1.938.002.406.261 1.216.576 1.8 1.262 2.34 2.627 5.656 2.627 6.383 0 .424.345 1.21.767 1.746.422.537.891 1.635 1.042 2.44.151.805.521 1.669.822 1.919.301.25.665 1.111.809 1.914.144.803.554 1.794.911 2.202.895 1.024.891 5.1-.006 6.116-.361.408-.786 1.372-.945 2.142-.159.77-.522 1.67-.807 2-.285.33-.733 1.405-.995 2.388-.262.984-.729 2.149-1.037 2.589-.309.441-.561 1.079-.561 1.418 0 .339-.36 1.289-.8 2.109-.44.821-.8 1.721-.8 2 0 .28-.36 1.18-.8 2-.44.821-.806 1.719-.813 1.995-.006.275-.455 1.401-.996 2.501-.541 1.1-.985 2.281-.987 2.624-.002.342-.268.972-.591 1.4-1.125 1.486-.782 3.606.734 4.543 1.719 1.062 20.351 1.274 23.253.264 1.804-.627 3.603-3.044 4.043-5.431.142-.77.492-1.67.777-2 .284-.33.643-1.14.796-1.8.154-.66.554-1.639.891-2.177.336-.537.748-1.527.915-2.2.337-1.365 1.79-5.055 2.63-6.685.302-.584.554-1.304.561-1.6.006-.296.455-1.438.996-2.538.541-1.1.985-2.226.987-2.501.002-.276.364-1.174.804-1.995.44-.82.801-1.765.801-2.098.001-.333.332-1.147.735-1.808.403-.662.834-1.652.956-2.2.123-.549.872-2.521 1.665-4.383.794-1.862 1.449-3.572 1.456-3.8.006-.228.455-1.315.996-2.415.541-1.1.985-2.242.987-2.538.002-.296.272-1.016.599-1.6.327-.584.848-1.782 1.158-2.662.735-2.088 1.698-4.501 4.229-10.6 1.142-2.75 2.216-5.551 2.387-6.223.172-.673.589-1.663.927-2.2.338-.538.729-1.634.87-2.437.14-.803.52-1.68.845-1.949.324-.269.589-.729.589-1.022 0-.294 1.094-3.197 2.431-6.451 1.337-3.255 2.574-6.485 2.748-7.177.175-.693.611-1.678.97-2.189.358-.512.652-1.295.654-1.741.001-.446.36-1.351.797-2.011.437-.66.802-1.47.81-1.8.008-.33.458-1.5.999-2.6.541-1.1.985-2.3.987-2.668.002-.367.261-1.177.575-1.8 1.079-2.137 2.629-6.032 2.629-6.606 0-.315.245-.909.545-1.319.471-.643.438-.929-.239-2.077l-.785-1.33h-12.145c-9.223 0-12.246.12-12.568.5-1.643 1.941-2.009 2.497-2.021 3.061-.006.352-.455 1.539-.996 2.639-.541 1.1-.985 2.281-.987 2.624-.002.342-.268.972-.591 1.4-.323.427-.593.996-.6 1.264-.007.269-.463 1.472-1.013 2.675-.55 1.202-1.001 2.422-1.003 2.711-.001.289-.36 1.066-.797 1.726-.437.66-.796 1.539-.797 1.953-.002.414-.344 1.314-.76 2-.416.686-.877 1.814-1.023 2.508-.147.693-.616 1.947-1.043 2.785-.427.838-.777 1.805-.777 2.15 0 .344-.244.981-.543 1.415-.299.434-.768 1.481-1.044 2.328-.275.846-.75 2.016-1.054 2.6-.305.583-.555 1.31-.557 1.614-.001.304-.347 1.114-.768 1.8-.422.686-.891 1.916-1.042 2.733-.152.817-.527 1.694-.834 1.949-.307.255-.558.699-.558.988 0 .289-.189 1.023-.421 1.632l-.42 1.106-.959-1.18c-.527-.65-1.077-1.721-1.222-2.381-.146-.66-.605-1.761-1.021-2.447-.416-.686-.757-1.499-.757-1.806 0-.307-.336-1.186-.747-1.953-.41-.767-.872-1.967-1.025-2.666-.154-.7-.538-1.487-.854-1.749-.316-.262-.574-.747-.574-1.078 0-.574-1.207-3.61-2.84-7.145-.418-.904-.766-1.804-.774-2-.007-.196-.361-1.076-.786-1.956-.425-.88-.78-1.87-.789-2.2-.009-.33-.374-1.14-.811-1.8-.437-.66-.796-1.436-.797-1.725-.002-.288-.423-1.458-.936-2.6a184.025 184.025 0 01-1.843-4.275c-.5-1.21-1.25-2.97-1.667-3.911-.416-.941-.758-1.931-.759-2.2-.001-.269-.55-1.074-1.22-1.789l-1.219-1.3H260.78l-.419 1.1m24.941.4c.971.746 1.517 1.55 1.698 2.5.147.77.612 1.961 1.034 2.647.421.686.766 1.565.766 1.953 0 .388.341 1.267.757 1.953.416.686.878 1.82 1.026 2.519.147.7.513 1.476.811 1.723.299.248.662 1.15.806 2.005.144.855.507 1.757.806 2.005.298.247.668 1.023.822 1.723.153.699.615 1.899 1.025 2.666.411.767.747 1.728.747 2.137 0 .409.36 1.2.8 1.76.44.559.8 1.376.8 1.816 0 .439.341 1.36.757 2.046.416.686.878 1.82 1.026 2.519.147.7.527 1.487.843 1.749.316.262.574.747.574 1.078 0 .549.94 2.938 2.793 7.101.392.88.818 2.05.947 2.6.759 3.233 3.86 3.936 3.86.875 0-.427.258-.992.574-1.254.316-.262.696-1.049.843-1.749.148-.699.59-1.812.983-2.472.393-.66.843-1.83 1.001-2.6.159-.77.518-1.67.799-2 .281-.33.642-1.215.802-1.967.16-.751.629-1.921 1.043-2.6.414-.678.753-1.627.754-2.109 0-.482.176-.985.391-1.118.214-.132.646-1.088.959-2.123.313-1.036.857-2.423 1.208-3.083.351-.66.639-1.581.641-2.046.001-.465.336-1.275.744-1.8.408-.525.863-1.611 1.011-2.414.147-.803.512-1.662.809-1.909.298-.247.655-1.03.794-1.74s.599-2.011 1.023-2.891c1.117-2.322 2.421-5.673 2.421-6.222 0-.884 2.195-3.915 3-4.142 2.036-.573 22.495-.245 23.005.37.667.803.261 3.701-.795 5.671-.445.831-.81 1.845-.81 2.254 0 .409-.36 1.2-.8 1.76-.44.559-.8 1.4-.8 1.869 0 .468-.36 1.524-.8 2.344-.44.821-.8 1.721-.8 2 0 .28-.347 1.156-.772 1.948-.424.792-.894 2.094-1.044 2.894-.15.8-.426 1.454-.613 1.454s-.599.855-.915 1.9c-.316 1.045-.862 2.44-1.213 3.1-.351.66-.639 1.434-.641 1.721-.001.286-.342 1.186-.758 2a28.344 28.344 0 00-1.25 2.879c-1.474 4.183-1.932 5.298-2.342 5.708-.249.249-.452.932-.452 1.518s-.345 1.505-.767 2.041c-.422.537-.895 1.686-1.051 2.554-.156.869-.514 1.849-.795 2.179-.282.33-.712 1.32-.956 2.2-.244.88-.711 1.949-1.037 2.376-.327.428-.594 1.103-.594 1.502s-.36 1.397-.8 2.218c-.44.82-.8 1.744-.8 2.051 0 .307-.338 1.12-.751 1.806-.414.686-.868 1.904-1.011 2.707-.143.803-.506 1.664-.807 1.914-.301.25-.658 1.043-.793 1.763-.135.719-.604 2.011-1.042 2.87-.438.859-.797 1.839-.799 2.178-.001.338-.36 1.155-.797 1.815-.437.66-.796 1.565-.797 2.011-.002.446-.247 1.166-.546 1.6-.299.434-.774 1.509-1.057 2.389-.283.88-.758 1.955-1.057 2.389-.299.434-.544 1.154-.544 1.6-.001.446-.351 1.383-.777 2.082-.426.699-.894 1.907-1.04 2.686-.146.778-.512 1.619-.813 1.869-.301.25-.67 1.108-.82 1.906-.15.798-.604 1.995-1.009 2.66-.405.664-.738 1.573-.739 2.019 0 .446-.251 1.168-.556 1.603-.305.436-.79 1.601-1.077 2.589-.288.989-.74 2.157-1.006 2.597-.266.44-.603 1.373-.748 2.072-.146.7-.505 1.472-.798 1.715-.293.243-.656 1.11-.808 1.927-.152.817-.508 1.756-.791 2.086-.284.33-.729 1.266-.991 2.079-.621 1.936-1.034 1.99-14.183 1.84-12.01-.138-11.527.033-10.654-3.78.295-1.286.868-2.9 1.273-3.586.406-.686.739-1.586.741-2 .001-.414.36-1.293.797-1.953.437-.66.798-1.47.801-1.8.003-.33.449-1.5.99-2.6.541-1.1.99-2.383.996-2.851.007-.468.271-1.066.587-1.328.316-.262.7-1.049.854-1.749.153-.699.615-1.899 1.025-2.666.411-.767.747-1.719.747-2.116s.386-1.244.857-1.882c1.258-1.702 1.273-6.294.026-7.981-.486-.657-.884-1.517-.885-1.911-.002-.394-.283-1.253-.625-1.909-.831-1.593-2.463-5.742-2.789-7.091-.144-.596-.51-1.289-.813-1.54-.302-.251-.671-1.113-.818-1.916-.148-.803-.603-1.889-1.011-2.414-.408-.525-.742-1.355-.742-1.846 0-.491-.36-1.35-.8-1.909-.44-.56-.806-1.349-.813-1.754-.006-.405-.455-1.637-.996-2.737-.541-1.1-.985-2.242-.987-2.538-.002-.296-.245-1.016-.539-1.6-1.426-2.829-2.256-4.769-2.509-5.862-.153-.66-.611-1.629-1.017-2.154-.406-.525-.74-1.335-.742-1.8-.001-.465-.36-1.386-.797-2.046-.437-.66-.797-1.56-.799-2-.002-.44-.342-1.355-.756-2.033-.414-.679-.875-1.791-1.024-2.473-.15-.681-.531-1.453-.847-1.715-.316-.262-.574-.878-.574-1.368 0-.491-.45-1.738-1-2.773-.55-1.034-1-2.136-1-2.449 0-.314-.359-1.159-.799-1.879-.439-.721-.799-1.56-.8-1.866-.001-.565-1.057-3.043-2.438-5.723-.42-.814-.763-1.721-.763-2.016 0-.295-.35-1.221-.777-2.059-.427-.838-.889-2.034-1.026-2.657-.136-.624-.498-1.341-.803-1.594-.776-.644-1.175-3.709-.618-4.749.444-.83.661-.846 11.574-.846h11.121l1.431 1.1m-96.304 21.934c-4.827 2.464-9.398 7.578-9.398 10.514 0 .371-.305 1.109-.677 1.641-1.107 1.58-1.261 9.333-.232 11.659.433.978.913 2.448 1.066 3.266.154.817.433 1.486.622 1.486s.524.52.745 1.155c.521 1.493 4.628 5.6 6.121 6.121.635.221 1.155.558 1.155.748 0 .19.765.54 1.7.777.935.238 2.132.65 2.659.916 2.429 1.224 11.739.351 14.441-1.354.33-.209 1.14-.635 1.8-.947 3.085-1.461 8.2-8.142 8.2-10.711 0-.43.286-1.764.634-2.964.861-2.961.222-9.786-1.154-12.341a84.97 84.97 0 01-1.188-2.348c-.417-.852-1.804-2.562-3.084-3.8-3.247-3.143-3.834-3.593-5.098-3.91-.61-.152-1.65-.606-2.31-1.008-1.011-.616-2.083-.731-6.804-.733l-5.603-.001-3.595 1.834m15.603-.2c4.153 1.46 10.199 6.285 10.199 8.14 0 .241.371 1.129.824 1.974 2.496 4.659 1.594 16.522-1.54 20.24-2.825 3.351-4.677 4.842-7.884 6.345-4.466 2.094-13.383 1.882-16.662-.396-.584-.405-1.327-.737-1.651-.737-.781 0-5.424-4.675-6.158-6.2-.317-.66-.834-1.65-1.147-2.2-.314-.55-.573-1.382-.576-1.85-.003-.467-.276-1.615-.606-2.55-.646-1.83-.824-7.015-.253-7.367.191-.118.469-1.128.617-2.245 1.329-10.023 14.26-16.871 24.837-13.154" fill="#84dcac"/></g></svg>