<svg id="pi-pay_easy-svg" version="1.1" xmlns="http://www.w3.org/2000/svg" width="38" height="24" role="img" aria-labelledby="pi-pay_easy" viewBox="0 0 400 321.586"><title id="pi-pay_easy">Pay Easy</title><g id="pi-pay_easy-svgg" stroke="none" fill-rule="evenodd"><path opacity=".07" d="M35 0H3C1.3 0 0 1.3 0 3v18c0 1.7 1.4 3 3 3h32c1.7 0 3-1.3 3-3V3c0-1.7-1.4-3-3-3z"/><path fill="#fff" d="M35 1c1.1 0 2 .9 2 2v18c0 1.1-.9 2-2 2H3c-1.1 0-2-.9-2-2V3c0-1.1.9-2 2-2h32"/><path d="M151.408 49.224c-.354.158-1.513.303-2.575.321-1.152.02-2.182.223-2.555.505-.344.26-1.023.473-1.51.473-.486 0-.964.128-1.06.285-.097.156-.866.383-1.709.503a20.223 20.223 0 00-4.429 1.167c-1.395.557-2.259.581-11.745.329-5.427-.144-9.952-.138-10.121.015-.168.151-.574.275-.903.275-.728 0-3.342 1.162-3.618 1.609-.11.177-.505.322-.879.322s-.908.203-1.188.451c-.279.248-1.185.826-2.013 1.284-1.82 1.009-6.213 4.122-7.394 5.241-.845.8-.905.808-5.555.698-4.476-.106-4.71-.081-4.878.532a14.915 14.915 0 01-.513 1.448c-.899 2.156-1.163 2.821-1.537 3.862a20.245 20.245 0 00-.577 1.886c-.095.417-.515 1.402-.933 2.189-.418.786-.76 1.798-.76 2.248 0 .45-.197 1.202-.438 1.672-.551 1.075-1.189 2.863-1.394 3.912-.162.827-.86 2.626-1.402 3.615-.168.308-.306 1.113-.306 1.789 0 .677-.213 1.511-.473 1.855-.259.344-.482.987-.494 1.429-.012.443-.228 1.167-.481 1.609-.253.443-.465 1.277-.471 1.855-.007.578-.135 1.302-.286 1.609-.944 1.921-1.302 2.994-1.472 4.407-.105.878-.334 1.74-.51 1.915-.175.175-.318.837-.318 1.47s-.201 1.438-.447 1.789c-.245.35-.522 1.36-.616 2.243-.25 2.37-.898 5.424-1.226 5.774-.157.168-.292 1.037-.3 1.931-.008.894-.223 2.204-.478 2.912-.255.708-.466 1.688-.468 2.177-.003.489-.136 1.141-.296 1.448-.455.875-1.014 4.424-1.28 8.121-.133 1.858-.414 3.695-.623 4.082-.209.386-.381 1.663-.381 2.837 0 1.173-.165 2.443-.367 2.82-.777 1.453-1.359 29.211-.778 37.083.092 1.239.234 4.31.316 6.825.082 2.515.302 4.858.489 5.208.187.35.343 1.406.345 2.347.003.941.214 2.29.469 2.998.255.708.47 2.337.478 3.62.012 2.097.364 3.005.747 1.931.08-.222.246-.308.371-.193.125.116.049.497-.17.848-.317.507-.314 1.088.013 2.847.226 1.215.484 2.769.574 3.452.157 1.201.198 1.237 1.213 1.073 1.04-.169 1.771.207 1.771.911 0 .22-.38.307-.965.221l-.966-.142v1.77c0 .973.217 2.185.481 2.692.264.506.482 1.239.483 1.626.001.388.147.795.323.904.177.11.322.977.322 1.927 0 1.107.174 1.902.483 2.211.265.265.487.746.493 1.069.006.322.223.867.483 1.21.259.344.472 1.261.472 2.038 0 1.586.728 1.802.908.27.087-.734.183-.815.577-.488.335.278.573.292.817.049.541-.542-.661-2.332-1.567-2.332-.64 0-.735-.163-.735-1.253 0-.817-.168-1.317-.483-1.438-.501-.192-.639-1.682-.279-3.021.187-.7.324-.724 4.018-.724h3.824v-2.253h-3.54c-2.932 0-3.54-.083-3.54-.483 0-.265-.234-.482-.519-.482-.432 0-.487.256-.326 1.528.135 1.069.105 1.321-.102.838-.162-.381-.45-.787-.639-.904-.36-.223-.487-3.143-.152-3.478.4-.401 1.095.185 1.095.924 0 .768.01.77 3.729.77 4.19 0 4.926-.366 4.948-2.46.007-.594.21-1.088.494-1.196.405-.156.483.244.483 2.495v2.681l-.805-.154c-.66-.126-.804-.027-.804.55 0 .533.175.69.724.646 1.785-.145 1.85-.085 1.85 1.709 0 1.863 1.697 3.493 2.648 2.542.724-.724.892-.361.892 1.931 0 1.675.143 2.465.521 2.883.557.615.389 2.854-.214 2.854-.169 0-.307.217-.307.483 0 .579.686.633 1.223.096.3-.3.386-.04.386 1.171 0 1.11-.162 1.678-.563 1.976-.537.398-.537.445 0 .989.342.348.563.419.563.181 0-.215.237-.391.528-.391.447 0 .501.28.355 1.85-.095 1.018-.103 1.67-.018 1.449.371-.969 1.095-.406.89.691-.155.825-.077 1.165.317 1.386.287.161.613.864.723 1.561.11.698.332 1.355.492 1.461.16.106.3.793.31 1.529.013.914.159 1.336.463 1.336.272 0 .445.348.445.894 0 .492.232 1.225.515 1.629.283.404.515 1.266.515 1.915 0 .832.227 1.391.772 1.895.425.394.772.995.772 1.336 0 .34.218.799.483 1.02.266.22.483.724.483 1.12 0 .396.434 1.534.965 2.529.531.995.966 2.102.966 2.459 0 .357.129.65.287.65.496 0 .757 1.683.304 1.963-.227.14-.306.36-.176.49.129.129.446-.044.704-.385.443-.585.47-.562.479.41.006.566.2 1.145.43 1.287.444.272 1.511 2.363 1.511 2.961 0 .194.145.353.322.353.177 0 .322.14.322.31 0 .41 2.751 3.23 3.151 3.23.172 0 .535-.615.807-1.368 1.119-3.101 1.827-5.002 2.483-6.677.382-.973.809-2.231.95-2.796.141-.564.547-1.65.903-2.413.357-.763.738-2.002.847-2.754.109-.751.559-2.153.999-3.117.441-.963.801-2.067.801-2.454 0-.386.36-1.807.799-3.158 1.316-4.043 2.772-9.108 3.111-10.822.175-.885.518-2.333.761-3.218.696-2.529.824-3.073 1.289-5.471.474-2.441 1.582-8.037 2.103-10.619.178-.885.539-3.057.8-4.827.262-1.77.69-4.594.95-6.275.26-1.682.555-3.781.657-4.666.411-3.575.241-3.501 4.816-2.106 4.238 1.292 5.796 1.598 10.03 1.974 4.76.422 11.774.025 15.325-.867l3.829-.96c2.344-.587 7.143-2.429 8.628-3.312.265-.157.917-.483 1.448-.724.531-.241 1.53-.837 2.22-1.325.691-.487 1.388-.886 1.55-.886.163 0 .77-.362 1.35-.805.58-.442 1.167-.804 1.304-.804s.722-.399 1.299-.885a57.035 57.035 0 012.128-1.69c3.686-2.755 11.173-10.238 12.675-12.67.354-.573.827-1.251 1.05-1.507 1.059-1.211 2.645-3.39 2.648-3.637.001-.151.407-.803.902-1.448.494-.645 1.077-1.534 1.294-1.977.217-.442.892-1.673 1.501-2.735.609-1.062 1.278-2.293 1.487-2.735 1.29-2.73 1.898-4.117 1.898-4.331 0-.134.445-1.205.988-2.381 1.473-3.186 1.532-3.338 1.755-4.474.467-2.38 2.876-4.583 5.011-4.583.217 0 1.161-.579 2.099-1.287.937-.708 1.785-1.287 1.884-1.287.249 0 3.804-3.804 4.165-4.456.162-.293.399-.604.527-.693.242-.167 1.825-3.514 2.583-5.465 1.032-2.652.487-12.155-.85-14.808a22.1 22.1 0 01-.791-1.843c-.213-.571-.624-1.32-.914-1.665a79.149 79.149 0 01-1.332-1.654c-.442-.565-.989-1.192-1.213-1.392-.225-.201-1.058-.959-1.851-1.685-.793-.726-2.386-1.799-3.54-2.385-1.405-.713-2.139-1.287-2.222-1.737-.068-.37-.291-1.686-.496-2.925-.205-1.239-.571-2.832-.813-3.54-.242-.708-.69-2.228-.995-3.379-.306-1.15-.656-2.236-.778-2.413-.122-.177-.476-1.119-.787-2.092-.691-2.167-4.901-10.777-5.521-11.292-.247-.204-.448-.484-.448-.622 0-.283-1.928-3.233-2.996-4.586-1.941-2.457-8.722-9.566-9.125-9.566-.084 0-.831-.566-1.659-1.259-.828-.692-2.104-1.566-2.835-1.943-.731-.376-1.586-.968-1.9-1.316-.314-.347-.816-.631-1.115-.631-.299 0-.965-.366-1.479-.813-.514-.447-1.297-.895-1.739-.996-.443-.101-1.529-.524-2.414-.939-.885-.416-2.224-.849-2.975-.963-.751-.114-1.448-.339-1.547-.5-.1-.162-.503-.294-.896-.294s-1.005-.204-1.362-.454c-1.083-.759-17.523-1.492-18.964-.845m13.687 26.444c1.778 1.288 7.369 6.845 8.374 8.322 1.149 1.69 1.591 2.097 1.591 1.461 0-.92.938-.939 1.651-.032.621.789.72.817 1.236.35.502-.454.604-.456.968-.017.298.359 1.048.491 2.792.491 1.822 0 2.428.114 2.569.483.145.378.796.482 3.008.482 2.116 0 2.922.121 3.223.483.272.328 1.001.483 2.273.483 1.03 0 1.962.145 2.071.322.11.177 1.042.321 2.071.321 1.279 0 2.001.155 2.277.487.307.37.509.399.844.122.319-.266.44-.268.44-.007 0 .197.422.735.937 1.194.516.46 1.034 1.221 1.152 1.692.117.471.564 1.318.993 1.881.429.564.779 1.14.779 1.281 0 .141.32 1.029.711 1.972.909 2.191.742 2.308-3.302 2.315-2.657.004-3.313.12-4.827.852-.964.467-2.375 1.147-3.134 1.512-1.205.579-3.23 2.099-5.377 4.035-.686.619-2.146 2.473-2.413 3.064-.089.196-.44.768-.78 1.27-3.099 4.574-3.961 16.496-1.381 19.077.127.126.23.485.23.796 0 .312.181.759.402.993.221.234.722 1.077 1.112 1.873 1.096 2.234 7.373 8.045 8.69 8.045.233 0 .675.127.983.283 1.734.876 3.118 1.326 4.083 1.326 2.137 0 2.467 1.332.838 3.379-.896 1.126-1.949 2.702-1.949 2.917 0 .115-.326.605-.724 1.089-.398.485-1.158 1.44-1.689 2.123-1.84 2.365-5.417 5.934-7.129 7.113-.947.652-1.721 1.284-1.721 1.405 0 .12-.571.476-1.268.791-.698.315-1.345.771-1.438 1.014-.094.244-.487.443-.874.443s-1.178.362-1.758.804c-.58.443-1.346.805-1.701.805-.356 0-.736.144-.845.321-.11.177-.47.322-.801.322-.331 0-.795.194-1.032.431s-1.427.532-2.644.657c-1.218.125-2.473.366-2.789.535-.981.525-9.64.382-10.711-.177-.507-.264-1.557-.48-2.333-.48-.777 0-1.412-.134-1.412-.297 0-.162-.433-.391-.961-.507-.529-.116-1.045-.345-1.146-.508-.101-.164-.528-.297-.95-.297-.421 0-.851-.137-.954-.303-.103-.167-.871-.637-1.708-1.046-.837-.409-1.666-.896-1.843-1.083-.177-.187-.829-.711-1.448-1.163-.62-.452-2.285-1.924-3.701-3.27-1.416-1.347-2.734-2.453-2.929-2.458-.321-.009-1.828-2.151-2.949-4.192-.243-.442-.649-1.034-.903-1.314-.254-.281-.699-1.222-.988-2.093-.289-.87-.687-1.799-.884-2.065-.673-.908-1.162-1.922-1.162-2.409 0-.269-.434-1.742-.965-3.274-.531-1.533-.966-3.425-.966-4.204 0-.78-.152-1.703-.339-2.052-1.107-2.069-1.189-15.206-.114-18.471.116-.354.322-1.657.456-2.896.135-1.239.618-3.266 1.073-4.505.455-1.239.834-2.57.841-2.958.008-.388.159-.795.336-.904.177-.109.322-.462.322-.784s.217-.766.482-.986c.266-.22.483-.598.483-.838 0-.895 3.97-8.662 4.835-9.46.096-.088.633-.885 1.193-1.77.561-.884 1.606-2.236 2.323-3.003.717-.767 1.304-1.491 1.306-1.609.003-.317 2.436-2.601 4.824-4.53a328.876 328.876 0 002.735-2.226 11.761 11.761 0 012.591-1.618c.363-.167 1.305-.737 2.092-1.265 2.552-1.715 4.709-1.825 6.752-.346m91.602 19.15c-.288.288-3.491 1.377-4.088 1.39-.269.006-.993.352-1.609.77-.616.417-1.483.871-1.925 1.009-.443.137-.877.339-.966.448-.088.11-1.003.839-2.033 1.622-1.939 1.474-5.368 5.145-5.368 5.748 0 .189-.187.535-.415.769-.928.949-1.516 2.063-1.516 2.871 0 .47-.217 1.035-.483 1.255-.265.22-.482.6-.482.844s-.145.443-.322.443c-.177 0-.322.417-.322.926 0 .51-.217 1.446-.483 2.082-.675 1.617-.675 11.9 0 13.082.253.443.465 1.258.472 1.811.006.554.228 1.187.494 1.407.265.221.483.676.483 1.011 0 .57 1.421 3.135 1.935 3.494.127.089.322.454.433.812.36 1.155 7.229 7.877 8.049 7.877.118 0 .788.362 1.489.805.701.442 1.437.804 1.635.804.391 0 2.14.713 3.673 1.498.686.351 2.356.54 5.793.656 5.816.195 7.801-.099 11.635-1.724.558-.236 1.225-.43 1.484-.43.406 0 2.675-1.44 5.83-3.701 1.83-1.31 5.348-5.265 5.348-6.011 0-.161.353-.672.784-1.136.43-.465.874-1.209.986-1.654.112-.445.503-1.398.87-2.118s.784-2.033.927-2.918c.144-.885.405-2.333.581-3.218.414-2.084.409-6.002-.011-8.045a37.767 37.767 0 01-.492-3.283c-.09-.921-.367-1.844-.616-2.051-.25-.207-.454-.556-.454-.774 0-.411-1.86-4.064-2.214-4.351-.11-.088-.701-.885-1.313-1.77-1.85-2.672-6.976-7.221-8.156-7.237-.142-.002-.791-.365-1.442-.808-.651-.442-1.488-.804-1.86-.804-.372 0-.77-.094-.884-.208-1.123-1.123-14.485-2.154-15.447-1.193m9.244 1.033c.094.152 1.061.357 2.148.456 1.088.099 2.134.336 2.326.528.192.192.755.349 1.25.349.687 0 .901.153.901.644 0 .49.215.643.902.643 1.066 0 2.632.67 2.636 1.127.003.441 1.835 1.842 3.301 2.525.922.429 1.206.752 1.206 1.366 0 .456.174.781.403.751.996-.13 1.215.041 1.024.799-.153.612.014.928.799 1.508.713.527.992.998.992 1.669 0 .659.187.984.633 1.101.777.203 1.091 1.093.821 2.325-.117.53-.058 1.018.137 1.138.187.116.34.474.34.796 0 .322.205.755.456.963 1.108.92 1.109 12.895.002 12.895-.274 0-.458.323-.458.804 0 .443-.145.805-.322.805-.177 0-.321.651-.321 1.448 0 1.072-.125 1.448-.483 1.448-.266 0-.483.145-.483.322 0 .177-.217.321-.482.321-.266 0-.483.272-.483.605 0 .332-.194.764-.43.96-.236.197-.621.938-.856 1.649-.234.71-.62 1.292-.857 1.292-.238 0-.432.217-.432.482a.484.484 0 01-.482.483.484.484 0 00-.483.483c0 .265-.181.487-.402.493-.549.015-1.617.943-2.32 2.015-.38.581-.768.828-1.123.715-.327-.104-.844.149-1.301.635-.417.445-.975.808-1.24.808s-.753.245-1.084.545c-.395.357-1.15.544-2.197.544-1.1 0-1.596.131-1.596.421 0 .283-.467.421-1.429.421-.786 0-1.519.145-1.628.322-.11.177-1.277.321-2.594.321-1.381 0-2.394-.136-2.394-.321 0-.188-1.073-.322-2.575-.322-2.073 0-2.574-.094-2.574-.483 0-.349-.357-.483-1.287-.483-.93 0-1.287-.134-1.287-.482 0-.324-.324-.483-.979-.483-.912 0-1.211-.151-2.388-1.207-.247-.221-.55-.402-.674-.402-.226 0-2.281-1.672-3.556-2.891-.372-.357-.843-.649-1.045-.649-.203 0-.369-.217-.369-.483a.473.473 0 00-.461-.482c-.253 0-.547-.271-.652-.601-.105-.331-.476-.86-.826-1.177-.349-.316-.635-.842-.635-1.168 0-.327-.217-.594-.483-.594a.495.495 0 01-.483-.503c0-.276-.354-1.254-.787-2.172-.432-.918-.938-2.538-1.124-3.6a115.923 115.923 0 00-.68-3.54c-.567-2.65.736-13.033 1.635-13.033.104 0 .543-.796.975-1.77.432-.973 1.039-1.852 1.349-1.952.31-.101.58-.354.6-.564.021-.209.057-.536.081-.726.06-.48 2.971-3.355 3.397-3.355.191 0 .347-.215.347-.479 0-.263.615-.864 1.367-1.335.753-.471 1.441-.944 1.529-1.05.499-.599 2.318-1.641 2.864-1.641.351 0 .727-.145.837-.322.109-.177.552-.322.984-.322.432 0 .786-.138.786-.307 0-.169.543-.396 1.206-.504.664-.108 1.497-.322 1.851-.475.841-.365 8.439-.405 8.66-.047m-60.953 5.678c.442.253 1.629.465 2.636.471 1.007.006 1.921.156 2.03.333.109.177.635.322 1.168.322.534 0 1.174.204 1.424.454s.726.383 1.059.296c.368-.096.682.044.803.358.109.284.48.621.826.75 1.179.439 5.5 4.885 5.5 5.659 0 .436.388 1.015.966 1.442.531.393.965.856.965 1.03 0 .173.277.929.614 1.68.606 1.345.757 1.891 1.312 4.743.306 1.573.096 4.639-.381 5.568-.164.319-.306 1.154-.316 1.855-.01.701-.145 1.353-.301 1.45-.156.096-.284.6-.284 1.119 0 .595-.238 1.092-.644 1.346-.354.221-.643.602-.643.848 0 .704-1.811 3.658-2.802 4.572-1.066.983-4.477 3.194-4.928 3.194a.319.319 0 00-.315.321c0 .177-.412.322-.916.322-.507 0-1.175.287-1.498.644-.32.354-.859.643-1.197.643-.338 0-.903.155-1.256.343-1.753.939-10.795.062-12.214-1.184-.28-.245-.733-.446-1.007-.446-.274 0-.678-.217-.899-.483-.22-.265-.595-.482-.833-.482-.344 0-2.883-1.967-4.064-3.148-1.63-1.629-3.155-3.806-3.333-4.755-.12-.638-.417-1.235-.66-1.329-.247-.095-.442-.622-.442-1.197 0-.565-.131-1.165-.291-1.333-1.095-1.152-.886-9.556.292-11.75.339-.63.712-1.748.83-2.485.136-.855.414-1.402.769-1.514.305-.097.719-.536.919-.975.2-.439.495-.798.655-.798.161 0 .533-.507.827-1.127.294-.619.745-1.126 1.002-1.126a.477.477 0 00.468-.483c0-.265.207-.482.459-.482.253 0 .677-.217.942-.482.264-.265.854-.623 1.31-.796.456-.174.828-.536.828-.806 0-.358.349-.491 1.288-.491.929 0 1.287-.134 1.287-.482 0-.322.322-.483.965-.483.531 0 .966-.145.966-.322 0-.177.543-.327 1.206-.333.664-.006 1.569-.218 2.012-.471.442-.253 1.094-.46 1.448-.46.354 0 1.005.207 1.448.46m-52.293 2.614c-.531.081-1.4.343-1.931.583-.531.239-1.4.612-1.931.829-.531.216-1.182.521-1.448.678a13.09 13.09 0 01-1.202.596c-.909.394-4.912 4.228-4.912 4.705 0 .196-.415.93-.923 1.631s-1.001 1.772-1.096 2.381a28.086 28.086 0 01-.518 2.394c-.189.708-.347 2.101-.351 3.094-.007 1.625.123 2.516.936 6.4.694 3.313 7.128 9.975 9.634 9.975.322 0 1.05.232 1.617.515 1.472.734 8.255.74 10.029.008.697-.287 1.883-.773 2.635-1.08.752-.307 1.559-.741 1.793-.965.234-.225.534-.408.666-.408.637 0 4.54-4.364 4.54-5.075 0-.188.109-.391.242-.45.422-.187 1.367-2.112 1.367-2.785 0-.356.175-.705.389-.777.899-.299.465-10.046-.503-11.315-.468-.614-.851-1.366-.851-1.67 0-1.516-6.081-7.534-7.612-7.534-.24 0-1.196-.368-2.124-.817-1.703-.823-5.994-1.288-8.446-.913m6.597 1.763c.62.189 1.583.549 2.14.799.558.25 1.246.455 1.529.455.283 0 .514.221.514.491 0 .282.391.569.921.675.954.19 5.194 4.519 5.194 5.302 0 .22.245.671.545 1.003 1.719 1.899 1.973 10.582.377 12.852-.33.47-.6 1.168-.6 1.552 0 .995-4.49 5.848-5.201 5.623-.35-.111-.611.052-.741.463-.122.383-.612.72-1.233.849-.567.118-1.52.496-2.118.84-2.071 1.193-9.863.693-11.448-.734-.168-.152-.579-.276-.913-.276-.335 0-.994-.344-1.465-.765l-2.384-2.133c-.841-.752-1.529-1.555-1.529-1.784 0-.229-.354-.838-.787-1.353-1.802-2.141-3.253-10.478-1.903-10.928.189-.063.274-.482.188-.931-.086-.449.023-1.204.241-1.678 1.248-2.704 1.487-3.138 1.856-3.372.223-.141.411-.431.419-.644.024-.719 2.134-2.819 2.638-2.626.307.118.543-.05.65-.461.184-.703 2.013-1.962 2.853-1.964.288 0 .704-.218.925-.484.22-.265.853-.485 1.407-.487.553-.003 1.189-.121 1.412-.262.62-.395 5.244-.41 6.513-.022m-101.689 6.728c.796.134 1.585.116 1.753-.041.18-.167-.418-.267-1.448-.244l-1.754.04 1.449.245m1.93.459c0 .078.942.604 2.092 1.171 1.151.566 2.092 1.227 2.092 1.468 0 .241.131.439.291.439 1.219 0 1.737 6.744.668 8.688-.341.62-.715 1.387-.831 1.706-.216.592-3.593 2.478-4.437 2.478-.255 0-.521.169-.59.377-.211.631-2.727.326-4.429-.536-.876-.444-1.814-.807-2.085-.807-.272 0-.494-.192-.494-.426 0-.235-.35-.756-.777-1.157-.428-.402-.864-1.074-.969-1.493-.123-.49-.356-.7-.65-.587-.782.3-.273 1.189 2.025 3.541 2.04 2.088 6.58 3.179 8.662 2.08.307-.162.994-.455 1.527-.651 1.504-.552 4.341-3.43 4.341-4.404 0-.284.25-1.219.554-2.076 1.008-2.838-.932-7.113-4.167-9.183-1.032-.66-2.823-1.058-2.823-.628m-8.156 1.413c-.66.73-.674 1.021-.05 1.021.266 0 .483-.195.483-.434 0-.238.326-.59.724-.782.705-.34.707-.35.05-.371-.371-.012-.914.243-1.207.566m-1.918 2.648c-.11.421-.035.617.204.537.463-.154.705-1.199.277-1.199-.169 0-.385.298-.481.662m38.365 80.352c-.025 1.422-.047 1.461-.316.563-.262-.875-.143-2.092.205-2.092.076 0 .127.688.111 1.529m170.647.467c-.444.444-.521 1.544-.108 1.544.153 0 .672.394 1.153.875l.874.874.611-.794c1.265-1.647-1.072-3.957-2.53-2.499m-183.716 2.401c-.091.237-.383.431-.648.431-.329 0-.413-.181-.265-.564.12-.309.308-.997.418-1.528l.2-.966.23 1.098c.126.604.155 1.292.065 1.529m137.634-2.238c-3.275 1.197-2.247 6.53 1.258 6.53 1.677 0 3.248-1.618 3.248-3.346 0-2.231-2.425-3.945-4.506-3.184m22.555 1.301c-.793 1.062-.681.953-3.082 2.994-2.192 1.863-5.315 3.844-6.06 3.844-.277 0-.582.129-.679.285-.097.157-.68.38-1.295.496-1.525.286-1.556.453-.413 2.202 1.11 1.696 1.729 1.858 3.295.86 1.12-.714 2.325-1.268 2.756-1.268.169 0 .301 1.609.301 3.674 0 4.719-.012 4.692 2.091 4.692 2.154 0 2.092.185 2.092-6.247v-5.229l2.414-2.169c2.662-2.392 2.934-3.124 1.448-3.893-.531-.274-.966-.64-.966-.813 0-.656-1.269-.275-1.902.572m12.543.373c-.885 1.243-.675 1.629 1.556 2.855 2.338 1.286 2.685 1.287 3.679.017 1.049-1.341.822-1.77-1.523-2.879-2.452-1.16-2.882-1.159-3.712.007m8.679.498c-.419.504-.269.898.771 2.02.869.938 1.719.92 2.158-.045.732-1.606-1.811-3.322-2.929-1.975m-41.831.523c.285.534.246.794-.191 1.277-.706.781-1.755.299-1.755-.805 0-1.217 1.369-1.549 1.946-.472m-9.681.547c-.613.27-2.555 1.99-4.316 3.822l-3.202 3.33 1.256 1.286c1.538 1.575 2.092 1.609 2.863.179.328-.609.795-1.184 1.038-1.277.243-.094.442-.362.442-.598 0-.235.564-.978 1.254-1.651 1.594-1.556 2.08-1.418 4.205 1.191 1.5 1.843 4.237 4.985 5.556 6.38.695.734 1.275.521 2.323-.853 1.072-1.405 1.059-1.477-.546-2.908-1.359-1.212-4.408-4.494-6.801-7.321-1.57-1.855-2.571-2.243-4.072-1.58m-129.741 1.344c-.284.456-.463.523-.641.242-.403-.634-.297-.872.389-.872.561 0 .594.083.252.63m13.899 1.22c.003.221-.139.402-.316.402s-.32-.398-.317-.885c.005-.906.622-.435.633.483m156.588.61c-.967 1.416-1.042 1.291 1.879 3.108 1.62 1.008 2.179.905 3.38-.622.913-1.16.89-1.215-.967-2.358-2.581-1.588-3.28-1.608-4.292-.128m13.56-.443c-1.002 1.503-4.036 4.733-4.45 4.738-.108.002-.723.499-1.366 1.106-1.07 1.009-5.491 3.402-6.285 3.402-1.229 0-.6 2.898.74 3.412.607.233 3.41-.74 4.211-1.462a8.884 8.884 0 011.484-1.024c2.694-1.423 6.304-4.649 7.898-7.057l.854-1.291-.693-.646c-.381-.355-.693-.78-.693-.944 0-.78-1.224-.948-1.7-.234m8.13 2.986c-1.148 3.02-1.086 3.042 8.884 3.042h8.809l.19-.76c.105-.418.144-1.251.087-1.851l-.104-1.09-8.775-.086-8.775-.085-.316.83m-177.634 1.031c-.003.816-.096 1.062-.287.761a1.545 1.545 0 01-.181-.966c.056-.286.113-.628.127-.761.08-.791.345-.042.341.966m-.033 2.896c-.038 1.186-.042 1.19-.264.241-.215-.914-.156-1.448.16-1.448.078 0 .125.543.104 1.207m-3.322 2.413c-.493 1.63-.877 3.401-.856 3.942.014.354.025 1.042.024 1.529-.002 1.059.899 1.213 1.729.296.875-.967.773-6.169-.122-6.169-.359 0-.708.181-.775.402m4.325.904c0 .789-.127 1.228-.321 1.108-.545-.337-.361-2.414.214-2.414.059 0 .107.588.107 1.306m-10.217 4.078c-.221.077-.402.355-.402.619 0 .559 1.329.48 1.517-.09.138-.42-.526-.734-1.115-.529m8.812.362c-.584.644-.404 1.012.494 1.012.369 0 .59-.234.59-.625 0-.894-.473-1.063-1.084-.387m-8.249 6.482c0 .354.163.644.362.644.25 0 .259.124.031.402-.484.591-.875 4.747-.446 4.747.189 0 .491-.254.671-.563.311-.535.329-.534.338.007.009.554 1.454 1.472 1.789 1.137.336-.337-.279-1.282-1.019-1.563-.893-.34-1.063-1.906-.278-2.558.656-.544.61-1.286-.08-1.292-.451-.004-.474-.062-.114-.289.619-.393.198-1.315-.6-1.315-.439 0-.654.211-.654.643m-1.93.805c0 .265.138.483.307.483.169 0 .402.507.518 1.126.277 1.476.784 1.447.784-.045 0-.738-.209-1.329-.564-1.599-.742-.564-1.045-.554-1.045.035m217.377-.175c-3.662.504-8.85 3.462-8.85 5.047 0 .225-.362.943-.804 1.595-2.922 4.305.917 11.723 7.24 13.99.797.286 2.1.809 2.897 1.163.796.354 1.826.737 2.289.851 2.845.699 4.988 3.481 3.792 4.922-1.584 1.908-8.845 1.811-12.945-.174-.799-.387-1.862-.732-2.363-.767l-.91-.064-.091 3.633-.091 3.633 1.782.816c.981.449 2.687.946 3.792 1.104 1.105.158 2.789.436 3.743.619 5.095.975 12.157-.538 15.005-3.213 2.537-2.384 3.758-9.381 2.194-12.577-.619-1.265-4.817-5.439-5.47-5.439-.242 0-1.209-.435-2.15-.966-.941-.531-1.883-.965-2.094-.965-.356 0-3.688-1.463-5.518-2.424-3.038-1.594-.777-4.966 3.048-4.545 2.38.262 7.255 1.453 7.571 1.85.337.423 2.249 1.257 2.881 1.257 1.144 0 1.005-7.302-.145-7.591-.443-.111-.805-.307-.805-.436 0-.981-9.765-1.901-13.998-1.319m-212.615.4c.213.213.386.647.386.966 0 .318.218.579.483.579.322 0 .483-.322.483-.966 0-.834-.118-.965-.869-.965-.676 0-.783.086-.483.386m54.836-.043c-3.235.637-8.137 2.671-8.829 3.663-.501.718-.285 8.223.236 8.223.266 0 .483-.125.483-.276 0-.367 3.12-2.377 5.231-3.369 6.1-2.869 12.775-.879 12.097 3.606-.117.77-2.729 1.928-6.065 2.688-.797.181-2.226.673-3.178 1.093-.951.419-1.936.763-2.19.763-1.382 0-5.638 2.835-7.429 4.948-1.805 2.131-1.841 7.517-.067 10.105 2.832 4.134 10.156 5.364 15.434 2.592.616-.325 1.246-.59 1.398-.59.152 0 .684-.29 1.182-.644 1.081-.77 1.586-.63 2.309.635 1.052 1.845 6.104 2.621 9.626 1.481 4.506-1.46 4.464-1.417 4.471-4.59.005-2.653-.094-2.781-1.752-2.272-2.324.713-2.426.303-2.429-9.69-.001-4.733-.148-9.149-.328-9.859-.834-3.288-1.141-3.941-2.527-5.391-.805-.84-1.613-1.529-1.797-1.53-.183-.001-.725-.206-1.202-.455-2.664-1.39-10.352-1.982-14.674-1.131m85.439.139c-.849.234-2.03.655-2.623.937-.594.281-1.203.513-1.353.515-.367.004-2.916 1.987-4.228 3.29-1.241 1.232-3.286 4.454-3.286 5.177 0 .276-.14.589-.312.695-.172.107-.408.915-.525 1.797-.117.881-.339 1.68-.492 1.775-.373.231-.359 5.583.018 6.764.163.513.603 1.96.976 3.216 1.098 3.689 6.205 8.969 9.246 9.56.497.097 1.701.472 2.674.833 3.141 1.167 13.835.813 16.649-.551 5.895-2.857 5.556-2.471 5.556-6.313 0-3.353-.213-3.759-1.404-2.679-1.041.943-4.468 2.648-6.32 3.144-.796.213-1.78.517-2.187.676-1.241.483-4.045.322-6.049-.348-1.045-.349-2.133-.639-2.417-.643-1.726-.027-4.803-3.966-5.61-7.184-.464-1.849-.566-1.835 12.647-1.835h12.072l-.166-2.816c-.152-2.565-1.001-6.442-1.497-6.838-.111-.088-.49-.727-.842-1.42-.794-1.56-4.493-5.348-5.792-5.931a53.513 53.513 0 01-1.929-.92c-2.713-1.372-9.385-1.842-12.806-.901m35.493.129c-1.15.306-2.499.728-2.997.938-.498.21-1.132.382-1.409.382-.277 0-1.281.445-2.232.989l-1.728.989-.005 3.275c-.002 1.801-.076 3.564-.165 3.918-.283 1.133.394 1.732 1.057.936 3.152-3.783 12.35-6.047 15.686-3.861 1.455.953 2.715 4.551 1.689 4.821-1.269.335-3.989 1.293-4.264 1.502-.177.135-.901.343-1.609.463-.708.119-2.051.567-2.985.994-.934.427-1.923.777-2.198.777-1.293 0-5.295 2.345-6.783 3.974-4.157 4.552-2.594 11.977 3.03 14.405 2.143.925 8.193.785 10.384-.24a47.937 47.937 0 012.483-1.076c.57-.219 1.203-.6 1.407-.847.596-.717 1.511-.519 1.965.425 1.262 2.622 6.661 3.181 11.764 1.218l2.333-.897v-5.433l-1.207.073c-3.127.188-3.064.397-2.998-9.772.031-4.78-.087-9.002-.276-9.846-.182-.813-.407-1.866-.5-2.341-.962-4.907-11.983-8.015-20.442-5.766m-99.609.051c-.286.463.095 1.858.78 2.858.311.454.828 1.548 1.149 2.433.321.885.782 1.838 1.023 2.117.241.28.439.674.439.877 0 .202.881 2.145 1.957 4.318 1.077 2.174 2.16 4.504 2.407 5.179.247.676.742 1.64 1.1 2.142.357.502.65 1.159.65 1.46 0 .3.346 1.219.768 2.042 3.002 5.841 2.963 5.738 2.363 6.401-.306.339-.557.785-.557.993 0 .207-.133.376-.296.376-.163 0-.394.471-.514 1.046-.12.576-.566 1.68-.991 2.454-.425.775-.773 1.61-.773 1.857 0 .247-.339.989-.753 1.649s-.854 1.611-.978 2.112c-.124.502-.582 1.476-1.017 2.166-.436.69-.792 1.514-.792 1.832 0 .318-.226.901-.501 1.295-.864 1.232-.37 1.358 5.344 1.358h5.448l.945-2.011c2.928-6.235 3.567-7.662 3.567-7.965 0-.184.362-.908.804-1.609.443-.701.805-1.458.805-1.683 0-.225.429-1.205.953-2.179.524-.973.959-1.987.966-2.252.008-.266.448-1.135.977-1.931.53-.797.963-1.717.964-2.044.001-.328.353-1.27.783-2.092.847-1.62 1.795-3.676 3.433-7.449a261.517 261.517 0 012.799-6.114c.963-2.036 1.856-3.991 1.984-4.345.128-.354.694-1.584 1.258-2.733.884-1.803.959-2.138.545-2.44-.553-.405-9.801-.602-10.35-.221-.465.322-2.059 2.875-2.059 3.295 0 .18-.435 1.247-.966 2.371-.531 1.124-.965 2.188-.965 2.365 0 .465-.953 2.306-1.308 2.525-.166.102-.301.435-.301.739 0 .73-2.15 5.202-2.501 5.202-.661 0-1.291-.963-2.002-3.058-.42-1.238-1.027-2.687-1.348-3.218-.32-.531-.583-1.197-.584-1.48-.001-.284-.347-1.165-.769-1.959-.422-.793-.866-1.893-.987-2.444-.121-.551-.655-1.806-1.188-2.789l-.967-1.786h-5.267c-3.353 0-5.343.123-5.477.34m154.879-.118c-.8.209-.472 1.043 3.639 9.271.531 1.062.961 2.115.956 2.339-.005.225.353.983.795 1.684.443.7.805 1.486.805 1.744 0 .259.133.553.297.654.163.101.392.616.508 1.145.116.529.335.962.486.962.151 0 .376.326.501.724.125.398.786 1.921 1.47 3.385.684 1.464 1.243 2.875 1.243 3.138 0 .262.118.476.262.476.452 0 1.347 2.225 1.347 3.351 0 1.041-.367 2.153-1.603 4.855-2.16 4.723-3.051 6.616-3.735 7.928-.427.82-.776 1.656-.776 1.856 0 .201-.376.961-.836 1.689-1.138 1.802-.945 1.872 5.18 1.872 5.644 0 5.576.017 6.311-1.599a672.107 672.107 0 013.107-6.758c2.257-4.831 2.971-6.42 2.971-6.611 0-.111.507-1.231 1.127-2.488.619-1.258 1.126-2.458 1.126-2.669 0-.21.217-.562.483-.782.265-.221.482-.609.482-.863 0-.253.67-1.865 1.488-3.58a273.072 273.072 0 002.276-4.89c.434-.973 1.213-2.653 1.731-3.733s.941-2.146.941-2.37c0-.224.344-1.078.764-1.898 3.006-5.869 3.868-8.032 3.418-8.574-.926-1.116-11.257-.457-11.265.719-.002.314-.364 1.201-.805 1.971-.44.771-.8 1.583-.8 1.806 0 .43-1.965 4.869-3.552 8.022-.524 1.042-.953 2.142-.953 2.444 0 .696-1.137 1.745-1.589 1.465-.188-.116-.342-.434-.342-.706 0-.272-.238-.951-.529-1.509-.938-1.802-1.08-2.127-1.08-2.473 0-.186-.435-1.268-.966-2.404-.531-1.136-.965-2.291-.965-2.568 0-.276-.356-1.066-.792-1.756-.435-.69-.883-1.664-.995-2.166-.38-1.698-1.1-2.926-1.83-3.121-.827-.222-9.442-.207-10.301.018m-231.376 2.218c-.229.229.919 1.421 1.368 1.421.564 0 .345-.93-.301-1.275-.721-.387-.813-.399-1.067-.146m-1.85 4.157c0 1.173.166 1.316.95.82.401-.253.405-.414.027-1.121-.613-1.144-.977-1.031-.977.301m149.67-.451c3.337 1.079 5.577 3.193 5.939 5.604.115.769.114 1.553-.004 1.743-.261.423-13.632.473-14.295.054-.804-.51.477-3.821 2.071-5.353 1.926-1.85 4.404-2.657 6.289-2.048M83.99 233.551c0 .206-.294.648-.653.983-.58.54-.598.654-.161 1.017.41.341.493.314.493-.158 0-.312.253-.755.563-.983.451-.334.483-.498.161-.824-.286-.29-.403-.3-.403-.035m7.945.929c-.323.323-.271 2.62.064 2.827.507.313 1.049-.711.943-1.783-.099-1.014-.56-1.491-1.007-1.044m1.427 5.325c-.714 1.464-.811 2.479-.248 2.609.383.089 1.237-2.567 1.099-3.417-.094-.574-.249-.426-.851.808m-9.372-.545c0 .265.145.483.322.483.177 0 .322-.218.322-.483 0-.266-.145-.483-.322-.483-.177 0-.322.217-.322.483m12.249 3.041c-.014.762.084 1.006.311.778.22-.219.227-.594.021-1.11-.293-.731-.313-.711-.332.332m-9.932-.241c-.436.436-.519 1.222-.128 1.222.401 0 1.029-.727 1.029-1.19 0-.524-.395-.538-.901-.032m107.735 1.364c-.377.376-.444 1.072-.317 3.305l.161 2.829 6.528.087 6.527.087-.091-3.305-.092-3.306-6.119-.087c-5.058-.072-6.202-.004-6.597.39m-46.335 5.072c0 4.871-.413 5.459-4.722 6.712-1.182.343-1.471.316-2.402-.228-3.664-2.14-2.462-6.647 2.297-8.616.797-.33 2.007-.858 2.689-1.174 2-.925 2.138-.712 2.138 3.306m121.963.04c0 4.863.13 4.677-4.612 6.613-3.933 1.606-6.467-4.156-3.104-7.062.792-.685 2.093-1.473 2.889-1.752.797-.278 1.955-.783 2.575-1.122 2.2-1.204 2.252-1.127 2.252 3.323m-182.14-2.84c0 .48.139.757.322.644.177-.11.322-.4.322-.644 0-.245-.145-.534-.322-.644-.183-.113-.322.164-.322.644m1.861 2.913c-.304.303.806 2.379 1.277 2.389.221.004.402.225.402.49 0 .266.145.483.322.483.475 0 .391-.507-.161-.965-.266-.221-.486-.564-.49-.764-.011-.54-1.112-1.872-1.35-1.633m4.253 4.488c0 .089.302.463.671.832.841.84 1.251.53.458-.347-.546-.602-1.129-.853-1.129-.485m6.895 4.487c-.208.83.02 1.467.526 1.467.166 0 .303-.507.303-1.127 0-1.29-.535-1.51-.829-.34" fill="#1e76a7"/><path d="M0 160.901v160.901h400V0H0v160.901M168.785 48.862c4.521 1.462 6.259 1.983 6.62 1.983.392 0 3.389 1.346 5.609 2.519.531.28 1.4.734 1.93 1.008 1.478.762 4.814 2.983 4.935 3.284.059.148.276.27.482.273.207.003 1.317.867 2.468 1.92 5.164 4.73 8.915 8.901 10.805 12.014.517.852 1.329 2.155 1.804 2.896.877 1.367 3.983 7.495 4.842 9.553 1.624 3.893 2.5 6.443 2.5 7.279 0 .528.137 1.097.304 1.265.406.409.968 2.679 1.374 5.552l.333 2.35 1.392.654c.765.36 1.562.859 1.769 1.11.208.25.557.455.776.455.565 0 5.637 5.079 5.637 5.645 0 .258.122.469.271.469.607 0 2.817 5.291 3.293 7.884.671 3.652.256 10.597-.691 11.569-.164.168-.298.548-.298.845 0 .297-.218.721-.483.941-.266.22-.483.641-.483.935 0 1.822-7.845 10.006-9.591 10.006-.308 0-1.981.737-3.281 1.446-.982.536-1.751 1.843-2.063 3.503-.128.684-.352 1.48-.498 1.768-.789 1.564-1.944 4.222-1.944 4.475 0 .306-1.756 4.075-2.282 4.898-.17.266-.616 1.135-.992 1.931s-1.024 1.896-1.44 2.444c-.416.548-.757 1.095-.757 1.216s-.796 1.383-1.77 2.804c-.973 1.422-1.77 2.66-1.77 2.752 0 .092-.504.772-1.12 1.51-.616.738-1.719 2.066-2.451 2.951-2.11 2.55-6.364 6.848-8.818 8.908a172.923 172.923 0 00-2.735 2.329c-.823.746-5.795 3.995-6.785 4.433-.516.229-.938.492-.938.586 0 .094-.471.398-1.046.676-3.498 1.693-5.67 2.709-6.517 3.048-.531.212-1.327.538-1.77.724-.442.185-1.456.434-2.252.553-.797.118-1.593.322-1.77.454-3.132 2.319-22.957 2.127-27.428-.265-.378-.203-1.123-.368-1.655-.368s-1.057-.145-1.167-.322c-.453-.733-1.607-.344-1.672.563-.136 1.913-.915 6.482-1.143 6.707-.133.131-.25 1.047-.261 2.035-.011.989-.161 2.521-.335 3.406-.174.885-.441 2.361-.594 3.28-.153.92-.401 1.861-.55 2.092-.149.231-.363 1.507-.475 2.834-.223 2.632-.785 5.134-1.263 5.615-.167.169-.303 1.037-.302 1.931.001 1.467-.357 2.993-1.366 5.809-.19.531-.41 1.762-.488 2.735-.078.974-.248 1.915-.377 2.092-.403.553-1.221 3.117-1.796 5.631-.304 1.328-.73 2.776-.947 3.218-.216.443-.575 1.674-.798 2.736-.222 1.062-.597 2.298-.834 2.747-.237.449-.724 1.897-1.083 3.218-.745 2.746-1.426 4.703-1.746 5.024-.121.121-.221.481-.221.799 0 .568-.583 2.114-1.479 3.926-.248.501-.451 1.185-.451 1.519 0 .335-.342 1.373-.76 2.307-.418.934-.921 2.094-1.117 2.577-.415 1.024-1.033.924-2.316-.376-.448-.453-2.533-2.055-4.634-3.559-2.101-1.505-4.342-3.177-4.979-3.716-.637-.539-1.52-1.222-1.963-1.519a62.898 62.898 0 01-2.091-1.501c-.708-.53-1.662-1.177-2.121-1.439-1.164-.666-3.189-2.498-3.189-2.886 0-.177-.261-.621-.581-.986-.889-1.019-2.959-4.567-2.959-5.074 0-.247-.134-.587-.298-.756-.49-.502-3.242-5.918-3.242-6.379 0-.235-.332-1.064-.738-1.843-.406-.779-.899-1.922-1.095-2.542a49.982 49.982 0 00-.999-2.735 60.42 60.42 0 01-1.205-3.379c-.31-.974-.666-1.915-.792-2.092-.394-.555-1.285-3.461-1.285-4.191 0-.384-.209-1.118-.464-1.632-.256-.514-.608-1.586-.783-2.383-.176-.796-.484-2.1-.685-2.896-.202-.796-.648-2.679-.992-4.183a810.605 810.605 0 00-1.439-6.141c-.448-1.872-.954-4.696-1.125-6.275-.17-1.578-.459-3.739-.641-4.801-1.31-7.661-1.651-12.773-1.824-27.376-.143-12.135.695-30.613 1.444-31.814.228-.365.54-2.681 1.007-7.47.158-1.619.434-3.429.614-4.023.71-2.347 1.348-5.425 1.348-6.501 0-1.055.79-4.68 1.587-7.287.189-.618.344-1.577.344-2.131 0-.554.362-2.116.804-3.471.443-1.356.805-2.831.805-3.279 0-.849.805-3.763 1.294-4.687.156-.293.587-1.792.959-3.331s.945-3.543 1.273-4.455c.329-.911.696-2.236.817-2.944.121-.708.33-1.432.465-1.609.135-.177.483-1.046.774-1.931l1.335-4.046c.444-1.341.806-2.621.806-2.845 0-.223.435-1.345.966-2.492.531-1.147.965-2.295.965-2.55 0-.256.14-.716.31-1.024.654-1.176 1.621-3.601 1.621-4.065 0-.741.703-2.121 1.097-2.155.193-.016 2.454-.005 5.025.025 4.332.051 4.718.007 5.268-.601.326-.36 1.553-1.275 2.727-2.032 1.173-.757 2.279-1.548 2.456-1.758.383-.454 2.949-1.892 6.275-3.515 3.907-1.908 4.764-2.241 8.367-3.253 1.504-.422 3.531-.994 4.505-1.27 3.135-.889 42.335-1.317 44.891-.49M160.848 75.6c-.825.321-1.929.889-2.452 1.261-.523.373-1.295.827-1.717 1.011-.957.417-2.964 1.615-3.179 1.897-.089.116-1.32 1.188-2.736 2.381-2.774 2.34-3.836 3.387-4.963 4.897a32.868 32.868 0 01-1.781 2.116c-.583.632-1.152 1.439-1.265 1.793-.112.354-.46.923-.773 1.264-.749.816-2.642 3.919-2.642 4.332 0 .178-.356.888-.791 1.577-.436.69-.894 1.665-1.019 2.166-.125.501-.538 1.497-.917 2.212-.38.715-.943 2.236-1.253 3.379-.31 1.143-.761 2.598-1.003 3.233-.482 1.264-1.004 4.013-1.264 6.656-.092.933-.308 2.236-.479 2.896-.424 1.633-.235 12.219.239 13.369.205.499.373 1.431.373 2.071 0 1.254.821 5.068 1.269 5.895.15.278.51 1.431.8 2.561.289 1.13.708 2.279.931 2.552.49.602 1.505 2.803 1.505 3.264 0 .183.362.807.805 1.387.442.58.804 1.201.804 1.38 0 .179.326.689.724 1.134.399.445.979 1.277 1.29 1.848.631 1.157.172 1.128 6.031.377 2.825-.361 3.659-.651 8.528-2.962 5.241-2.487 13.887-10.174 14.931-13.275.07-.209.467-.724.882-1.144.414-.421.994-1.217 1.288-1.77 1.465-2.755 3.279-6.616 3.648-7.763.227-.708.558-1.471.736-1.695.289-.363.654-1.618 1.521-5.224.149-.62.501-2.285.782-3.701s.655-3.192.831-3.947c.177-.754.321-3.035.321-5.068 0-2.25.126-3.696.322-3.696.177 0 .321.281.321.624 0 .862.538 1.117.92.435.298-.534.347-.534.93-.007.841.762 1.091.71 2.093-.432 1.058-1.206 1.665-.967 1.381.543-.126.674-.076 1.089.132 1.089.185 0 .337-.195.337-.434s.46-.782 1.023-1.207c2.842-2.145 3.032-2.555 1.006-2.177-.967.181-1.627.166-1.834-.041-.178-.178-.786-.324-1.351-.324-.617 0-1.102-.193-1.213-.483-.243-.632-1.938-.626-2.465.008-.365.44-.464.44-.95 0-.298-.269-.712-.49-.919-.49-.207 0-.377-.037-.378-.081-.001-.044-.435-1.145-.965-2.447-.531-1.301-.965-2.657-.965-3.013 0-.356-.27-1.173-.601-1.817a35.272 35.272 0 01-1.002-2.136c-1.211-2.917-3.892-7.626-5.097-8.953-6.209-6.84-8.3-8.267-10.73-7.321m110.914 19.46c5.539 2.151 13.033 7.595 13.033 9.468 0 .179.108.374.241.433.289.128 2.333 3.024 2.333 3.304 0 .108.42 1.098.933 2.2.513 1.103 1.109 2.874 1.325 3.936a529.5 529.5 0 00.803 3.861c.499 2.351.573 4.854.167 5.614-.166.31-.453 1.418-.637 2.463-.651 3.683-.879 4.515-1.731 6.316-.473 1-.86 1.947-.86 2.104 0 .157-.362.626-.804 1.041-.443.416-.805.917-.805 1.114 0 .723-5.787 6.932-6.461 6.932-.123 0-1.072.558-2.11 1.24-1.713 1.126-4.89 2.47-7.841 3.317-4.501 1.292-11.464 1.017-14.53-.574-.47-.244-1.079-.444-1.354-.444-.632 0-5.805-2.699-7.238-3.777-3.083-2.318-7.37-7.712-8.319-10.469-.257-.745-.567-1.428-.689-1.518-.209-.155-.69-1.746-1.412-4.67-.486-1.967-.672-8.122-.291-9.617.186-.728.591-2.41.901-3.738.31-1.327.751-2.642.98-2.921.228-.28.416-.656.416-.836 0-1.119 3.351-6.059 5.528-8.15 3.827-3.675 9.21-6.607 13.78-7.506 2.837-.559 12.423.016 14.642.877m-112.723 8.684c5.313 1.384 12.082 6.293 12.149 8.813.006.224.346.948.755 1.609 2.63 4.242 1.422 14.808-2.052 17.952-.343.31-.623.759-.623.997s-.13.433-.288.433c-.159 0-.629.37-1.046.822-1.2 1.303-3.992 2.991-6.163 3.728-1.098.373-2.134.805-2.302.96-.441.407-6.198.348-7.556-.078a29.806 29.806 0 01-2.205-.805c-.582-.244-1.271-.444-1.533-.444-1.104 0-7.226-5.042-7.226-5.951 0-.113-.351-.667-.781-1.23-1.607-2.108-3.279-9.634-2.505-11.278.179-.378.573-1.702.877-2.941.305-1.238.899-2.792 1.32-3.452.422-.66.768-1.291.768-1.403 0-.487 2.662-3.323 3.926-4.181.761-.517 1.575-1.12 1.808-1.342.234-.221.635-.402.89-.402s.715-.145 1.023-.322c3.016-1.736 7.452-2.348 10.764-1.485m26.194 2.393c-.236.381.618 1.127 1.104.965.212-.071.097-.355-.279-.695-.356-.323-.719-.441-.825-.27m-124.068 6.317c4.573 1.858 7.481 7.783 5.636 11.482-.28.562-.51 1.274-.51 1.581 0 .308-.65 1.283-1.444 2.167-4.371 4.861-13.147 3.815-16.126-1.924-.562-1.083-.623-7.372-.082-8.404 2.446-4.661 7.883-6.789 12.526-4.902m200.037 85.51c1.118 1.051.944 1.975-.623 3.302l-1.367 1.159.748.629c.817.686 2.309 2.76 2.309 3.209 0 .342-3.552 4.837-3.827 4.844-.108.003-.703.457-1.322 1.01-3.242 2.891-8.726 5.682-9.792 4.983-1.64-1.074-2.212-3.534-.915-3.937a7.814 7.814 0 001.129-.475c.307-.164.698-.299.869-.299 1.047 0 8.709-5.828 8.709-6.625 0-.2.362-.636.804-.968.871-.654 1.104-1.512.33-1.215-.481.185-2.652-1.829-2.819-2.614-.393-1.852 4.358-4.326 5.767-3.003m-45.397.433c1.168.891 1.62 2.332 1.284 4.097-.376 1.984-3.597 3.235-5.201 2.021-2.677-2.024-1.4.122 2.263 3.802 3.377 3.394 3.414 3.475 2.262 5.036-1.429 1.937-1.98 2.036-3.272.589-.502-.561-1.445-1.611-2.095-2.333a193.42 193.42 0 01-3.153-3.644c-1.083-1.284-2.099-2.333-2.256-2.333-.311 0-2.573 2.289-2.577 2.607-.002.107-.376.597-.832 1.089-.455.492-.959 1.237-1.118 1.656-.441 1.159-1.371.924-2.842-.719-1.442-1.612-1.596-2.136-.814-2.77.813-.66 2.065-1.919 4.366-4.39 2.135-2.293 2.147-2.3 3.844-2.3 1.724 0 3.507 1.076 3.507 2.117 0 .396.943.909 1.199.653.077-.078-.03-.46-.238-.849-1.746-3.263 2.661-6.626 5.673-4.329m22.041.826c1.792 1.419 1.659 2.022-.98 4.437l-2.232 2.043-.101 5.769c-.115 6.593-.047 6.442-2.835 6.311l-1.77-.084-.09-4.264c-.099-4.702-.132-4.76-2.008-3.527-2.183 1.435-4.178 1.696-4.178.546 0-.19-.37-.717-.822-1.169-.956-.956-.947-2.146.018-2.304 2.242-.368 7.451-3.361 9.181-5.275.448-.496.986-.901 1.195-.901.21 0 .55-.326.756-.725 1.096-2.118 2.017-2.322 3.866-.857m12.677-.263c1.664.591 3.379 1.826 3.379 2.434 0 1.823-3.476 3.434-4.479 2.077-.103-.139-.874-.612-1.714-1.05-1.246-.65-1.491-.917-1.33-1.448.416-1.371 1.97-2.849 2.687-2.556.27.11.926.355 1.457.543m-37.704 2.027c-.232.605.337 1.265.83.961.53-.328.419-1.465-.143-1.465-.271 0-.58.227-.687.504m35.041 2.151c.389.221.904.583 1.145.804.241.221.608.403.817.404 1.209.005 2.253 1.471 1.675 2.354-.311.474-.677.862-.813.862-.136 0-.317.268-.402.595-.301 1.149-1.394 1.01-3.684-.466-1.204-.776-2.298-1.412-2.431-1.414-.477-.004-.222-.565.928-2.041 1.238-1.588 1.63-1.744 2.765-1.098m37.296 3.218c.805.669.432 4.054-.471 4.275-.382.093-4.532.129-9.222.079l-8.528-.091-.098-1.894c-.054-1.042-.022-2.092.07-2.333.236-.614 17.513-.648 18.249-.036m18.514 18.745c.635.265 1.851.482 2.702.482 1.048 0 2.234.318 3.671.983l2.124.983-.09 4.086-.09 4.085-1.056-.083c-.581-.046-1.628-.444-2.327-.885-.699-.441-1.632-.802-2.075-.802-.442 0-1.35-.205-2.017-.455-2.991-1.121-7.048-.935-7.368.339-.319 1.274.104 2.179 1.234 2.636.583.236 1.961.851 3.063 1.368 1.103.516 2.235.939 2.516.939.281 0 .972.343 1.535.762.564.42 1.398.851 1.854.958.456.108 1.224.561 1.706 1.008.482.446.97.812 1.084.812.393 0 2.012 1.731 2.012 2.152 0 .232.112.422.249.422.94 0 1.521 2.458 1.516 6.411l-.006 4.048-1.252 2.034c-2.476 4.02-5.798 5.321-13.54 5.303-5.529-.013-8.986-.542-11.277-1.725l-1.595-.823v-8.007l1.011-.098c.606-.059 1.7.237 2.735.74 1.568.763 3.311 1.159 7.322 1.665 1.975.249 4.656-.551 5.308-1.584.683-1.083-2.688-4.102-4.581-4.102-.362 0-1.34-.362-2.172-.804-.832-.443-1.709-.805-1.949-.805-1.646 0-6.033-3.521-7.74-6.213-1.23-1.938-1.447-5.891-.437-7.963 1.191-2.445 2.052-3.845 2.364-3.845.164 0 .557-.328.873-.73.316-.401 1.278-1.062 2.138-1.468.86-.406 1.815-.874 2.123-1.04.307-.166 1.268-.302 2.135-.302.867 0 1.992-.216 2.499-.48 1.188-.62 4.317-.621 5.798-.002m-152.353.939c.581.251 1.708.744 2.504 1.095 2.653 1.168 5.078 4.397 5.131 6.831.01.452.161.963.335 1.137.189.189.351 4.02.402 9.478l.086 9.16.869.1c.478.055 1.156-.053 1.506-.24 1.112-.596 1.647.34 1.647 2.877 0 2.5-.395 3.86-1.122 3.86-.273 0-.747.138-1.054.306-4.111 2.253-10.022 2.179-12.529-.155l-1.499-1.396-.791.623c-.435.342-.967.622-1.182.622-.215 0-1.101.381-1.968.847-2.261 1.214-9.594 1.343-11.391.199-.62-.394-1.44-.854-1.822-1.023-.653-.288-2.342-2.454-3.246-4.163-1.827-3.451 1.306-11.236 4.882-12.134.456-.114.829-.31.829-.435 0-.322 2.158-1.312 2.859-1.312.322 0 1.246-.351 2.053-.781.808-.429 2.134-.88 2.948-1.002.814-.122 1.56-.35 1.656-.507.097-.156.494-.289.881-.295.388-.005.987-.223 1.33-.482.344-.26 1.032-.473 1.529-.473 1.455 0 1.327-2.359-.21-3.849l-1.113-1.079-3.422.021c-4.135.025-8.624 1.895-10.949 4.559-1.419 1.626-1.745.853-1.745-4.132v-4.499l1.452-.999c.798-.55 1.921-1.149 2.494-1.331a34.001 34.001 0 001.524-.521c3.076-1.202 3.792-1.298 9.885-1.331 4.688-.025 6.439.078 7.241.424m20.096.776c.398.59 1.184 2.296 1.749 3.791.564 1.495 1.15 2.795 1.301 2.889.152.094.276.468.276.832 0 .364.348 1.333.775 2.153.426.82 1.034 2.288 1.35 3.262.535 1.644 1.264 2.885 1.501 2.555.273-.381 1.845-3.836 1.848-4.064.002-.144.437-1.114.966-2.157.528-1.043.961-2.147.961-2.455 0-.307.201-.725.447-.93.246-.204.524-.692.617-1.085.373-1.56 1.13-3.22 2.094-4.588l1.012-1.436h5.252c6.677 0 6.935.204 5.094 4.023a199.325 199.325 0 00-1.732 3.701c-.441.973-1.397 3.006-2.126 4.517-.729 1.511-1.326 2.884-1.326 3.052 0 .168-.345 1.032-.768 1.919-2.229 4.682-2.772 5.913-2.772 6.294 0 .23-.197.646-.438.926-.242.279-.707 1.232-1.036 2.117-.328.885-.927 2.1-1.331 2.7-.404.6-.74 1.324-.747 1.609-.007.285-.442 1.314-.966 2.288-.523.973-.952 1.954-.952 2.178 0 .225-.362.983-.805 1.684-.442.7-.804 1.452-.804 1.67 0 .218-.565 1.56-1.255 2.983s-1.72 3.565-2.29 4.759l-1.035 2.172h-5.926c-6.699 0-6.708-.003-5.607-2.282.367-.758.666-1.632.666-1.942 0-.311.133-.646.294-.746.414-.256 1.637-2.85 1.637-3.471 0-.284.109-.564.241-.623.319-.141 1.368-2.423 1.368-2.975 0-.238.193-.593.43-.789.236-.196.624-.974.862-1.729.238-.754.778-1.98 1.2-2.723l.768-1.351-1.597-3.315a391.987 391.987 0 01-4.399-9.429 156.373 156.373 0 00-2.126-4.435c-.689-1.378-1.252-2.652-1.252-2.833 0-.181-.362-.862-.805-1.513-.442-.651-.804-1.46-.804-1.797 0-.338-.411-1.282-.912-2.098-1.053-1.712-1.564-4.073-.938-4.332.221-.091 2.858-.139 5.86-.107l5.458.059.722 1.072m63.407-.88c6.649 2.606 11.972 8.377 12.014 13.027.006.694.218 1.624.471 2.067.706 1.234.616 3.728-.161 4.505-.62.62-1.073.644-12.556.644h-11.913l.198.885c.724 3.237 3.773 6.838 5.79 6.838.359 0 .83.177 1.046.393.553.553 7.599.56 8.151.009.221-.221.683-.402 1.026-.402.344 0 1.331-.435 2.193-.966.863-.531 1.75-.965 1.97-.965.221 0 .802-.372 1.291-.826.534-.495 1.177-.785 1.606-.724 1.732.246.95 8.308-.806 8.308-.156 0-.816.362-1.467.804-.651.443-1.428.805-1.726.805-.299 0-.953.204-1.454.453-2.63 1.307-2.699 1.317-9.253 1.308-6.61-.009-7.088-.081-9.594-1.455-.308-.168-.833-.306-1.168-.306-.335 0-.789-.217-1.009-.483-.22-.265-.564-.485-.763-.488-.2-.002-.811-.401-1.358-.885l-2.092-1.848c-1.439-1.271-3.188-3.677-3.188-4.386 0-.308-.129-.64-.286-.737-.157-.097-.387-.721-.511-1.387-.125-.665-.394-1.413-.6-1.662-.613-.742-.436-8.646.221-9.846.29-.531.529-1.148.53-1.372.002-.437.26-.98 1.886-3.969.728-1.34 3.298-4.152 3.794-4.152.185 0 .587-.276.892-.614.306-.338 1.016-.788 1.579-1a54.148 54.148 0 001.988-.804c.531-.23 1.327-.567 1.77-.748 1.096-.45 10.352-.466 11.489-.021m38.27.144c4.688 1.868 7.034 3.963 7.369 6.58.102.798.323 1.702.491 2.01.172.315.305 4.542.305 9.7 0 10.325-.174 9.705 2.615 9.335l1.568-.208v6.441l-2.011.735c-1.106.404-2.192.874-2.413 1.044-.221.169-2.179.327-4.352.35-4.272.044-4.16.08-6.208-2.01l-1.064-1.086-.869.683c-.477.376-1.045.684-1.26.684-.215 0-1.101.384-1.968.853-2.509 1.357-10.063 1.341-11.911-.026-2.06-1.524-4.307-4.068-4.307-4.876 0-.407-.145-.83-.322-.939-.177-.109-.322-1.196-.322-2.414 0-1.218.145-2.304.322-2.413.177-.109.322-.593.322-1.074 0-1.333 2.736-4.507 4.615-5.353.382-.172.767-.406.855-.518.35-.446 2.262-1.261 2.961-1.262.407-.001 1.609-.435 2.671-.964 1.062-.53 2.331-.964 2.82-.965.489 0 1.141-.124 1.448-.275 1.946-.956 2.926-1.32 3.777-1.402.912-.089 1.724-1.542.862-1.542-.17 0-.392-.33-.493-.733-.677-2.697-6.624-3.675-10.338-1.7-.853.453-1.688.824-1.857.824-.651 0-4.095 2.365-4.277 2.937-.236.743-1.608.812-1.883.094-.81-2.109-.031-9.217 1.05-9.595.288-.101 1.103-.542 1.811-.979.708-.438 1.677-.802 2.154-.81.476-.007.947-.146 1.047-.308.1-.161.759-.391 1.465-.51.707-.12 1.366-.349 1.466-.511.332-.537 12.449-.36 13.861.203m52.502.004c.393.276.715.71.715.966 0 .255.145.464.322.464.177 0 .322.326.323.724 0 .398.409 1.521.908 2.494.499.974 1.18 2.603 1.514 3.62.333 1.018.715 1.851.847 1.851s.336.508.453 1.13c.116.621.34 1.209.497 1.306.157.097.285.534.285.972 0 .437.217.879.483.981.265.101.483.531.483.955 0 .423.115.77.257.77.487 0 1.03-.773 1.03-1.468 0-.382.36-1.226.8-1.874.44-.649.897-1.565 1.015-2.035.118-.47.409-1.227.646-1.681.237-.454.432-1.007.433-1.228.001-.222.118-.403.259-.403.142 0 .447-.543.678-1.206.232-.664.682-1.786 1.001-2.494.319-.708.816-1.829 1.105-2.49.289-.661.799-1.349 1.134-1.529.804-.43 10.165-.424 10.971.007.659.353.842 1.424.3 1.759-.177.109-.324.444-.327.743-.003.299-.579 1.703-1.282 3.119-.702 1.416-1.278 2.737-1.281 2.937-.003.199-.223.543-.488.763-.266.221-.483.609-.483.864 0 .503-.952 2.659-4.31 9.76-.461.976-.839 1.936-.839 2.133 0 .197-.217.539-.483.759-.265.22-.482.59-.482.821 0 .232-.416 1.336-.924 2.455a217.531 217.531 0 00-1.51 3.401c-.323.753-.703 1.368-.846 1.368-.143 0-.26.268-.26.596 0 .327-.345 1.245-.768 2.039-.422.793-.866 1.896-.988 2.45-.122.554-.555 1.5-.963 2.101-.408.601-.921 1.656-1.139 2.344-.219.688-.599 1.572-.845 1.964-.246.393-.744 1.467-1.107 2.387-.363.921-.954 2.087-1.314 2.592l-.653.919-5.846-.088c-6.687-.1-6.862-.194-5.222-2.792.453-.718.824-1.662.824-2.097 0-.436.136-.876.303-.979.311-.193 1.151-1.863 2.151-4.276.311-.752.683-1.367.826-1.367.143 0 .26-.28.26-.622 0-.533.374-1.388 2.296-5.247.477-.958.318-1.643-1.009-4.351-.708-1.444-1.287-2.831-1.287-3.083 0-.251-.218-.636-.483-.857-.265-.22-.483-.586-.483-.812 0-.226-.579-1.544-1.287-2.928s-1.287-2.633-1.287-2.774c0-.141-.362-.83-.805-1.531-.442-.701-.804-1.49-.804-1.753 0-.567-1.227-2.999-1.642-3.255-.159-.098-.289-.499-.289-.889 0-.391-.362-1.244-.804-1.895-.443-.651-.805-1.318-.805-1.482 0-.502-1.286-3.237-1.618-3.443-.433-.267-.392-1.235.073-1.7.631-.63 10.85-.53 11.771.115m-98.839 7.493c-1.212.702-2.779 2.251-2.779 2.747 0 .217-.129.531-.288.699-.75.797-.732 2.315.03 2.476.592.125 7.83.095 12.209-.05l.849-.028-.479-1.902c-.348-1.385-.651-1.947-1.114-2.068-.349-.091-.714-.466-.81-.833-.096-.368-.429-.668-.741-.668-.311 0-.747-.217-.967-.483-.57-.686-4.666-.61-5.91.11M207.08 246.34v3.861l-6.844.087-6.844.087-.316-.832c-.174-.458-.317-1.981-.317-3.385 0-3.957-.173-3.874 7.811-3.767l6.51.087v3.862m-61.419-.644c-.265.265-.682.483-.926.483-.245 0-.726.212-1.069.472-.344.26-.951.477-1.349.483-.398.005-.724.16-.724.343 0 .183-.507.631-1.126.997-.846.499-1.127.881-1.127 1.534 0 .478-.173 1.043-.386 1.255-.3.3-.3.472 0 .772.213.213.386.625.386.916 0 1.642 2.924 2.254 5.362 1.121 2.327-1.082 2.362-1.157 2.362-5.208 0-3.823-.23-4.341-1.403-3.168m120.791.52c-.973.507-1.95.922-2.17.924-.379.004-1.413.772-2.712 2.015-.877.84-.832 4.105.068 4.92.762.689 3.616.831 4.237.211.211-.211.582-.384.824-.384s.937-.379 1.545-.843l1.104-.843v-3.501c0-4.048.032-4.021-2.896-2.499" fill="#fbfbfb"/><path d="M258.085 106.356c-.22.265-.664.482-.986.482-.321 0-.674.145-.784.322-.109.177-.591.322-1.071.322-1.554 0-6.515 5.307-6.728 7.197-.092.814-.366 1.646-.609 1.848-.66.548-.625 7.135.042 7.689.275.229.482.93.482 1.637 0 .936.254 1.526 1.046 2.428 1.663 1.894 4.753 4.764 5.388 5.003.319.12.676.374.793.563.117.19.702.344 1.301.344s1.178.145 1.287.322c.116.188 1.928.322 4.345.322 2.416 0 4.228-.134 4.344-.322.109-.177.453-.322.763-.322.311 0 .981-.434 1.489-.965.509-.531 1.112-.965 1.341-.965.624 0 4.291-3.603 4.291-4.216 0-.293.217-.713.483-.933.265-.221.482-.872.482-1.448s.218-1.228.483-1.448c.698-.58.673-6.069-.035-7.675-2.171-4.923-4.129-7.687-5.828-8.226-.357-.113-.908-.492-1.224-.841-.335-.371-.99-.637-1.571-.638-.548-.001-1.411-.218-1.918-.482-1.302-.68-7.042-.678-7.606.002m-57.87 4.118c-.219.264-.917.578-1.549.696-.757.142-1.207.43-1.315.842-.09.344-.503.711-.918.815-.415.104-.848.501-.962.882-.114.38-.688 1.198-1.275 1.818-2.574 2.715-2.124 9.942.811 13.033.673.708 1.31 1.577 1.417 1.931.189.631 2.415 1.77 3.46 1.77.286 0 .7.217.921.482.562.679 6.322.671 7.221-.01.344-.26.968-.472 1.387-.472 4.217 0 8.663-12.185 5.631-15.436-.398-.426-.724-.887-.724-1.023 0-.482-1.639-2.652-2.379-3.149-.414-.278-1.387-.936-2.163-1.463-1.711-1.161-8.756-1.688-9.563-.716m-47.553 2.261c-7.03 1.619-8.318 14.246-1.737 17.032 4.405 1.866 5.367 1.893 8.793.25 2.5-1.199 4.401-3.018 4.401-4.211 0-.156.306-.829.681-1.496 1.715-3.053-1.03-9.157-5.084-11.304-1.1-.583-5.042-.734-7.054-.271m-97.766 4.16c-.411.398-1.02.883-1.354 1.077-.816.476-1.227 2.267-.947 4.132.916 6.11 9.68 4.883 9.554-1.338-.068-3.386-5.025-6.031-7.253-3.871" fill="#aad50d"/><path d="M138.697 48.598c-10.24.198-13.413.36-14.803.754-.974.276-3.001.848-4.505 1.27-3.603 1.012-4.46 1.345-8.367 3.253-3.326 1.623-5.892 3.061-6.275 3.515-.177.21-1.283 1.001-2.456 1.758-1.174.757-2.401 1.672-2.727 2.032-.55.608-.936.652-5.268.601-2.571-.03-4.832-.041-5.025-.025-.394.034-1.097 1.414-1.097 2.155 0 .464-.967 2.889-1.621 4.065-.17.308-.31.768-.31 1.024 0 .255-.434 1.403-.965 2.55-.531 1.147-.966 2.269-.966 2.492 0 .224-.362 1.504-.806 2.845l-1.335 4.046c-.291.885-.639 1.754-.774 1.931-.135.177-.344.901-.465 1.609-.121.708-.488 2.033-.817 2.944-.328.912-.901 2.916-1.273 4.455-.372 1.539-.803 3.038-.959 3.331-.489.924-1.294 3.838-1.294 4.687 0 .448-.362 1.923-.805 3.279-.442 1.355-.804 2.917-.804 3.471 0 .554-.155 1.513-.344 2.131-.797 2.607-1.587 6.232-1.587 7.287 0 1.076-.638 4.154-1.348 6.501-.18.594-.456 2.404-.614 4.023-.467 4.789-.779 7.105-1.007 7.47-.749 1.201-1.587 19.679-1.444 31.814.173 14.603.514 19.715 1.824 27.376.182 1.062.471 3.223.641 4.801.171 1.579.677 4.403 1.125 6.275a810.605 810.605 0 011.439 6.141c.344 1.504.79 3.387.992 4.183.201.796.509 2.1.685 2.896.175.797.527 1.869.783 2.383.255.514.464 1.248.464 1.632 0 .73.891 3.636 1.285 4.191.126.177.482 1.118.792 2.092a60.42 60.42 0 001.205 3.379c.353.885.803 2.116.999 2.735.196.62.689 1.763 1.095 2.542.406.779.738 1.608.738 1.843 0 .461 2.752 5.877 3.242 6.379.164.169.298.509.298.756 0 .507 2.07 4.055 2.959 5.074.32.365.581.809.581.986 0 .388 2.025 2.22 3.189 2.886.459.262 1.413.909 2.121 1.439a62.898 62.898 0 002.091 1.501c.443.297 1.326.98 1.963 1.519.637.539 2.878 2.211 4.979 3.716 2.101 1.504 4.186 3.106 4.634 3.559 1.283 1.3 1.901 1.4 2.316.376.196-.483.699-1.643 1.117-2.577.418-.934.76-1.972.76-2.307 0-.334.203-1.018.451-1.519.896-1.812 1.479-3.358 1.479-3.926 0-.318.1-.678.221-.799.32-.321 1.001-2.278 1.746-5.024.359-1.321.846-2.769 1.083-3.218.237-.449.612-1.685.834-2.747.223-1.062.582-2.293.798-2.736.217-.442.643-1.89.947-3.218.575-2.514 1.393-5.078 1.796-5.631.129-.177.299-1.118.377-2.092.078-.973.298-2.204.488-2.735 1.009-2.816 1.367-4.342 1.366-5.809-.001-.894.135-1.762.302-1.931.478-.481 1.04-2.983 1.263-5.615.112-1.327.326-2.603.475-2.834.149-.231.397-1.172.55-2.092.153-.919.42-2.395.594-3.28.174-.885.324-2.417.335-3.406.011-.988.128-1.904.261-2.035.228-.225 1.007-4.794 1.143-6.707.065-.907 1.219-1.296 1.672-.563.11.177.635.322 1.167.322s1.277.165 1.655.368c4.471 2.392 24.296 2.584 27.428.265.177-.132.973-.336 1.77-.454.796-.119 1.81-.368 2.252-.553.443-.186 1.239-.512 1.77-.724.847-.339 3.019-1.355 6.517-3.048.575-.278 1.046-.582 1.046-.676 0-.094.422-.357.938-.586.99-.438 5.962-3.687 6.785-4.433.265-.241 1.496-1.289 2.735-2.329 2.454-2.06 6.708-6.358 8.818-8.908.732-.885 1.835-2.213 2.451-2.951.616-.738 1.12-1.418 1.12-1.51 0-.092.797-1.33 1.77-2.752.974-1.421 1.77-2.683 1.77-2.804s.341-.668.757-1.216c.416-.548 1.064-1.648 1.44-2.444.376-.796.822-1.665.992-1.931.526-.823 2.282-4.592 2.282-4.898 0-.253 1.155-2.911 1.944-4.475.146-.288.37-1.084.498-1.768.312-1.66 1.081-2.967 2.063-3.503 1.3-.709 2.973-1.446 3.281-1.446 1.746 0 9.591-8.184 9.591-10.006 0-.294.217-.715.483-.935.265-.22.483-.644.483-.941 0-.297.134-.677.298-.845.947-.972 1.362-7.917.691-11.569-.476-2.593-2.686-7.884-3.293-7.884-.149 0-.271-.211-.271-.469 0-.566-5.072-5.645-5.637-5.645-.219 0-.568-.205-.776-.455-.207-.251-1.004-.75-1.769-1.11l-1.392-.654-.333-2.35c-.406-2.873-.968-5.143-1.374-5.552-.167-.168-.304-.737-.304-1.265 0-.836-.876-3.386-2.5-7.279-.859-2.058-3.965-8.186-4.842-9.553a168.312 168.312 0 01-1.804-2.896c-1.89-3.113-5.641-7.284-10.805-12.014-1.151-1.053-2.261-1.917-2.468-1.92-.206-.003-.423-.125-.482-.273-.121-.301-3.457-2.522-4.935-3.284-.53-.274-1.399-.728-1.93-1.008-2.22-1.173-5.217-2.519-5.609-2.519-.361 0-2.099-.521-6.62-1.983-1.366-.442-14.81-.56-30.088-.264m28.627.821c1.32.108 2.692.401 3.048.65.357.25.969.454 1.362.454.393 0 .796.132.896.294.099.161.796.386 1.547.5.751.114 2.09.547 2.975.963.885.415 1.971.838 2.414.939.442.101 1.225.549 1.739.996.514.447 1.18.813 1.479.813.299 0 .801.284 1.115.631.314.348 1.169.94 1.9 1.316.731.377 2.007 1.251 2.835 1.943.828.693 1.575 1.259 1.659 1.259.403 0 7.184 7.109 9.125 9.566 1.068 1.353 2.996 4.303 2.996 4.586 0 .138.201.418.448.622.62.515 4.83 9.125 5.521 11.292.311.973.665 1.915.787 2.092.122.177.472 1.263.778 2.413.305 1.151.753 2.671.995 3.379.242.708.604 2.301.805 3.54.528 3.26.741 3.841 1.453 3.974 1.802.335 8.207 5.632 8.704 7.2.1.315.295.572.433.572s.509.615.823 1.367c1.084 2.591 1.39 3.302 1.825 4.233.56 1.199.616 11.62.069 12.777-.2.423-.845 1.82-1.432 3.103-.588 1.283-1.174 2.333-1.303 2.333-.128 0-.327.296-.442.659-.207.651-4.568 5.134-4.995 5.134-.122 0-.768.434-1.436.965-.669.531-1.409.965-1.645.965-2.131 0-4.65 2.261-5.106 4.583-.223 1.136-.282 1.288-1.755 4.474-.543 1.176-.988 2.247-.988 2.381 0 .214-.608 1.601-1.898 4.331-.209.442-.878 1.673-1.487 2.735-.609 1.062-1.284 2.293-1.501 2.735-.217.443-.8 1.332-1.294 1.977-.495.645-.901 1.297-.902 1.448-.003.247-1.589 2.426-2.648 3.637-.223.256-.696.934-1.05 1.507-1.502 2.432-8.989 9.915-12.675 12.67a57.035 57.035 0 00-2.128 1.69c-.577.486-1.162.885-1.299.885s-.724.362-1.304.804c-.58.443-1.187.805-1.35.805-.162 0-.859.399-1.55.886-.69.488-1.689 1.084-2.22 1.325-.531.241-1.183.567-1.448.724-1.485.883-6.284 2.725-8.628 3.312l-3.829.96c-3.551.892-10.565 1.289-15.325.867-4.234-.376-5.792-.682-10.03-1.974-4.575-1.395-4.405-1.469-4.816 2.106-.102.885-.397 2.984-.657 4.666-.26 1.681-.688 4.505-.95 6.275-.261 1.77-.622 3.942-.8 4.827-.521 2.582-1.629 8.178-2.103 10.619-.465 2.398-.593 2.942-1.289 5.471a55.091 55.091 0 00-.761 3.218c-.339 1.714-1.795 6.779-3.111 10.822-.439 1.351-.799 2.772-.799 3.158 0 .387-.36 1.491-.801 2.454-.44.964-.89 2.366-.999 3.117-.109.752-.49 1.991-.847 2.754-.356.763-.762 1.849-.903 2.413-.141.565-.568 1.823-.95 2.796-.656 1.675-1.364 3.576-2.483 6.677-.272.753-.635 1.368-.807 1.368-.4 0-3.151-2.82-3.151-3.23 0-.17-.145-.31-.322-.31-.177 0-.322-.159-.322-.353 0-.598-1.067-2.689-1.511-2.961-.23-.142-.424-.721-.43-1.287-.009-.972-.036-.995-.479-.41-.258.341-.575.514-.704.385-.13-.13-.051-.35.176-.49.453-.28.192-1.963-.304-1.963-.158 0-.287-.293-.287-.65 0-.357-.435-1.464-.966-2.459-.531-.995-.965-2.133-.965-2.529 0-.396-.217-.9-.483-1.12-.265-.221-.483-.68-.483-1.02 0-.341-.347-.942-.772-1.336-.545-.504-.772-1.063-.772-1.895 0-.649-.232-1.511-.515-1.915-.283-.404-.515-1.137-.515-1.629 0-.546-.173-.894-.445-.894-.304 0-.45-.422-.463-1.336-.01-.736-.15-1.423-.31-1.529-.16-.106-.382-.763-.492-1.461-.11-.697-.436-1.4-.723-1.561-.394-.221-.472-.561-.317-1.386.205-1.097-.519-1.66-.89-.691-.085.221-.077-.431.018-1.449.146-1.57.092-1.85-.355-1.85-.291 0-.528.176-.528.391 0 .238-.221.167-.563-.181-.537-.544-.537-.591 0-.989.401-.298.563-.866.563-1.976 0-1.211-.086-1.471-.386-1.171-.537.537-1.223.483-1.223-.096 0-.266.138-.483.307-.483.603 0 .771-2.239.214-2.854-.378-.418-.521-1.208-.521-2.883 0-2.292-.168-2.655-.892-1.931-.951.951-2.648-.679-2.648-2.542 0-1.794-.065-1.854-1.85-1.709-.549.044-.724-.113-.724-.646 0-.577.144-.676.804-.55l.805.154v-2.681c0-2.251-.078-2.651-.483-2.495-.284.108-.487.602-.494 1.196-.022 2.094-.758 2.46-4.948 2.46-3.719 0-3.729-.002-3.729-.77 0-.739-.695-1.325-1.095-.924-.335.335-.208 3.255.152 3.478.189.117.477.523.639.904.207.483.237.231.102-.838-.161-1.272-.106-1.528.326-1.528.285 0 .519.217.519.482 0 .4.608.483 3.54.483h3.54v2.253h-3.824c-3.694 0-3.831.024-4.018.724-.36 1.339-.222 2.829.279 3.021.315.121.483.621.483 1.438 0 1.09.095 1.253.735 1.253.906 0 2.108 1.79 1.567 2.332-.244.243-.482.229-.817-.049-.394-.327-.49-.246-.577.488-.18 1.532-.908 1.316-.908-.27 0-.777-.213-1.694-.472-2.038-.26-.343-.477-.888-.483-1.21-.006-.323-.228-.804-.493-1.069-.309-.309-.483-1.104-.483-2.211 0-.95-.145-1.817-.322-1.927-.176-.109-.322-.516-.323-.904-.001-.387-.219-1.12-.483-1.626-.264-.507-.481-1.719-.481-2.692v-1.77l.966.142c.585.086.965-.001.965-.221 0-.704-.731-1.08-1.771-.911-1.015.164-1.056.128-1.213-1.073a85.856 85.856 0 00-.574-3.452c-.327-1.759-.33-2.34-.013-2.847.219-.351.295-.732.17-.848-.125-.115-.291-.029-.371.193-.383 1.074-.735.166-.747-1.931-.008-1.283-.223-2.912-.478-3.62-.255-.708-.466-2.057-.469-2.998-.002-.941-.158-1.997-.345-2.347-.187-.35-.407-2.693-.489-5.208-.082-2.515-.224-5.586-.316-6.825-.581-7.872.001-35.63.778-37.083.202-.377.367-1.647.367-2.82 0-1.174.172-2.451.381-2.837.209-.387.49-2.224.623-4.082.266-3.697.825-7.246 1.28-8.121.16-.307.293-.959.296-1.448.002-.489.213-1.469.468-2.177s.47-2.018.478-2.912c.008-.894.143-1.763.3-1.931.328-.35.976-3.404 1.226-5.774.094-.883.371-1.893.616-2.243.246-.351.447-1.156.447-1.789s.143-1.295.318-1.47c.176-.175.405-1.037.51-1.915.17-1.413.528-2.486 1.472-4.407.151-.307.279-1.031.286-1.609.006-.578.218-1.412.471-1.855.253-.442.469-1.166.481-1.609.012-.442.235-1.085.494-1.429.26-.344.473-1.178.473-1.855 0-.676.138-1.481.306-1.789.542-.989 1.24-2.788 1.402-3.615.205-1.049.843-2.837 1.394-3.912.241-.47.438-1.222.438-1.672 0-.45.342-1.462.76-2.248.418-.787.838-1.772.933-2.189.095-.418.354-1.267.577-1.886.374-1.041.638-1.706 1.537-3.862.185-.442.415-1.094.513-1.448.168-.613.402-.638 4.878-.532 4.65.11 4.71.102 5.555-.698 1.181-1.119 5.574-4.232 7.394-5.241.828-.458 1.734-1.036 2.013-1.284.28-.248.814-.451 1.188-.451s.769-.145.879-.322c.276-.447 2.89-1.609 3.618-1.609.329 0 .735-.124.903-.275.169-.153 4.694-.159 10.121-.015 9.486.252 10.35.228 11.745-.329a20.223 20.223 0 014.429-1.167c.843-.12 1.612-.347 1.709-.503.096-.157.574-.285 1.06-.285.487 0 1.166-.213 1.51-.473.373-.282 1.403-.485 2.555-.505 1.062-.018 2.221-.163 2.575-.321.657-.295 11.578-.161 15.916.195m-6.906 25.473c-.354.088-1.287.593-2.075 1.122-.787.528-1.729 1.098-2.092 1.265-.946.434-1.85.999-2.591 1.618-.353.295-1.584 1.297-2.735 2.226-2.388 1.929-4.821 4.213-4.824 4.53-.002.118-.589.842-1.306 1.609-.717.767-1.762 2.119-2.323 3.003-.56.885-1.097 1.682-1.193 1.77-.865.798-4.835 8.565-4.835 9.46 0 .24-.217.618-.483.838-.265.22-.482.664-.482.986 0 .322-.145.675-.322.784-.177.109-.328.516-.336.904-.007.388-.386 1.719-.841 2.958-.455 1.239-.938 3.266-1.073 4.505-.134 1.239-.34 2.542-.456 2.896-1.075 3.265-.993 16.402.114 18.471.187.349.339 1.272.339 2.052 0 .779.435 2.671.966 4.204.531 1.532.965 3.005.965 3.274 0 .487.489 1.501 1.162 2.409.197.266.595 1.195.884 2.065.289.871.734 1.812.988 2.093.254.28.66.872.903 1.314 1.121 2.041 2.628 4.183 2.949 4.192.195.005 1.513 1.111 2.929 2.458 1.416 1.346 3.081 2.818 3.701 3.27.619.452 1.271.976 1.448 1.163.177.187 1.006.674 1.843 1.083.837.409 1.605.879 1.708 1.046.103.166.533.303.954.303.422 0 .849.133.95.297.101.163.617.392 1.146.508.528.116.961.345.961.507 0 .163.635.297 1.412.297.776 0 1.826.216 2.333.48 1.071.559 9.73.702 10.711.177.316-.169 1.571-.41 2.789-.535 1.217-.125 2.407-.42 2.644-.657.237-.237.701-.431 1.032-.431.331 0 .691-.145.801-.322.109-.177.489-.321.845-.321.355 0 1.121-.362 1.701-.805.58-.442 1.371-.804 1.758-.804s.78-.199.874-.443c.093-.243.74-.699 1.438-1.014.697-.315 1.268-.671 1.268-.791 0-.121.774-.753 1.721-1.405 1.712-1.179 5.289-4.748 7.129-7.113.531-.683 1.291-1.638 1.689-2.123.398-.484.724-.974.724-1.089 0-.215 1.053-1.791 1.949-2.917 1.629-2.047 1.299-3.379-.838-3.379-.965 0-2.349-.45-4.083-1.326-.308-.156-.75-.283-.983-.283-1.317 0-7.594-5.811-8.69-8.045-.39-.796-.891-1.639-1.112-1.873-.221-.234-.402-.681-.402-.993 0-.311-.103-.67-.23-.796-2.58-2.581-1.718-14.503 1.381-19.077.34-.502.691-1.074.78-1.27.267-.591 1.727-2.445 2.413-3.064 2.147-1.936 4.172-3.456 5.377-4.035.759-.365 2.17-1.045 3.134-1.512 1.514-.732 2.17-.848 4.827-.852 4.044-.007 4.211-.124 3.302-2.315-.391-.943-.711-1.831-.711-1.972 0-.141-.35-.717-.779-1.281-.429-.563-.876-1.41-.993-1.881-.118-.471-.636-1.232-1.152-1.692-.515-.459-.937-.997-.937-1.194 0-.261-.121-.259-.44.007-.335.277-.537.248-.844-.122-.276-.332-.998-.487-2.277-.487-1.029 0-1.961-.144-2.071-.321-.109-.177-1.041-.322-2.071-.322-1.272 0-2.001-.155-2.273-.483-.301-.362-1.107-.483-3.223-.483-2.212 0-2.863-.104-3.008-.482-.141-.369-.747-.483-2.569-.483-1.744 0-2.494-.132-2.792-.491-.364-.439-.466-.437-.968.017-.516.467-.615.439-1.236-.35-.713-.907-1.651-.888-1.651.032 0 .636-.442.229-1.591-1.461-1.005-1.477-6.596-7.034-8.374-8.322-1.38-.999-2.814-1.237-4.677-.776m4.187 1.209c.869.65 5.355 5.038 6.973 6.82 1.205 1.327 3.886 6.036 5.097 8.953.22.531.671 1.492 1.002 2.136.331.644.601 1.461.601 1.817 0 .356.434 1.712.965 3.013.53 1.302.964 2.403.965 2.447.001.044.171.081.378.081s.621.221.919.49c.486.44.585.44.95 0 .527-.634 2.222-.64 2.465-.008.111.29.596.483 1.213.483.565 0 1.173.146 1.351.324.207.207.867.222 1.834.041 2.026-.378 1.836.032-1.006 2.177-.563.425-1.023.968-1.023 1.207 0 .239-.152.434-.337.434-.208 0-.258-.415-.132-1.089.284-1.51-.323-1.749-1.381-.543-1.002 1.142-1.252 1.194-2.093.432-.583-.527-.632-.527-.93.007-.382.682-.92.427-.92-.435 0-.343-.144-.624-.321-.624-.196 0-.322 1.446-.322 3.696 0 2.033-.144 4.314-.321 5.068-.176.755-.55 2.531-.831 3.947a131.27 131.27 0 01-.782 3.701c-.867 3.606-1.232 4.861-1.521 5.224-.178.224-.509.987-.736 1.695-.369 1.147-2.183 5.008-3.648 7.763-.294.553-.874 1.349-1.288 1.77-.415.42-.812.935-.882 1.144-1.044 3.101-9.69 10.788-14.931 13.275-4.869 2.311-5.703 2.601-8.528 2.962-5.859.751-5.4.78-6.031-.377-.311-.571-.891-1.403-1.29-1.848-.398-.445-.724-.955-.724-1.134 0-.179-.362-.8-.804-1.38-.443-.58-.805-1.204-.805-1.387 0-.461-1.015-2.662-1.505-3.264-.223-.273-.642-1.422-.931-2.552-.29-1.13-.65-2.283-.8-2.561-.448-.827-1.269-4.641-1.269-5.895 0-.64-.168-1.572-.373-2.071-.474-1.15-.663-11.736-.239-13.369.171-.66.387-1.963.479-2.896.26-2.643.782-5.392 1.264-6.656.242-.635.693-2.09 1.003-3.233.31-1.143.873-2.664 1.253-3.379.379-.715.792-1.711.917-2.212.125-.501.583-1.476 1.019-2.166.435-.689.791-1.399.791-1.577 0-.413 1.893-3.516 2.642-4.332.313-.341.661-.91.773-1.264.113-.354.682-1.161 1.265-1.793a32.868 32.868 0 001.781-2.116c1.127-1.51 2.189-2.557 4.963-4.897 1.416-1.193 2.647-2.265 2.736-2.381.215-.282 2.222-1.48 3.179-1.897.422-.184 1.194-.638 1.717-1.011 2.579-1.836 4.462-2.067 6.209-.76m92.515 18.082c-4.57.899-9.953 3.831-13.78 7.506-2.177 2.091-5.528 7.031-5.528 8.15 0 .18-.188.556-.416.836-.229.279-.67 1.594-.98 2.921-.31 1.328-.715 3.01-.901 3.738-.381 1.495-.195 7.65.291 9.617.722 2.924 1.203 4.515 1.412 4.67.122.09.432.773.689 1.518.949 2.757 5.236 8.151 8.319 10.469 1.433 1.078 6.606 3.777 7.238 3.777.275 0 .884.2 1.354.444 3.066 1.591 10.029 1.866 14.53.574 2.951-.847 6.128-2.191 7.841-3.317 1.038-.682 1.987-1.24 2.11-1.24.674 0 6.461-6.209 6.461-6.932 0-.197.362-.698.805-1.114.442-.415.804-.884.804-1.041 0-.157.387-1.104.86-2.104.852-1.801 1.08-2.633 1.731-6.316.184-1.045.471-2.153.637-2.463.406-.76.332-3.263-.167-5.614a529.5 529.5 0 01-.803-3.861c-.216-1.062-.812-2.833-1.325-3.936-.513-1.102-.933-2.092-.933-2.2 0-.28-2.044-3.176-2.333-3.304-.133-.059-.241-.254-.241-.433 0-1.116-5.539-5.866-8.85-7.588-4.917-2.559-13.469-3.811-18.825-2.757m12.755.908c.507.264 1.166.481 1.466.482.299.001.633.147.743.324.109.177.518.322.909.322s1.244.362 1.895.804c.651.443 1.3.806 1.442.808 1.175.016 6.296 4.556 8.156 7.23.612.881 1.439 1.966 1.837 2.411.399.444.724 1.035.724 1.313 0 .277.213.786.473 1.129.26.344.477.861.483 1.149.005.288.227.704.493.924.288.239.482.943.482 1.745 0 .739.181 1.525.403 1.747.29.29.402 1.919.402 5.84 0 3.922-.112 5.551-.402 5.841-.222.221-.403.868-.403 1.438 0 .569-.35 1.735-.779 2.59-.429.856-.873 1.929-.987 2.386-.114.457-.523 1.188-.91 1.624-.386.437-.92 1.166-1.185 1.621-.89 1.527-2.844 3.965-3.568 4.452a27.52 27.52 0 00-1.712 1.305c-1.783 1.474-4.998 3.522-5.529 3.522-.285 0-.974.194-1.532.43-5.37 2.276-13.605 2.759-17.426 1.022-2.247-1.021-3.337-1.452-3.675-1.452-.198 0-.934-.362-1.635-.804-.701-.443-1.358-.805-1.461-.805-.664 0-5.25-4.052-6.791-6-1.552-1.962-3.654-5.526-3.654-6.195 0-.329-.218-.778-.483-.999-.266-.22-.488-.853-.494-1.407-.007-.553-.219-1.368-.472-1.811-.675-1.182-.675-11.465 0-13.082.266-.636.483-1.514.483-1.952 0-.437.204-1.18.454-1.65s.702-1.433 1.006-2.141c.303-.708.895-1.748 1.316-2.312.42-.563.764-1.123.764-1.245 0-.121.418-.696.928-1.277.511-.581.981-1.184 1.046-1.338.103-.246 4.378-3.923 5.279-4.54 1.131-.776 4.431-2.321 4.956-2.321.344 0 .715-.145.824-.322.109-.177.444-.324.743-.327.299-.002.906-.205 1.349-.451 1.21-.671 12.763-.695 14.042-.028m-117.824 8.674c-1.559.463-3.023 1.031-3.776 1.464-.308.177-.768.322-1.023.322-.255 0-.656.181-.89.402-.233.222-1.047.825-1.808 1.342-1.264.858-3.926 3.694-3.926 4.181 0 .112-.346.743-.768 1.403-.421.66-1.015 2.214-1.32 3.452-.304 1.239-.698 2.563-.877 2.941-.774 1.644.898 9.17 2.505 11.278.43.563.781 1.117.781 1.23 0 .909 6.122 5.951 7.226 5.951.262 0 .951.2 1.533.444.581.245 1.573.607 2.205.805 1.358.426 7.115.485 7.556.078.168-.155 1.204-.587 2.302-.96 2.171-.737 4.963-2.425 6.163-3.728.417-.452.887-.822 1.046-.822.158 0 .288-.195.288-.433s.28-.687.623-.997c3.474-3.144 4.682-13.71 2.052-17.952-.409-.661-.749-1.385-.755-1.609-.019-.709-3.17-4.398-4.543-5.319-5.081-3.406-10.486-4.693-14.594-3.473m9.299 1.302c.834.443 1.71.806 1.946.806.513 0 4.258 2.71 5.073 3.67 1.627 1.918 2.508 3.235 2.508 3.749 0 .315.109.621.241.68 1.033.459 1.474 2.631 1.485 7.312l.01 4.783-1.082 2.212c-1.563 3.194-4.772 7.2-5.768 7.2-.171 0-.505.181-.742.402-.737.687-2.42 1.528-3.059 1.528-.336 0-.773.163-.971.361-.313.313-3.457.886-5.4.985-1.183.06-5.077-.662-5.42-1.006-.187-.187-.729-.34-1.206-.34-.83 0-3.287-1.622-5.671-3.744-1.436-1.279-3.952-5.255-3.953-6.247 0-.452-.143-.963-.316-1.137-.52-.52-.763-6.543-.33-8.18a31.33 31.33 0 00.557-2.555c.095-.609.588-1.68 1.096-2.381.508-.701.923-1.408.923-1.571 0-.163.206-.503.458-.754.252-.252.723-.795 1.047-1.207.87-1.106 4.589-3.76 5.269-3.76.324 0 .679-.145.788-.322.11-.177.47-.322.801-.322.331 0 .809-.207 1.062-.46 1.126-1.126 8.356-.924 10.654.298m24.987 2.035c-.486.162-1.34-.584-1.104-.965.106-.171.469-.053.825.27.376.34.491.624.279.695M55.833 111.88c-.705.154-1.679.544-3.322 1.33-1.042.499-3.133 2.738-3.872 4.146-.541 1.032-.48 7.321.082 8.404 2.979 5.739 11.755 6.785 16.126 1.924.794-.884 1.444-1.859 1.444-2.167 0-.307.23-1.019.51-1.581 2.822-5.656-4.318-13.504-10.968-12.056m4.157.709c.096.154.591.364 1.101.466 1.351.27 4.46 3.224 4.732 4.494.121.569.383 1.235.58 1.48.489.605.461 4.099-.037 4.597-.218.218-.397.774-.397 1.235 0 1.063-3.233 4.385-4.549 4.674-.503.11-.996.334-1.097.498-.374.605-5.089.338-6.558-.372-5.018-2.424-6.922-9.096-3.802-13.32l.894-1.198c.581-.775 1.651-1.406 4.171-2.455.986-.411 4.724-.485 4.962-.099m27.406 83.952c-.098.309-.047.997.112 1.528.269.898.291.859.316-.563.029-1.588-.123-1.932-.428-.965m169.563 2.393c-.885.897-1.571 1.812-1.524 2.033.167.785 2.338 2.799 2.819 2.614.774-.297.541.561-.33 1.215-.442.332-.804.768-.804.968 0 .797-7.662 6.625-8.709 6.625-.171 0-.562.135-.869.299a7.814 7.814 0 01-1.129.475c-.896.278-1.032 1.143-.374 2.365.999 1.856 1.78 2.184 3.252 1.37.818-.452.961-.61.427-.469-1.796.472-2.356.332-3.11-.777-.736-1.083-.604-2.297.251-2.297.794 0 5.215-2.393 6.285-3.402.643-.607 1.258-1.105 1.366-1.107.457-.008 3.023-2.765 4.733-5.086.303-.411.453-.37 1.061.294.389.425.939 1.023 1.223 1.328 1.101 1.186-3.87 6.563-8.233 8.907-1.07.574-2.941 2.141-2.255 1.887.887-.327 4.901-3.007 6.081-4.059.619-.553 1.214-1.007 1.322-1.01.275-.007 3.827-4.502 3.827-4.844 0-.449-1.492-2.523-2.309-3.209l-.748-.629 1.367-1.159c1.567-1.327 1.741-2.251.623-3.302-1.235-1.16-2.405-.892-4.243.97m-45.814-.529c-1.131.951-1.645 3.141-1.013 4.321.208.389.315.771.238.849-.256.256-1.199-.257-1.199-.653 0-.677-1.774-2.118-2.592-2.105-.751.012-.742.033.179.447.531.239 1.472 1.051 2.092 1.804 1.963 2.386 5.261 5.948 6.677 7.211 1.605 1.431 1.618 1.503.546 2.908-1.048 1.374-1.628 1.587-2.323.853-1.319-1.395-4.056-4.537-5.556-6.38-2.125-2.609-2.611-2.747-4.205-1.191-.69.673-1.254 1.416-1.254 1.651 0 .236-.199.504-.442.598-.243.093-.71.668-1.038 1.277-.771 1.43-1.325 1.396-2.863-.179l-1.256-1.286 3.202-3.33c1.761-1.832 3.709-3.563 4.328-3.846l1.126-.516-.915-.017c-.731-.013-1.348.448-3.057 2.284-2.301 2.471-3.553 3.73-4.366 4.39-.782.634-.628 1.158.814 2.77 1.471 1.643 2.401 1.878 2.842.719.159-.419.663-1.164 1.118-1.656.456-.492.83-.982.832-1.089.004-.318 2.266-2.607 2.577-2.607.157 0 1.173 1.049 2.256 2.333a193.42 193.42 0 003.153 3.644c.65.722 1.593 1.772 2.095 2.333 1.292 1.447 1.843 1.348 3.272-.589 1.152-1.561 1.115-1.642-2.262-5.036-3.663-3.68-4.94-5.826-2.263-3.802 1.604 1.214 4.825-.037 5.201-2.021.724-3.813-3.126-6.461-5.944-4.089m49.735-.119c.898.843.915 1.153.121 2.186l-.611.794-.874-.874c-.481-.481-1-.875-1.153-.875-.413 0-.336-1.1.108-1.544.591-.591 1.584-.462 2.409.313m-186.62.427c-.11.531-.298 1.219-.418 1.528-.148.383-.064.564.265.564.661 0 .856-.656.583-1.96l-.23-1.098-.2.966m141.54.289c3.074 3.074-1.168 7.695-4.342 4.731-1.78-1.663-1.258-4.797.931-5.597 1.284-.47 2.345-.2 3.411.866m19.046-.209c-.27.31-.66.889-.866 1.287-.206.399-.546.725-.756.725-.209 0-.747.405-1.195.901-1.414 1.565-4.72 3.659-7.214 4.57-.512.186-.837.432-.724.545.43.43 4.426-1.71 6.588-3.527 1.002-.843 2.185-1.768 2.628-2.055.442-.287 1.096-.973 1.453-1.524.621-.96 2.086-1.572 2.086-.872 0 .185.435.561.966.835 1.486.769 1.214 1.501-1.448 3.893l-2.414 2.169v5.229c0 2.876-.088 5.458-.195 5.738-.246.642-3.512.733-3.795.107-.1-.221-.147-.112-.104.242.066.544.351.656 1.845.727 2.785.131 2.718.281 2.832-6.311l.101-5.769 2.232-2.043c2.639-2.415 2.772-3.018.98-4.437-1.419-1.124-2.286-1.248-3-.43m13.247-.168c-2.119 1.803-2.224 2.836-.384 3.796.84.438 1.611.911 1.714 1.05 1.003 1.357 4.479-.254 4.479-2.077 0-.608-1.715-1.843-3.379-2.434a43.867 43.867 0 01-1.457-.543c-.271-.111-.709-.017-.973.208m3.106 1.178c2.345 1.109 2.572 1.538 1.523 2.879-.994 1.27-1.341 1.269-3.679-.017-2.231-1.226-2.441-1.612-1.556-2.855.83-1.166 1.26-1.167 3.712-.007m7.648.881c1.232 1.69-.492 3.173-1.91 1.644-1.04-1.122-1.19-1.516-.771-2.02.62-.747 2.004-.553 2.681.376m-46.055-.31c-.618.249-.478 1.655.2 2.018.896.479 1.844-.624 1.343-1.561-.354-.66-.75-.777-1.543-.457m1.206.733c0 .344-.157.722-.349.841-.493.304-1.062-.356-.83-.961.276-.719 1.179-.627 1.179.12m-139.979 1.226c.016.757.526.979.894.389.342-.547.309-.63-.252-.63-.356 0-.644.108-.642.241m14.16 1.126c-.003.487.14.885.317.885.406 0 .406-.657 0-1.287-.244-.376-.313-.287-.317.402m156.916.777c-1.15 1.476-1.405 2.037-.928 2.041.133.002 1.227.638 2.431 1.414 2.29 1.476 3.383 1.615 3.684.466.085-.327.266-.595.402-.595s.502-.388.813-.862c.578-.883-.466-2.349-1.675-2.354-.209-.001-.576-.183-.817-.404-1.715-1.576-2.498-1.518-3.91.294m4.597.444c1.857 1.143 1.88 1.198.967 2.358-1.201 1.527-1.76 1.63-3.38.622-2.921-1.817-2.846-1.692-1.879-3.108 1.012-1.48 1.711-1.46 4.292.128m17.296 1.488c-.118.118-.205.516-.194.885.02.64.034.638.314-.059l.293-.729 8.777.085 8.778.086.104 1.09c.057.6.018 1.433-.087 1.851l-.19.76h-8.817c-6.742 0-8.859-.095-8.999-.402-.1-.222-.146-.113-.103.241.079.637 15.561 1.206 17.821.655.903-.221 1.276-3.606.471-4.275-.521-.433-17.744-.611-18.168-.188m-177.873.992c-.014.133-.071.475-.127.761-.055.286.026.721.181.966.191.301.284.055.287-.761.004-1.008-.261-1.757-.341-.966m133.143-.027c-.342.343-.248 1.717.118 1.717.183 0 .623.491.977 1.091 1.027 1.741 1.283 1.721 5.275-.411.701-.374 1.109-.68.906-.68-.494 0-1.646.517-2.824 1.268-1.505.959-2.247.829-3.101-.544-.413-.664-.87-1.39-1.015-1.613-.177-.271-.017-.505.477-.704.701-.281.705-.299.072-.318-.369-.011-.767.076-.885.194m-133.203 2.923c-.068.133-.021.676.104 1.207.222.949.226.945.264-.241.036-1.146-.098-1.498-.368-.966m-1.525 5.767c0 2.968-.419 3.968-1.664 3.968-.439 0-.598-.236-.597-.885.001-.487-.01-1.175-.024-1.529-.021-.541.363-2.312.856-3.942.067-.221.416-.402.775-.402.607 0 .654.2.654 2.79m2.467-2.575c-.333.332-.252 1.976.108 2.199.194.12.321-.319.321-1.108 0-1.334-.052-1.468-.429-1.091m-8.673 5.698c-.188.57-1.517.649-1.517.09 0-.264.181-.542.402-.619.589-.205 1.253.109 1.115.529m8.781.22c0 .391-.221.625-.59.625-.898 0-1.078-.368-.494-1.012.611-.676 1.084-.507 1.084.387m-7.828 5.967c.109.283-.004.643-.251.8-.36.227-.337.285.114.289.69.006.736.748.08 1.292-.785.652-.615 2.218.278 2.558.74.281 1.355 1.226 1.019 1.563-.335.335-1.78-.583-1.789-1.137-.009-.541-.027-.542-.338-.007-.18.309-.482.563-.671.563-.429 0-.038-4.156.446-4.747.228-.278.219-.402-.031-.402-.199 0-.362-.29-.362-.644 0-.79 1.212-.894 1.505-.128m215.595-.03c-.507.264-1.632.48-2.499.48-.867 0-1.828.136-2.135.302-.308.166-1.263.634-2.123 1.04-.86.406-1.822 1.067-2.138 1.468-.316.402-.709.73-.873.73-.312 0-1.173 1.4-2.364 3.845-1.01 2.072-.793 6.025.437 7.963 1.707 2.692 6.094 6.213 7.74 6.213.24 0 1.117.362 1.949.805.832.442 1.81.804 2.172.804 1.893 0 5.264 3.019 4.581 4.102-.652 1.033-3.333 1.833-5.308 1.584-4.011-.506-5.754-.902-7.322-1.665-1.035-.503-2.129-.799-2.735-.74l-1.011.098v8.007l1.595.823c2.291 1.183 5.748 1.712 11.277 1.725 7.742.018 11.064-1.283 13.54-5.303l1.252-2.034.006-4.048c.005-3.953-.576-6.411-1.516-6.411-.137 0-.249-.19-.249-.422 0-.421-1.619-2.152-2.012-2.152-.114 0-.602-.366-1.084-.812-.482-.447-1.25-.9-1.706-1.008-.456-.107-1.29-.538-1.854-.958-.563-.419-1.254-.762-1.535-.762-.281 0-1.413-.423-2.516-.939a82.058 82.058 0 00-3.063-1.368c-1.13-.457-1.553-1.362-1.234-2.636.32-1.274 4.377-1.46 7.368-.339.667.25 1.575.455 2.017.455.443 0 1.376.361 2.075.802.699.441 1.746.839 2.327.885l1.056.083.09-4.085.09-4.086-2.124-.983c-1.437-.665-2.623-.983-3.671-.983-.851 0-2.067-.217-2.702-.482-1.481-.619-4.61-.618-5.798.002m-217.985.928c.355.27.564.861.564 1.599 0 1.492-.507 1.521-.784.045-.116-.619-.349-1.126-.518-1.126-.169 0-.307-.218-.307-.483 0-.589.303-.599 1.045-.035m56.396.173c-.885.305-1.826.639-2.092.743-.265.104-.951.338-1.524.521-.573.182-1.696.781-2.494 1.331l-1.452.999v4.499c0 4.985.326 5.758 1.745 4.132 2.325-2.664 6.814-4.534 10.949-4.559l3.422-.021 1.113 1.079c1.537 1.49 1.665 3.849.21 3.849-.497 0-1.185.213-1.529.473-.343.259-.942.477-1.33.482-.387.006-.784.139-.881.295-.096.157-.842.385-1.656.507s-2.14.573-2.948 1.002c-.807.43-1.731.781-2.053.781-.701 0-2.859.99-2.859 1.312 0 .125-.373.321-.829.435-3.576.898-6.709 8.683-4.882 12.134.904 1.709 2.593 3.875 3.246 4.163.382.169 1.202.629 1.822 1.023 1.797 1.144 9.13 1.015 11.391-.199.867-.466 1.753-.847 1.968-.847.215 0 .747-.28 1.182-.622l.791-.623 1.499 1.396c2.507 2.334 8.418 2.408 12.529.155.307-.168.781-.306 1.054-.306.727 0 1.122-1.36 1.122-3.86 0-2.537-.535-3.473-1.647-2.877-.35.187-1.028.295-1.506.24l-.869-.1-.086-9.16c-.051-5.458-.213-9.289-.402-9.478-.174-.174-.325-.685-.335-1.137-.053-2.434-2.478-5.663-5.131-6.831-.796-.351-1.923-.844-2.504-1.095-1.638-.708-12.86-.585-15.034.164m23.09-.412c-.626.259-.115 2.62.938 4.332.501.816.912 1.76.912 2.098 0 .337.362 1.146.804 1.797.443.651.805 1.332.805 1.513 0 .181.563 1.455 1.252 2.833a156.373 156.373 0 012.126 4.435 391.987 391.987 0 004.399 9.429l1.597 3.315-.768 1.351c-.422.743-.962 1.969-1.2 2.723-.238.755-.626 1.533-.862 1.729-.237.196-.43.551-.43.789 0 .552-1.049 2.834-1.368 2.975-.132.059-.241.339-.241.623 0 .621-1.223 3.215-1.637 3.471-.161.1-.294.435-.294.746 0 .31-.299 1.184-.666 1.942-1.101 2.279-1.092 2.282 5.607 2.282h5.926l1.035-2.172c.57-1.194 1.6-3.336 2.29-4.759.69-1.423 1.255-2.765 1.255-2.983 0-.218.362-.97.804-1.67.443-.701.805-1.459.805-1.684 0-.224.429-1.205.952-2.178.524-.974.959-2.003.966-2.288.007-.285.343-1.009.747-1.609.404-.6 1.003-1.815 1.331-2.7.329-.885.794-1.838 1.036-2.117.241-.28.438-.696.438-.926 0-.381.543-1.612 2.772-6.294.423-.887.768-1.751.768-1.919 0-.168.597-1.541 1.326-3.052a261.782 261.782 0 002.126-4.517c.44-.974 1.22-2.639 1.732-3.701 1.841-3.819 1.583-4.023-5.094-4.023h-5.252l-1.012 1.436c-.964 1.368-1.721 3.028-2.094 4.588-.093.393-.371.881-.617 1.085-.246.205-.447.623-.447.93 0 .308-.433 1.412-.961 2.455-.529 1.043-.964 2.013-.966 2.157-.003.228-1.575 3.683-1.848 4.064-.237.33-.966-.911-1.501-2.555-.316-.974-.924-2.442-1.35-3.262-.427-.82-.775-1.789-.775-2.153 0-.364-.124-.738-.276-.832-.151-.094-.737-1.394-1.301-2.889-.565-1.495-1.351-3.201-1.749-3.791l-.722-1.072-5.458-.059c-3.002-.032-5.639.016-5.86.107m63.958.165c-.443.181-1.239.518-1.77.748-.531.23-1.426.592-1.988.804-.563.212-1.273.662-1.579 1-.305.338-.707.614-.892.614-.496 0-3.066 2.812-3.794 4.152-1.626 2.989-1.884 3.532-1.886 3.969-.001.224-.24.841-.53 1.372-.657 1.2-.834 9.104-.221 9.846.206.249.475.997.6 1.662.124.666.354 1.29.511 1.387.157.097.286.429.286.737 0 .709 1.749 3.115 3.188 4.386l2.092 1.848c.547.484 1.158.883 1.358.885.199.003.543.223.763.488.22.266.674.483 1.009.483.335 0 .86.138 1.168.306 2.506 1.374 2.984 1.446 9.594 1.455 6.554.009 6.623-.001 9.253-1.308.501-.249 1.155-.453 1.454-.453.298 0 1.075-.362 1.726-.805.651-.442 1.311-.804 1.467-.804 1.756 0 2.538-8.062.806-8.308-.429-.061-1.072.229-1.606.724-.489.454-1.07.826-1.291.826-.22 0-1.107.434-1.97.965-.862.531-1.849.966-2.193.966-.343 0-.805.181-1.026.402-.552.551-7.598.544-8.151-.009-.216-.216-.687-.393-1.046-.393-2.017 0-5.066-3.601-5.79-6.838l-.198-.885h11.913c11.483 0 11.936-.024 12.556-.644.777-.777.867-3.271.161-4.505-.253-.443-.465-1.373-.471-2.067-.042-4.65-5.365-10.421-12.014-13.027-1.137-.445-10.393-.429-11.489.021m35.898-.08c-.1.162-.759.391-1.466.511-.706.119-1.365.349-1.465.51-.1.162-.571.301-1.047.308-.477.008-1.446.372-2.154.81-.708.437-1.523.878-1.811.979-1.081.378-1.86 7.486-1.05 9.595.275.718 1.647.649 1.883-.094.182-.572 3.626-2.937 4.277-2.937.169 0 1.004-.371 1.857-.824 3.714-1.975 9.661-.997 10.338 1.7.101.403.323.733.493.733.862 0 .05 1.453-.862 1.542-.851.082-1.831.446-3.777 1.402-.307.151-.959.275-1.448.275-.489.001-1.758.435-2.82.965-1.062.529-2.264.963-2.671.964-.699.001-2.611.816-2.961 1.262-.088.112-.473.346-.855.518-1.879.846-4.615 4.02-4.615 5.353 0 .481-.145.965-.322 1.074-.177.109-.322 1.195-.322 2.413 0 1.218.145 2.305.322 2.414.177.109.322.532.322.939 0 .808 2.247 3.352 4.307 4.876 1.848 1.367 9.402 1.383 11.911.026.867-.469 1.753-.853 1.968-.853.215 0 .783-.308 1.26-.684l.869-.683 1.064 1.086c2.048 2.09 1.936 2.054 6.208 2.01 2.173-.023 4.131-.181 4.352-.35.221-.17 1.307-.64 2.413-1.044l2.011-.735v-6.441l-1.568.208c-2.789.37-2.615.99-2.615-9.335 0-5.158-.133-9.385-.305-9.7-.168-.308-.389-1.212-.491-2.01-.335-2.617-2.681-4.712-7.369-6.58-1.412-.563-13.529-.74-13.861-.203m49.069.565c1.056.294 1.919.639 1.919.768s.362.325.805.436c1.15.289 1.289 7.591.145 7.591-.632 0-2.544-.834-2.881-1.257-.316-.397-5.191-1.588-7.571-1.85-3.825-.421-6.086 2.951-3.048 4.545 1.83.961 5.162 2.424 5.518 2.424.211 0 1.153.434 2.094.965.941.531 1.908.966 2.15.966.653 0 4.851 4.174 5.47 5.439 1.564 3.196.343 10.193-2.194 12.577-2.848 2.675-9.91 4.188-15.005 3.213a97.243 97.243 0 00-3.743-.619c-1.105-.158-2.811-.655-3.792-1.104l-1.782-.816.091-3.633.091-3.633.91.064c.501.035 1.564.38 2.363.767 4.1 1.985 11.361 2.082 12.945.174 1.196-1.441-.947-4.223-3.792-4.922-.463-.114-1.493-.497-2.289-.851-.797-.354-2.1-.877-2.897-1.163-6.323-2.267-10.162-9.685-7.24-13.99.442-.652.804-1.37.804-1.595 0-.852 3.608-3.574 5.793-4.371 2.928-1.067 11.492-1.138 15.136-.125m5.523-.473c-.465.465-.506 1.433-.073 1.7.332.206 1.618 2.941 1.618 3.443 0 .164.362.831.805 1.482.442.651.804 1.504.804 1.895 0 .39.13.791.289.889.415.256 1.642 2.688 1.642 3.255 0 .263.362 1.052.804 1.753.443.701.805 1.39.805 1.531 0 .141.579 1.39 1.287 2.774.708 1.384 1.287 2.702 1.287 2.928 0 .226.218.592.483.812.265.221.483.606.483.857 0 .252.579 1.639 1.287 3.083 1.327 2.708 1.486 3.393 1.009 4.351-1.922 3.859-2.296 4.714-2.296 5.247 0 .342-.117.622-.26.622-.143 0-.515.615-.826 1.367-1 2.413-1.84 4.083-2.151 4.276-.167.103-.303.543-.303.979 0 .435-.371 1.379-.824 2.097-1.64 2.598-1.465 2.692 5.222 2.792l5.846.088.653-.919c.36-.505.951-1.671 1.314-2.592.363-.92.861-1.994 1.107-2.387.246-.392.626-1.276.845-1.964.218-.688.731-1.743 1.139-2.344.408-.601.841-1.547.963-2.101s.566-1.657.988-2.45c.423-.794.768-1.712.768-2.039 0-.328.117-.596.26-.596.143 0 .523-.615.846-1.368.322-.752 1.002-2.282 1.51-3.401.508-1.119.924-2.223.924-2.455 0-.231.217-.601.482-.821.266-.22.483-.562.483-.759 0-.197.378-1.157.839-2.133 3.358-7.101 4.31-9.257 4.31-9.76 0-.255.217-.643.483-.864.265-.22.485-.564.488-.763.003-.2.579-1.521 1.281-2.937.703-1.416 1.279-2.82 1.282-3.119.003-.299.15-.634.327-.743.542-.335.359-1.406-.3-1.759-.806-.431-10.167-.437-10.971-.007-.335.18-.845.868-1.134 1.529a295.95 295.95 0 01-1.105 2.49c-.319.708-.769 1.83-1.001 2.494-.231.663-.536 1.206-.678 1.206-.141 0-.258.181-.259.403-.001.221-.196.774-.433 1.228a9.274 9.274 0 00-.646 1.681c-.118.47-.575 1.386-1.015 2.035-.44.648-.8 1.492-.8 1.874 0 .695-.543 1.468-1.03 1.468-.142 0-.257-.347-.257-.77 0-.424-.218-.854-.483-.955-.266-.102-.483-.544-.483-.981 0-.438-.128-.875-.285-.972-.157-.097-.381-.685-.497-1.306-.117-.622-.321-1.13-.453-1.13s-.514-.833-.847-1.851a30.432 30.432 0 00-1.514-3.62c-.499-.973-.908-2.096-.908-2.494-.001-.398-.146-.724-.323-.724-.177 0-.322-.209-.322-.464 0-1.381-11.215-2.351-12.486-1.081m-228.865.901c0 .644-.161.966-.483.966-.265 0-.483-.261-.483-.579 0-.319-.173-.753-.386-.966-.3-.3-.193-.386.483-.386.751 0 .869.131.869.965m65.534-.455c.965.281 2.146.715 2.624.964.477.249 1.019.454 1.202.455.184.001.992.69 1.797 1.53 1.386 1.45 1.693 2.103 2.527 5.391.18.71.327 5.126.328 9.859.003 9.993.105 10.403 2.429 9.69 1.658-.509 1.757-.381 1.752 2.272-.007 3.173.035 3.13-4.471 4.59-3.522 1.14-8.574.364-9.626-1.481-.723-1.265-1.228-1.405-2.309-.635-.498.354-1.03.644-1.182.644-.152 0-.782.265-1.398.59-5.278 2.772-12.602 1.542-15.434-2.592-1.774-2.588-1.738-7.974.067-10.105 1.791-2.113 6.047-4.948 7.429-4.948.254 0 1.239-.344 2.19-.763.952-.42 2.381-.912 3.178-1.093 3.336-.76 5.948-1.918 6.065-2.688.678-4.485-5.997-6.475-12.097-3.606-2.111.992-5.231 3.002-5.231 3.369 0 .151-.217.276-.483.276-.521 0-.737-7.505-.236-8.223 2.059-2.952 15.189-5.15 20.879-3.496m83.525-.063c.938.247 2.139.668 2.67.936.531.269 1.399.683 1.929.92 1.299.583 4.998 4.371 5.792 5.931.352.693.731 1.332.842 1.42.496.396 1.345 4.273 1.497 6.838l.166 2.816h-12.072c-13.213 0-13.111-.014-12.647 1.835.807 3.218 3.884 7.157 5.61 7.184.284.004 1.372.294 2.417.643 2.004.67 4.808.831 6.049.348.407-.159 1.391-.463 2.187-.676 1.852-.496 5.279-2.201 6.32-3.144 1.191-1.08 1.404-.674 1.404 2.679 0 3.525-.078 3.654-3.058 5.101l-2.498 1.212c-2.814 1.364-13.508 1.718-16.649.551-.973-.361-2.177-.736-2.674-.833-3.041-.591-8.148-5.871-9.246-9.56a246.515 246.515 0 00-.976-3.216c-.377-1.181-.391-6.533-.018-6.764.153-.095.375-.894.492-1.775.117-.882.353-1.69.525-1.797.172-.106.312-.419.312-.695 0-.723 2.045-3.945 3.286-5.177 1.312-1.303 3.861-3.286 4.228-3.29.15-.002.759-.234 1.353-.515 2.958-1.404 9.277-1.885 12.759-.972m38.069.047c4.161 1.26 7.291 3.642 7.73 5.883.093.475.318 1.528.5 2.341.189.844.307 5.066.276 9.846-.066 10.169-.129 9.96 2.998 9.772l1.207-.073v5.433l-2.333.897c-5.103 1.963-10.502 1.404-11.764-1.218-.454-.944-1.369-1.142-1.965-.425-.204.247-.837.628-1.407.847-.569.219-1.686.703-2.483 1.076-2.191 1.025-8.241 1.165-10.384.24-5.624-2.428-7.187-9.853-3.03-14.405 1.488-1.629 5.49-3.974 6.783-3.974.275 0 1.264-.35 2.198-.777.934-.427 2.277-.875 2.985-.994.708-.12 1.432-.328 1.609-.463.275-.209 2.995-1.167 4.264-1.502 1.026-.27-.234-3.868-1.689-4.821-3.336-2.186-12.534.078-15.686 3.861-.663.796-1.34.197-1.057-.936.089-.354.163-2.117.165-3.918l.005-3.275 1.728-.989c.951-.544 1.955-.989 2.232-.989.277 0 .911-.172 1.409-.382 3.652-1.538 12.212-2.113 15.709-1.055m-100.61 1.614c.533.983 1.067 2.238 1.188 2.789.121.551.565 1.651.987 2.444.422.794.768 1.675.769 1.959.001.283.264.949.584 1.48.321.531.928 1.98 1.348 3.218.711 2.095 1.341 3.058 2.002 3.058.351 0 2.501-4.472 2.501-5.202 0-.304.135-.637.301-.739.355-.219 1.308-2.06 1.308-2.525 0-.177.434-1.241.965-2.365.531-1.124.966-2.191.966-2.371 0-.42 1.594-2.973 2.059-3.295.549-.381 9.797-.184 10.35.221.414.302.339.637-.545 2.44-.564 1.149-1.13 2.379-1.258 2.733-.128.354-1.021 2.309-1.984 4.345a261.517 261.517 0 00-2.799 6.114c-1.638 3.773-2.586 5.829-3.433 7.449-.43.822-.782 1.764-.783 2.092-.001.327-.434 1.247-.964 2.044-.529.796-.969 1.665-.977 1.931-.007.265-.442 1.279-.966 2.252-.524.974-.953 1.954-.953 2.179 0 .225-.362.982-.805 1.683-.442.701-.804 1.425-.804 1.609 0 .303-.639 1.73-3.567 7.965l-.945 2.011h-5.448c-5.714 0-6.208-.126-5.344-1.358.275-.394.501-.977.501-1.295 0-.318.356-1.142.792-1.832.435-.69.893-1.664 1.017-2.166.124-.501.564-1.452.978-2.112.414-.66.753-1.402.753-1.649 0-.247.348-1.082.773-1.857.425-.774.871-1.878.991-2.454.12-.575.351-1.046.514-1.046.163 0 .296-.169.296-.376 0-.208.251-.654.557-.993.6-.663.639-.56-2.363-6.401-.422-.823-.768-1.742-.768-2.042 0-.301-.293-.958-.65-1.46-.358-.502-.853-1.466-1.1-2.142-.247-.675-1.33-3.005-2.407-5.179-1.076-2.173-1.957-4.116-1.957-4.318 0-.203-.198-.597-.439-.877-.241-.279-.702-1.232-1.023-2.117-.321-.885-.838-1.979-1.149-2.433-.685-1-1.066-2.395-.78-2.858.134-.217 2.124-.34 5.477-.34h5.267l.967 1.786m153.469-1.582c.73.195 1.45 1.423 1.83 3.121.112.502.56 1.476.995 2.166.436.69.792 1.48.792 1.756 0 .277.434 1.432.965 2.568.531 1.136.966 2.218.966 2.404 0 .346.142.671 1.08 2.473.291.558.529 1.237.529 1.509 0 .272.154.59.342.706.452.28 1.589-.769 1.589-1.465 0-.302.429-1.402.953-2.444 1.587-3.153 3.552-7.592 3.552-8.022 0-.223.36-1.035.8-1.806.441-.77.803-1.657.805-1.971.008-1.176 10.339-1.835 11.265-.719.45.542-.412 2.705-3.418 8.574-.42.82-.764 1.674-.764 1.898 0 .224-.423 1.29-.941 2.37s-1.297 2.76-1.731 3.733c-.434.974-1.458 3.174-2.276 4.89-.818 1.715-1.488 3.327-1.488 3.58 0 .254-.217.642-.482.863-.266.22-.483.572-.483.782 0 .211-.507 1.411-1.126 2.669-.62 1.257-1.127 2.377-1.127 2.488 0 .191-.714 1.78-2.971 6.611a672.107 672.107 0 00-3.107 6.758c-.735 1.616-.667 1.599-6.311 1.599-6.125 0-6.318-.07-5.18-1.872.46-.728.836-1.488.836-1.689 0-.2.349-1.036.776-1.856.684-1.312 1.575-3.205 3.735-7.928 1.236-2.702 1.603-3.814 1.603-4.855 0-1.126-.895-3.351-1.347-3.351-.144 0-.262-.214-.262-.476 0-.263-.559-1.674-1.243-3.138s-1.345-2.987-1.47-3.385c-.125-.398-.35-.724-.501-.724-.151 0-.37-.433-.486-.962-.116-.529-.345-1.044-.508-1.145-.164-.101-.297-.395-.297-.654 0-.258-.362-1.044-.805-1.744-.442-.701-.8-1.459-.795-1.684.005-.224-.425-1.277-.956-2.339-1.814-3.63-4.202-8.694-4.202-8.909 0-.514 9.169-.835 10.864-.38m-240.61 2.382c.646.345.865 1.275.301 1.275-.449 0-1.597-1.192-1.368-1.421.254-.253.346-.241 1.067.146m-1.94 3.71c.378.707.374.868-.027 1.121-.784.496-.95.353-.95-.82 0-1.332.364-1.445.977-.301m145.324.078c-3 .996-6.592 6.159-4.991 7.173.663.419 14.034.369 14.295-.054.883-1.429-1.498-5.506-3.819-6.539-2.829-1.258-3.294-1.307-5.485-.58m4.946.866c.22.266.656.483.967.483.312 0 .645.3.741.668.096.367.461.742.81.833.463.121.766.683 1.114 2.068l.479 1.902-.849.028c-4.379.145-11.617.175-12.209.05-.762-.161-.78-1.679-.03-2.476a1.18 1.18 0 00.288-.699c0-.496 1.567-2.045 2.779-2.747 1.244-.72 5.34-.796 5.91-.11m-148.431.943c-.31.228-.563.671-.563.983 0 .472-.083.499-.493.158-.437-.363-.419-.477.161-1.017.359-.335.653-.777.653-.983 0-.265.117-.255.403.035.322.326.29.49-.161.824m8.71 1.114c.106 1.072-.436 2.096-.943 1.783-.335-.207-.387-2.504-.064-2.827.447-.447.908.03 1.007 1.044m.915 5.564c-.258.765-.593 1.361-.743 1.326-.563-.13-.466-1.145.248-2.609.904-1.854 1.252-.955.495 1.283m-9.223-1.828c0 .265-.145.483-.322.483-.177 0-.322-.218-.322-.483 0-.266.145-.483.322-.483.177 0 .322.217.322.483m11.916 3.819c-.227.228-.325-.016-.311-.778.019-1.043.039-1.063.332-.332.206.516.199.891-.021 1.11m-9.342-.987c0 .463-.628 1.19-1.029 1.19-.391 0-.308-.786.128-1.222.506-.506.901-.492.901.032m106.202.862c-.73.73-.945 4.981-.334 6.589l.316.832 6.844-.087 6.844-.087v-7.723l-6.51-.087c-6.166-.083-6.544-.053-7.16.563m13.44 3.473l.091 3.305-6.527-.087-6.528-.087-.161-2.829c-.226-3.977-.556-3.801 6.914-3.695l6.119.087.092 3.306m-61.281-1.237c-.682.316-1.892.844-2.689 1.174-4.759 1.969-5.961 6.476-2.297 8.616.931.544 1.22.571 2.402.228 4.309-1.253 4.722-1.841 4.722-6.712 0-4.018-.138-4.231-2.138-3.306m121.849.023c-.62.339-1.778.844-2.575 1.122-.796.279-2.097 1.067-2.889 1.752-3.363 2.906-.829 8.668 3.104 7.062 4.742-1.936 4.612-1.75 4.612-6.613 0-4.45-.052-4.527-2.252-3.323m-179.244.483c0 .244-.145.534-.322.644-.183.113-.322-.164-.322-.644s.139-.757.322-.644c.177.11.322.399.322.644m58.89 3.168c0 4.051-.035 4.126-2.362 5.208-2.438 1.133-5.362.521-5.362-1.121 0-.291-.173-.703-.386-.916-.3-.3-.3-.472 0-.772.213-.212.386-.777.386-1.255 0-.653.281-1.035 1.127-1.534.619-.366 1.126-.814 1.126-.997 0-.183.326-.338.724-.343.398-.006 1.005-.223 1.349-.483.343-.26.824-.472 1.069-.472.244 0 .661-.218.926-.483 1.173-1.173 1.403-.655 1.403 3.168m122.284-.149v3.501l-1.104.843c-.608.464-1.303.843-1.545.843s-.613.173-.824.384c-.621.62-3.475.478-4.237-.211-.9-.815-.945-4.08-.068-4.92 1.299-1.243 2.333-2.011 2.712-2.015.22-.002 1.197-.417 2.17-.924 2.928-1.522 2.896-1.549 2.896 2.499m-178.607 1.527c.004.2.224.543.49.764.552.458.636.965.161.965-.177 0-.322-.217-.322-.483 0-.265-.181-.486-.402-.49-.471-.01-1.581-2.086-1.277-2.389.238-.239 1.339 1.093 1.35 1.633m4.032 3.34c.793.877.383 1.187-.458.347-.369-.369-.671-.743-.671-.832 0-.368.583-.117 1.129.485m6.595 4.342c0 1.097-.392 1.474-.816.787-.281-.454.101-1.913.5-1.913.174 0 .316.507.316 1.126" fill="#92add2"/><path d="M257.281 95.898c-.354.153-1.187.367-1.851.475-.663.108-1.206.335-1.206.504 0 .169-.354.307-.786.307-.432 0-.875.145-.984.322-.11.177-.486.322-.837.322-.546 0-2.365 1.042-2.864 1.641-.088.106-.776.579-1.529 1.05-.752.471-1.367 1.072-1.367 1.335 0 .264-.156.479-.347.479-.426 0-3.337 2.875-3.397 3.355-.024.19-.06.517-.081.726-.02.21-.29.463-.6.564-.31.1-.917.979-1.349 1.952-.432.974-.871 1.77-.975 1.77-.899 0-2.202 10.383-1.635 13.033.189.885.495 2.478.68 3.54.186 1.062.692 2.682 1.124 3.6.433.918.787 1.896.787 2.172 0 .277.218.503.483.503.266 0 .483.267.483.594 0 .326.286.852.635 1.168.35.317.721.846.826 1.177.105.33.399.601.652.601.254 0 .461.217.461.482 0 .266.166.483.369.483.202 0 .673.292 1.045.649 1.275 1.219 3.33 2.891 3.556 2.891.124 0 .427.181.674.402 1.177 1.056 1.476 1.207 2.388 1.207.655 0 .979.159.979.483 0 .348.357.482 1.287.482.93 0 1.287.134 1.287.483 0 .389.501.483 2.574.483 1.502 0 2.575.134 2.575.322 0 .185 1.013.321 2.394.321 1.317 0 2.484-.144 2.594-.321.109-.177.842-.322 1.628-.322.962 0 1.429-.138 1.429-.421 0-.29.496-.421 1.596-.421 1.047 0 1.802-.187 2.197-.544.331-.3.819-.545 1.084-.545.265 0 .823-.363 1.24-.808.457-.486.974-.739 1.301-.635.355.113.743-.134 1.123-.715.703-1.072 1.771-2 2.32-2.015.221-.006.402-.228.402-.493 0-.266.217-.483.483-.483a.484.484 0 00.482-.483c0-.265.194-.482.432-.482.237 0 .623-.582.857-1.292.235-.711.62-1.452.856-1.649.236-.196.43-.628.43-.96 0-.333.217-.605.483-.605.265 0 .482-.144.482-.321 0-.177.217-.322.483-.322.358 0 .483-.376.483-1.448 0-.797.144-1.448.321-1.448.177 0 .322-.362.322-.805 0-.481.184-.804.458-.804 1.107 0 1.106-11.975-.002-12.895-.251-.208-.456-.641-.456-.963 0-.322-.153-.68-.34-.796-.195-.12-.254-.608-.137-1.138.27-1.232-.044-2.122-.821-2.325-.446-.117-.633-.442-.633-1.101 0-.671-.279-1.142-.992-1.669-.785-.58-.952-.896-.799-1.508.191-.758-.028-.929-1.024-.799-.229.03-.403-.295-.403-.751 0-.614-.284-.937-1.206-1.366-1.466-.683-3.298-2.084-3.301-2.525-.004-.457-1.57-1.127-2.636-1.127-.687 0-.902-.153-.902-.643 0-.491-.214-.644-.901-.644-.495 0-1.058-.157-1.25-.349-.192-.192-1.238-.429-2.326-.528-1.087-.099-2.054-.304-2.148-.456-.221-.358-7.819-.318-8.66.047m-55.189 5.631c-.443.253-1.348.465-2.012.471-.663.006-1.206.156-1.206.333 0 .177-.435.322-.966.322-.643 0-.965.161-.965.483 0 .348-.358.482-1.287.482-.939 0-1.288.133-1.288.491 0 .27-.372.632-.828.806-.456.173-1.046.531-1.31.796-.265.265-.689.482-.942.482a.473.473 0 00-.459.482.477.477 0 01-.468.483c-.257 0-.708.507-1.002 1.126-.294.62-.666 1.127-.827 1.127-.16 0-.455.359-.655.798-.2.439-.614.878-.919.975-.355.112-.633.659-.769 1.514-.118.737-.491 1.855-.83 2.485-1.178 2.194-1.387 10.598-.292 11.75.16.168.291.768.291 1.333 0 .575.195 1.102.442 1.197.243.094.54.691.66 1.329.178.949 1.703 3.126 3.333 4.755 1.181 1.181 3.72 3.148 4.064 3.148.238 0 .613.217.833.482.221.266.625.483.899.483s.727.201 1.007.446c1.419 1.246 10.461 2.123 12.214 1.184.353-.188.918-.343 1.256-.343.338 0 .877-.289 1.197-.643.323-.357.991-.644 1.498-.644.504 0 .916-.145.916-.322 0-.177.142-.321.315-.321.451 0 3.862-2.211 4.928-3.194.991-.914 2.802-3.868 2.802-4.572 0-.246.289-.627.643-.848.406-.254.644-.751.644-1.346 0-.519.128-1.023.284-1.119.156-.097.291-.749.301-1.45.01-.701.152-1.536.316-1.855.477-.929.687-3.995.381-5.568-.555-2.852-.706-3.398-1.312-4.743-.337-.751-.614-1.507-.614-1.68 0-.174-.434-.637-.965-1.03-.578-.427-.966-1.006-.966-1.442 0-.774-4.321-5.22-5.5-5.659-.346-.129-.717-.466-.826-.75-.121-.314-.435-.454-.803-.358-.333.087-.809-.046-1.059-.296-.25-.25-.89-.454-1.424-.454-.533 0-1.059-.145-1.168-.322-.109-.177-1.023-.327-2.03-.333-1.007-.006-2.194-.218-2.636-.471-.443-.253-1.094-.46-1.448-.46-.354 0-1.006.207-1.448.46m-49.313 4.399c-.223.141-.859.259-1.412.262-.554.002-1.187.222-1.407.487-.221.266-.637.484-.925.484-.84.002-2.669 1.261-2.853 1.964-.107.411-.343.579-.65.461-.504-.193-2.614 1.907-2.638 2.626-.008.213-.196.503-.419.644-.369.234-.608.668-1.856 3.372-.218.474-.327 1.229-.241 1.678.086.449.001.868-.188.931-1.35.45.101 8.787 1.903 10.928.433.515.787 1.124.787 1.353 0 .229.688 1.032 1.529 1.784l2.384 2.133c.471.421 1.13.765 1.465.765.334 0 .745.124.913.276 1.585 1.427 9.377 1.927 11.448.734.598-.344 1.551-.722 2.118-.84.621-.129 1.111-.466 1.233-.849.13-.411.391-.574.741-.463.711.225 5.201-4.628 5.201-5.623 0-.384.27-1.082.6-1.552 1.596-2.27 1.342-10.953-.377-12.852-.3-.332-.545-.783-.545-1.003 0-.783-4.24-5.112-5.194-5.302-.53-.106-.921-.393-.921-.675a.504.504 0 00-.514-.491c-.283 0-.971-.205-1.529-.455-2.458-1.103-7.436-1.55-8.653-.777m112.912.426c.507.264 1.37.481 1.918.482.581.001 1.236.267 1.571.638.316.349.867.728 1.224.841 1.699.539 3.657 3.303 5.828 8.226.708 1.606.733 7.095.035 7.675-.265.22-.483.872-.483 1.448s-.217 1.227-.482 1.448c-.266.22-.483.64-.483.933 0 .613-3.667 4.216-4.291 4.216-.229 0-.832.434-1.341.965-.508.531-1.178.965-1.489.965-.31 0-.654.145-.763.322-.116.188-1.928.322-4.344.322-2.417 0-4.229-.134-4.345-.322-.109-.177-.688-.322-1.287-.322s-1.184-.154-1.301-.344c-.117-.189-.474-.443-.793-.563-.635-.239-3.725-3.109-5.388-5.003-.792-.902-1.046-1.492-1.046-2.428 0-.707-.207-1.408-.482-1.637-.667-.554-.702-7.141-.042-7.689.243-.202.517-1.034.609-1.848.213-1.89 5.174-7.197 6.728-7.197.48 0 .962-.145 1.071-.322.11-.177.463-.322.784-.322.322 0 .766-.217.986-.482.564-.68 6.304-.682 7.606-.002m-27.323 3.253c-.129.129-.234.457-.234.728 0 .362.095.398.358.136.196-.197.302-.525.234-.728-.068-.204-.229-.265-.358-.136m-28.59 1.583c.776.527 1.749 1.185 2.163 1.463.74.497 2.379 2.667 2.379 3.149 0 .136.326.597.724 1.023 3.032 3.251-1.414 15.436-5.631 15.436-.419 0-1.043.212-1.387.472-.899.681-6.659.689-7.221.01-.221-.265-.635-.482-.921-.482-1.045 0-3.271-1.139-3.46-1.77-.107-.354-.744-1.223-1.417-1.931-2.935-3.091-3.385-10.318-.811-13.033.587-.62 1.161-1.438 1.275-1.818.114-.381.547-.778.962-.882.415-.104.828-.471.918-.815.108-.412.558-.7 1.315-.842.632-.118 1.33-.432 1.549-.696.807-.972 7.852-.445 9.563.716m-155.393 1.749c-.797.301-1.415.708-1.375.904.041.197-.212.449-.563.56-.35.111-.637.426-.637.7 0 .335-.205.445-.623.336-.656-.172-.986.307-.986 1.432a.858.858 0 01-.643.815c-.354.093-.651.188-.659.212-.61 1.726-.215 6.797.508 6.519.303-.116.533.088.657.584.105.419.541 1.091.969 1.493.427.401.777.922.777 1.157 0 .234.222.426.494.426.271 0 1.209.363 2.085.807 1.702.862 4.218 1.167 4.429.536.069-.208.335-.377.59-.377.844 0 4.221-1.886 4.437-2.478.116-.319.49-1.086.831-1.706 1.069-1.944.551-8.688-.668-8.688-.16 0-.291-.198-.291-.439s-.958-.91-2.129-1.487c-1.352-.665-1.985-1.136-1.736-1.291.26-.16.28-.313.06-.449a.384.384 0 00-.53.11c-.107.174-.66.239-1.229.145-.568-.094-1.323-.216-1.677-.27-.354-.054-1.295.148-2.091.449m105.331.067c4.054 2.147 6.799 8.251 5.084 11.304-.375.667-.681 1.34-.681 1.496 0 3.048-7.043 6.239-10.78 4.885-2.782-1.008-3.193-1.237-4.205-2.341-3.778-4.122-3.593-9.678.458-13.788 2.069-2.1 7.517-2.937 10.124-1.556m-100.284 3.697c4.854 2.303 2.74 9.767-2.634 9.298-3.762-.329-6.191-6.318-3.256-8.029.334-.194.943-.679 1.354-1.077.914-.887 2.894-.971 4.536-.192m201.63 31.884c.841.067 2.216.067 3.057 0 .841-.066.153-.12-1.528-.12-1.682 0-2.37.054-1.529.12" fill="#70c426"/></g></svg>